{"glyphs":{"0":{"ha":509,"x_min":-33,"x_max":532,"o":"m 27 732 q 29 732 28 732 l 32 733 q 33 726 34 732 q 24 702 29 715 l 14 679 q -3 631 1 651 l 1 627 q -22 542 -15 580 q -20 374 -33 457 q -16 371 -18 377 q -13 353 -15 366 l -12 342 l -9 331 q 2 281 -5 302 l 8 266 q 12 262 9 264 l 13 262 l 14 262 q 31 221 22 241 q 133 122 73 153 q 281 107 203 84 q 398 182 349 125 q 467 292 437 226 q 497 393 480 328 q 517 473 509 439 q 532 552 528 519 q 522 567 526 550 q 517 584 519 572 l 515 593 l 513 603 q 492 639 502 653 q 488 688 492 662 q 479 716 484 715 q 452 737 467 720 q 434 763 446 745 l 429 771 l 423 781 q 410 800 416 791 q 399 819 404 810 q 387 838 393 830 q 367 862 373 859 q 363 860 362 865 q 366 855 364 859 l 368 850 q 372 840 372 842 q 368 838 372 836 q 429 554 448 739 q 415 474 425 515 q 393 398 408 436 q 318 269 363 315 q 309 257 314 263 q 292 243 301 250 q 272 232 282 236 q 245 224 258 226 q 190 237 215 220 q 139 306 159 258 q 124 353 130 328 q 117 408 119 380 q 118 514 112 461 q 135 603 123 558 q 156 665 144 634 l 160 676 q 183 728 171 702 q 208 780 196 757 q 264 865 231 822 q 287 895 273 878 q 297 907 292 901 q 301 911 299 909 l 302 913 l 304 914 q 282 911 292 915 l 290 916 l 295 919 q 304 923 300 922 q 314 926 309 924 l 317 926 l 321 927 q 332 926 326 928 l 336 925 l 340 925 q 345 928 345 924 q 342 941 346 933 q 330 956 337 950 q 324 966 323 960 l 325 969 q 323 972 324 970 q 309 975 319 975 q 363 959 339 978 q 356 966 366 960 q 334 975 346 973 q 323 977 330 977 l 318 977 l 314 977 q 312 980 307 977 q 378 953 354 983 q 368 967 378 958 q 342 983 356 979 q 328 986 336 985 q 315 987 322 987 q 304 989 304 987 q 323 990 311 991 q 347 983 336 988 q 358 977 352 981 l 363 973 l 367 970 q 378 964 376 964 q 368 975 380 966 q 346 987 355 985 q 391 957 371 979 l 398 949 q 404 941 401 945 q 412 930 410 932 q 418 930 418 923 q 417 936 418 933 q 414 945 416 940 q 402 969 410 956 q 416 947 409 961 q 427 924 422 935 q 433 903 429 916 l 436 893 l 439 884 l 439 884 q 433 907 436 896 q 426 928 429 921 q 439 888 434 910 l 441 896 q 431 928 437 913 q 441 900 437 913 q 440 926 442 913 q 430 957 437 939 q 412 988 422 976 q 370 1025 394 1015 q 285 1033 330 1044 q 243 1017 266 1029 q 212 997 226 1008 q 130 917 172 967 q 98 873 114 897 q 70 825 83 852 q 27 732 46 779 z "},"1":{"ha":296,"x_min":12,"x_max":382,"o":"m 41 138 l 40 138 l 40 138 l 40 138 l 41 138 l 41 138 m 41 138 q 42 138 43 136 l 41 137 l 41 138 m 239 1025 l 238 1025 l 237 1023 l 236 1021 l 233 1017 q 214 1029 216 1028 q 233 1017 213 1029 l 233 1017 l 236 1013 q 195 959 212 983 q 159 883 178 928 q 115 825 136 850 q 74 772 94 796 l 101 783 l 88 773 l 82 768 l 76 764 q 59 749 62 753 q 43 724 35 727 q 56 723 47 722 l 64 724 l 73 724 q 80 724 77 726 l 81 722 l 83 720 q 98 720 86 715 q 63 697 83 709 q 70 699 64 695 q 77 703 73 701 l 83 708 q 99 714 102 721 q 78 701 92 710 l 68 692 l 58 686 q 78 694 62 684 l 85 698 l 91 702 q 102 708 98 706 l 101 704 l 96 701 l 90 699 l 79 692 q 66 682 66 686 q 75 685 66 680 l 81 689 q 88 693 85 691 q 71 659 12 637 q 59 652 66 656 l 45 646 q 20 633 28 637 l 20 633 q 27 635 23 634 l 35 640 q 49 646 45 644 l 23 632 l 29 631 q 50 641 41 636 l 33 631 q 51 633 41 632 l 70 640 q 87 645 81 643 q 47 390 64 530 l 46 350 q 43 311 45 328 q 33 250 41 291 l 30 235 l 27 220 q 22 188 24 203 q 32 176 28 190 l 33 170 l 35 162 q 38 149 37 153 l 40 143 l 42 138 l 42 138 l 42 138 q 57 143 54 136 q 85 132 68 136 q 104 132 102 128 l 108 137 l 112 142 q 123 151 117 147 q 181 167 136 158 q 199 168 188 168 l 208 168 l 218 169 q 243 173 239 170 q 244 176 248 175 q 240 178 243 177 l 235 179 q 225 185 220 182 q 168 182 195 181 q 140 184 151 182 q 133 184 136 184 q 128 185 129 184 l 126 185 l 125 185 l 125 186 l 134 250 l 145 317 q 173 450 158 387 q 180 488 174 463 q 194 552 185 517 q 243 719 216 640 q 277 802 259 762 q 334 886 307 842 l 332 886 l 329 887 q 329 892 327 888 q 338 909 332 901 l 349 924 l 355 932 l 360 939 l 365 947 l 365 948 l 365 948 q 375 942 364 949 q 357 953 382 938 q 239 1025 325 973 l 239 1025 z "},"2":{"ha":630,"x_min":-64,"x_max":739,"o":"m 130 283 q 85 264 109 270 q 63 261 73 261 l 60 261 l 58 262 l 59 262 q 100 296 72 281 q 172 315 130 317 q 130 283 152 296 m 724 106 q 714 113 717 111 q 716 116 711 116 q 563 204 662 131 l 522 234 l 481 265 q 394 327 431 302 q 360 349 383 334 q 401 414 378 375 l 439 475 l 459 507 q 478 541 469 524 q 536 680 515 610 q 557 812 557 752 q 530 928 558 881 q 513 949 523 938 q 463 986 492 973 q 406 1000 436 998 q 353 998 379 1002 q 300 981 327 994 q 228 928 260 960 q 181 873 205 907 q 127 768 149 826 q 159 806 142 789 q 118 724 123 753 q 109 683 109 696 q 115 676 109 672 q 126 690 117 678 l 134 700 l 142 709 q 149 715 146 715 l 151 715 l 153 713 q 169 725 159 710 q 147 671 155 696 q 152 680 149 670 l 153 685 l 155 690 l 159 701 q 168 720 165 714 q 172 721 172 727 q 159 688 165 707 q 150 655 154 675 q 157 669 152 656 l 159 675 l 161 681 l 166 693 q 184 722 180 727 q 177 709 183 719 l 172 699 l 167 689 q 159 660 154 664 q 164 671 160 659 l 168 680 q 171 690 170 686 q 162 648 163 667 q 165 626 161 631 q 170 625 168 621 q 178 646 171 626 q 175 621 174 629 q 186 606 176 609 q 178 614 181 608 q 176 623 176 619 q 186 608 177 612 l 185 612 q 181 623 182 615 q 186 613 182 616 q 189 623 186 618 l 189 625 l 191 627 l 193 632 q 199 645 195 639 l 202 651 l 205 658 q 210 669 209 665 q 315 819 245 755 q 374 855 350 852 q 378 856 376 856 l 386 857 q 398 855 393 857 q 404 854 402 854 l 405 853 l 405 852 l 407 854 l 408 856 q 411 857 410 858 q 416 840 416 855 l 416 825 q 416 806 416 814 l 421 804 q 401 730 417 772 q 345 589 383 660 q 347 585 349 590 q 327 552 341 573 l 298 509 l 292 496 q 291 492 291 494 l 292 490 l 292 490 q 269 455 281 473 q 240 404 252 424 q 166 418 202 416 q 23 379 88 422 q -37 325 -15 353 q -51 301 -45 311 q -60 267 -58 285 q -57 221 -64 243 q -33 180 -50 198 q 21 149 -11 158 q 82 144 49 142 q 208 187 146 149 q 299 267 254 216 q 345 236 321 254 q 364 237 347 243 q 382 231 372 235 l 393 226 l 402 222 q 449 214 454 199 q 473 196 463 203 q 496 178 486 186 q 526 161 522 160 q 565 161 539 168 q 652 127 579 157 l 664 121 l 676 116 q 700 105 691 109 q 732 98 722 96 q 733 102 739 99 l 724 106 z "},"3":{"ha":510,"x_min":-109,"x_max":535,"o":"m 528 545 q 490 619 517 586 q 457 653 476 637 l 448 661 l 438 668 q 412 684 425 677 q 383 694 397 690 l 379 696 l 377 696 q 377 696 376 696 q 378 696 378 696 l 378 696 l 376 696 l 371 696 q 351 688 363 694 l 342 684 q 341 684 340 683 l 341 684 l 342 685 l 345 688 l 357 699 l 366 707 l 371 712 l 381 724 l 393 740 q 456 862 442 804 q 459 883 458 873 q 431 1000 469 951 q 379 1037 411 1024 q 349 1045 366 1042 q 332 1048 341 1046 q 318 1048 324 1048 q 170 1018 246 1050 q 71 956 116 993 q 117 972 94 966 q 41 920 60 945 q 16 886 22 899 q 18 878 12 876 q 34 886 21 879 l 45 892 q 56 897 52 895 q 66 899 63 900 l 67 897 l 68 895 q 87 898 72 890 q 46 861 62 880 q 54 867 47 859 l 57 870 l 60 874 l 69 882 q 84 895 78 890 q 88 892 91 898 q 43 846 65 878 q 54 855 45 846 l 58 859 l 62 863 l 72 872 q 90 886 81 880 q 99 888 98 890 q 87 880 97 886 l 79 875 l 71 868 q 54 846 50 852 q 61 853 54 846 l 68 861 q 75 867 72 865 q 52 835 59 851 q 47 815 46 822 q 52 812 49 810 q 66 827 55 814 q 56 786 50 802 l 56 786 q 56 798 55 791 q 58 808 56 804 q 58 788 55 798 l 60 792 q 62 806 60 797 q 62 794 61 800 q 69 803 65 799 q 85 819 73 810 l 94 825 q 102 831 99 829 q 254 901 157 882 q 295 906 275 905 q 312 905 304 906 q 314 905 314 905 l 314 905 l 315 905 q 315 903 315 905 l 315 901 l 318 901 l 320 901 q 323 899 322 901 q 312 871 323 888 l 307 864 l 302 857 q 291 839 295 846 l 294 834 q 269 806 283 821 l 243 781 q 210 749 229 766 q 141 686 181 721 l 122 671 l 102 654 q 65 623 78 634 q 92 581 85 593 q 98 581 96 583 q 99 575 98 578 l 100 568 q 101 558 100 559 l 103 559 l 106 560 q 112 562 109 562 l 113 562 q 137 561 123 564 q 158 552 149 557 q 190 531 172 545 q 214 543 200 536 l 224 548 l 235 553 l 244 557 l 253 560 q 269 566 263 564 q 319 577 301 576 q 338 577 327 578 q 346 576 342 577 l 348 576 l 349 576 q 360 572 356 574 l 363 571 l 366 570 l 373 565 q 386 555 380 560 q 406 532 398 545 q 416 472 422 507 q 387 398 411 439 q 325 314 362 351 q 180 243 272 264 q 168 229 184 239 q 132 214 155 221 l 123 210 l 113 208 q 98 202 102 203 q 92 191 83 196 q 31 199 58 191 q 18 203 24 201 l 12 206 l 6 208 q -6 212 -5 212 q -14 210 -9 210 q -24 211 -19 210 q -54 227 -39 214 q -83 281 -77 248 q -85 324 -88 300 q -76 368 -83 346 q -38 432 -66 396 q -27 445 -33 438 l -22 450 l -18 456 q -7 471 -9 467 q -22 464 -1 481 q -38 456 -43 447 q -101 342 -85 395 q -105 322 -103 336 q -108 298 -108 308 q -102 249 -109 272 q -45 170 -87 201 q 31 138 -14 148 q 96 130 62 130 q 216 147 154 130 q 325 193 274 163 q 375 227 352 208 q 420 267 396 243 q 492 359 464 312 q 535 491 532 426 q 534 513 534 503 q 528 545 532 529 z "},"4":{"ha":510,"x_min":-1,"x_max":525,"o":"m 521 595 l 520 595 q 517 597 519 597 l 513 597 l 509 598 q 509 602 506 600 l 441 583 q 456 637 450 620 l 457 642 q 472 734 473 698 l 470 754 l 467 773 q 455 760 461 766 q 458 789 461 784 q 450 806 457 807 q 441 802 446 805 l 437 799 l 432 795 q 427 794 430 794 l 422 795 q 412 791 416 796 l 416 810 q 414 808 415 811 l 414 804 l 413 800 q 408 793 412 789 q 410 804 410 797 l 410 810 l 411 817 q 407 812 409 816 l 406 808 l 404 803 q 397 793 401 791 q 399 798 397 794 l 401 801 l 403 805 q 403 816 408 814 q 400 812 401 816 l 399 808 l 399 805 q 396 830 400 824 q 382 823 391 837 l 385 829 l 387 836 q 389 848 389 843 l 389 848 l 388 844 l 387 841 q 385 834 385 836 l 387 847 l 383 845 q 380 836 381 840 l 382 844 q 373 838 377 842 l 368 831 l 362 825 q 356 815 357 819 l 347 782 l 336 748 q 317 679 324 705 l 319 679 l 321 678 q 324 675 323 678 q 317 659 323 669 l 313 651 q 311 642 311 647 l 315 640 l 301 613 q 290 557 294 584 q 293 555 293 557 q 290 543 293 551 q 152 513 206 522 q 206 665 174 572 l 212 682 l 218 699 q 229 728 225 719 q 244 773 239 760 l 247 781 q 282 916 275 862 l 284 943 l 285 971 q 270 951 277 960 q 281 994 281 986 q 275 1017 283 1019 q 266 1013 272 1017 l 260 1008 l 255 1004 q 250 1001 252 1001 l 247 1002 l 245 1002 q 233 997 239 1004 l 243 1025 q 239 1021 241 1026 l 238 1016 l 237 1010 q 229 1000 232 994 q 235 1017 232 1006 l 237 1026 l 239 1035 q 233 1027 237 1034 l 231 1021 l 229 1015 q 219 999 222 998 q 222 1006 219 1001 l 224 1012 l 227 1017 q 230 1034 234 1031 q 227 1028 229 1034 l 224 1023 l 223 1017 q 227 1056 230 1046 q 212 1046 224 1067 q 215 1055 213 1049 l 219 1064 q 226 1084 224 1077 l 226 1084 l 224 1079 l 222 1073 q 217 1063 218 1065 l 224 1083 l 220 1080 q 213 1065 215 1072 l 218 1079 q 207 1069 212 1075 l 199 1059 l 192 1049 q 182 1034 184 1038 q 110 828 142 925 l 112 827 l 114 827 q 116 823 117 827 q 106 799 115 814 l 100 787 q 96 774 96 781 l 100 772 l 78 731 l 54 650 q 56 647 57 650 q 50 627 55 640 l 45 616 l 40 606 l 39 598 q 39 595 39 597 l 41 594 q 33 576 37 585 q 7 482 19 522 l 12 490 l 6 479 q 2 465 3 471 q 0 444 -1 456 q 8 418 1 430 q 24 399 14 408 q 39 391 33 393 q 50 387 45 389 q 60 385 54 386 q 89 385 75 383 l 101 386 l 113 387 q 199 409 146 393 l 227 421 q 254 431 243 428 q 278 437 264 434 q 273 326 275 382 l 275 304 q 276 285 277 293 q 271 254 275 273 l 268 239 q 264 225 266 231 q 275 218 271 225 l 279 212 l 283 203 q 302 186 292 183 l 300 176 l 299 167 q 301 155 298 156 q 321 140 314 150 q 333 104 331 127 q 328 81 333 97 l 324 70 q 322 60 322 64 q 326 58 323 58 q 328 62 326 59 l 330 64 l 332 66 q 340 71 339 77 q 356 144 349 99 q 366 212 361 170 l 376 279 l 382 311 l 389 344 q 401 420 388 358 q 429 540 412 473 q 475 577 441 559 q 490 582 481 580 l 498 584 l 505 585 q 518 589 514 587 q 522 591 524 590 q 522 594 525 593 l 521 595 z "},"5":{"ha":555,"x_min":-73,"x_max":640,"o":"m 219 833 l 220 833 l 219 832 l 219 833 m 625 1061 q 558 1021 593 1036 q 471 998 518 1004 q 366 983 450 987 q 291 981 333 981 q 259 979 275 980 q 236 979 248 979 l 231 979 q 151 960 182 977 q 122 938 138 951 q 138 934 132 936 q 114 923 117 928 q 107 907 102 913 q 114 902 109 905 l 119 900 l 123 897 q 127 894 125 896 l 128 889 q 136 882 130 883 q 121 877 128 880 q 124 877 121 876 l 127 878 l 130 879 q 136 878 137 882 q 128 874 133 878 l 124 872 l 120 869 q 125 868 122 868 l 129 869 l 132 870 q 142 869 140 872 q 138 868 141 868 l 135 868 l 132 868 q 125 863 124 867 q 129 863 125 862 l 132 863 l 134 865 q 121 850 122 857 q 132 843 120 844 l 128 842 l 123 840 q 116 837 118 839 l 121 838 l 125 840 l 117 836 l 120 833 q 127 835 124 834 l 122 833 l 130 828 l 136 827 l 141 825 q 149 823 147 823 l 153 824 l 147 806 l 141 787 q 128 743 134 764 q 90 606 111 686 l 125 577 l 131 572 l 136 567 q 144 561 142 562 l 144 562 l 145 563 q 147 564 146 564 l 148 563 q 168 551 156 561 l 174 545 q 181 539 178 542 q 202 524 191 532 l 208 529 l 208 528 q 267 545 236 541 q 281 545 275 545 q 284 545 283 545 l 286 545 l 288 545 l 297 543 q 353 524 330 543 q 357 526 355 527 q 368 513 363 522 q 372 507 370 511 l 375 499 l 376 497 l 377 495 l 379 494 l 381 494 q 383 480 383 489 q 356 358 396 431 q 252 244 313 281 q 190 212 221 222 q 84 217 136 198 q 72 210 84 211 q 45 212 60 208 q 32 216 39 214 l 26 219 l 20 221 q 9 217 9 225 q -10 260 -6 235 q -12 271 -12 266 l -12 275 l -13 279 q -15 288 -14 288 q -25 298 -21 292 q -32 319 -31 307 q -14 401 -37 355 q 0 420 -9 410 q 16 439 6 429 q 38 465 37 462 q 36 468 40 469 q 26 462 33 467 q 13 459 9 452 q -37 392 -17 425 q -71 299 -64 344 q -72 269 -73 285 q -66 235 -71 249 q -35 176 -58 203 q 62 117 1 134 q 238 122 143 96 q 317 155 279 134 q 388 205 355 175 q 393 210 389 207 l 395 214 l 399 217 q 414 233 407 226 q 452 282 434 257 q 491 353 477 321 q 517 450 511 400 q 494 566 523 513 q 460 615 481 593 q 415 652 439 637 q 313 685 370 681 q 289 686 301 686 l 275 686 l 270 685 l 262 684 l 260 682 l 260 682 q 259 683 259 682 l 260 685 l 260 686 l 261 691 q 260 699 261 694 q 262 710 260 697 l 263 716 l 264 722 q 266 734 265 730 l 269 769 l 271 805 q 255 779 262 790 q 267 834 268 824 l 268 839 l 269 839 l 269 844 l 292 838 q 337 842 316 840 q 338 846 336 846 q 349 847 342 847 l 355 846 l 362 846 l 366 847 l 367 849 l 368 850 q 378 850 372 850 q 520 895 460 869 l 535 904 q 549 912 543 909 q 574 920 557 915 l 587 922 q 599 926 594 924 q 598 939 596 931 l 601 945 l 604 952 q 605 977 612 970 q 617 983 612 979 q 623 991 624 988 q 623 1040 611 1017 q 627 1044 625 1042 l 633 1048 q 640 1055 640 1053 q 637 1057 640 1057 l 635 1058 l 632 1058 q 625 1061 625 1058 z "},"6":{"ha":525,"x_min":-2,"x_max":551,"o":"m 416 380 q 409 365 414 374 q 395 342 403 353 q 343 287 373 311 q 265 244 302 254 q 222 240 239 238 q 191 251 204 241 q 151 320 165 267 l 156 326 q 160 331 159 330 q 163 329 163 335 q 256 469 195 403 q 316 524 286 502 q 348 544 332 536 q 373 554 360 551 q 411 550 396 559 q 434 516 426 542 q 416 380 453 449 m 515 579 q 440 647 488 629 q 342 652 394 665 q 330 636 345 648 l 322 630 l 314 624 q 298 610 304 616 q 275 583 281 594 q 277 570 267 570 q 237 536 258 557 q 218 511 216 515 q 180 393 226 490 l 176 387 l 172 379 l 163 363 q 149 334 154 345 q 142 382 144 358 q 143 437 141 406 q 158 536 146 486 q 178 604 166 570 l 182 617 q 232 733 200 669 q 289 836 258 785 q 338 918 314 883 l 304 893 l 321 911 l 328 920 l 336 928 q 356 952 352 946 q 375 987 386 987 q 360 983 372 987 l 350 979 l 339 975 q 330 972 333 971 l 328 973 l 327 975 q 309 970 323 980 q 351 1010 327 988 q 342 1004 350 1012 q 334 997 339 1002 l 326 988 q 307 975 304 966 l 319 987 l 332 1000 q 358 1025 349 1017 q 344 1017 354 1025 q 323 999 336 1011 q 296 977 296 975 q 307 988 298 981 l 315 996 l 325 1002 q 347 1026 348 1021 q 336 1019 347 1027 q 328 1011 333 1015 q 320 1004 323 1008 q 338 1023 328 1012 l 347 1031 l 353 1038 q 373 1059 369 1053 q 371 1065 378 1067 q 342 1050 363 1063 q 375 1074 353 1059 l 393 1086 q 410 1098 403 1093 l 409 1098 q 403 1093 407 1096 l 395 1088 q 380 1079 385 1082 l 406 1097 l 397 1096 q 370 1078 382 1088 l 382 1086 l 393 1095 q 369 1086 382 1092 q 295 1041 309 1055 q 47 669 126 888 q 50 669 47 669 l 52 669 q 52 662 54 669 q 44 635 50 650 l 34 610 q 19 557 22 579 l 23 553 q 2 460 8 501 q 2 366 -2 408 q 20 271 7 314 q 25 268 22 275 l 29 258 l 33 246 q 44 220 39 232 q 81 165 60 189 l 89 158 l 97 151 q 102 149 100 149 l 104 149 l 105 149 q 157 119 130 130 q 241 109 197 106 q 279 115 257 111 q 316 126 299 119 q 435 205 379 151 q 517 319 488 257 q 550 461 551 391 q 515 579 544 530 z "},"7":{"ha":414,"x_min":-112,"x_max":547,"o":"m 521 1044 q 519 1067 517 1057 q 507 1068 512 1067 q 492 1073 498 1069 q 454 1100 475 1080 l 450 1103 l 434 1091 q 212 968 291 991 q 189 961 198 963 q 169 957 182 959 q 129 954 150 954 q 56 956 92 950 q 71 946 62 951 l 77 942 l 84 939 l 66 943 l 57 946 l 49 949 q 24 956 30 955 q -9 957 -12 966 q -2 945 -9 954 l 4 939 l 11 930 q 16 924 16 927 l 15 922 l 14 920 q 23 906 11 914 q -22 926 1 915 q -15 921 -23 924 q -6 917 -12 919 l 3 913 q 20 903 28 903 l 6 908 l -8 914 q -36 926 -26 921 q -25 917 -35 923 q -5 906 -17 912 q 21 891 23 893 q 9 897 18 892 l 1 901 l -8 906 q -34 916 -31 919 q -25 910 -35 915 q -8 901 -16 905 q -28 909 -17 905 l -38 913 l -46 917 q -69 925 -64 924 q -74 921 -77 926 q -53 902 -70 915 q -83 921 -64 908 l -98 932 q -112 942 -106 938 l -112 942 l -106 938 l -101 933 q -88 924 -94 927 l -100 931 l -111 939 l -107 932 q -85 915 -95 922 l -105 929 q -92 911 -100 920 q -32 864 -49 871 q 170 817 71 815 q 225 823 198 819 l 232 825 l 239 827 l 248 829 q 250 829 250 829 l 250 829 q 253 830 252 829 l 256 833 l 258 836 q 261 841 260 840 l 262 842 q 264 842 264 844 q 262 839 264 842 q 262 838 259 835 l 271 848 q 260 835 269 844 l 266 840 q 269 841 268 841 l 279 850 q 277 847 281 850 l 275 844 l 272 840 l 273 840 l 279 845 l 275 840 l 274 839 q 273 823 276 835 l 271 817 l 271 814 l 269 808 l 263 796 l 242 748 q 169 543 200 647 q 159 495 164 522 l 155 471 l 151 448 q 144 413 146 427 l 137 376 q 127 302 129 332 q 138 290 133 304 q 142 274 140 284 l 147 257 q 169 224 159 212 q 172 178 169 201 q 178 153 175 153 q 238 66 203 146 l 242 56 l 245 46 q 253 26 250 33 q 266 1 261 4 q 268 12 271 -3 q 267 22 267 20 q 271 23 267 26 q 235 156 245 76 q 230 304 225 229 q 254 450 235 381 q 309 595 269 505 q 324 635 313 610 q 354 701 337 666 l 359 710 l 363 720 q 374 739 369 730 q 412 807 387 764 q 467 893 435 847 l 475 905 l 484 917 q 503 941 494 930 l 507 947 l 512 954 q 523 966 518 961 l 547 995 q 521 1044 527 1024 z "},"8":{"ha":555,"x_min":-48,"x_max":567,"o":"m 412 836 q 362 740 398 791 q 399 772 380 755 q 381 749 391 762 q 363 729 374 741 q 339 700 342 705 q 313 660 303 660 q 331 666 317 660 l 342 671 l 355 677 q 365 681 362 682 q 367 680 366 681 l 368 677 q 389 686 372 673 q 343 642 367 663 q 313 655 325 650 l 304 659 l 295 663 q 328 705 315 686 q 366 754 347 726 q 388 793 386 783 q 385 797 389 802 q 380 791 383 795 l 375 785 q 364 773 368 776 q 361 776 359 769 q 271 673 330 721 q 250 685 257 680 q 218 721 230 699 q 208 760 207 742 l 208 764 l 208 764 l 209 766 q 209 766 215 766 q 211 770 210 768 q 222 789 215 779 q 256 828 236 809 q 319 878 286 859 l 331 885 q 384 905 361 902 q 393 906 389 906 q 399 905 397 906 l 401 905 q 400 905 401 905 l 399 905 l 401 905 q 406 902 403 904 q 409 899 408 901 q 420 880 418 891 q 412 836 422 863 m 354 638 q 370 652 363 646 q 403 679 403 681 q 383 660 399 673 l 369 648 q 355 637 360 642 l 354 638 m 418 381 l 418 374 q 416 363 417 368 q 392 315 411 340 q 290 233 357 269 q 156 195 218 197 q 106 201 125 192 q 96 208 102 203 q 85 218 91 212 q 68 239 75 227 q 63 324 46 275 q 111 406 75 361 q 113 427 104 407 q 137 467 121 444 l 144 477 l 151 487 q 161 504 158 498 q 158 517 169 519 q 203 551 173 530 l 204 551 l 203 551 l 206 553 q 210 553 208 553 l 220 548 l 232 543 q 256 532 247 536 q 307 509 286 519 l 321 503 q 326 503 323 503 l 327 504 l 328 504 q 361 483 347 494 q 417 414 410 454 q 419 388 419 399 l 418 381 m 360 635 q 372 646 368 642 l 366 640 l 361 635 l 360 635 m 345 642 q 368 663 354 649 q 391 680 394 688 q 370 661 382 673 l 349 640 l 345 642 m 492 711 q 533 776 520 750 q 559 861 553 817 q 535 969 567 921 q 498 1011 521 992 l 488 1019 l 483 1023 l 476 1027 q 465 1033 475 1028 q 450 1040 455 1038 q 344 1044 401 1057 q 266 1015 307 1036 q 268 1013 266 1014 l 269 1013 l 271 1012 q 264 1005 273 1010 l 248 994 l 232 985 q 202 966 212 972 q 148 920 170 944 l 149 913 q 106 867 124 890 l 96 852 q 86 837 90 844 q 68 793 75 817 q 71 712 62 755 q 99 644 79 675 q 149 586 119 612 q 113 557 128 571 q 22 458 58 508 q -41 315 -31 385 q -32 220 -48 266 q 16 142 -18 178 q 33 127 22 136 q 56 110 43 118 q 106 91 79 97 q 189 86 143 82 q 330 122 258 92 l 336 125 l 342 129 q 359 138 351 133 q 400 162 380 149 q 450 201 431 183 q 503 261 481 228 q 541 353 534 305 q 538 458 551 410 q 480 558 524 516 q 403 614 450 589 q 492 711 456 662 z "},"9":{"ha":545,"x_min":0,"x_max":584,"o":"m 375 772 q 262 596 326 659 q 229 568 244 578 q 199 553 214 557 q 165 559 179 549 q 145 595 151 570 q 142 638 141 615 l 143 651 q 175 788 153 730 q 235 889 198 850 q 309 941 265 924 q 269 937 291 941 q 292 945 281 942 q 311 949 306 949 q 328 951 318 951 l 334 951 l 339 951 q 351 949 345 950 q 359 948 355 949 q 372 946 370 947 q 378 950 379 945 q 348 977 375 960 q 341 988 339 981 l 341 990 q 339 993 340 992 q 321 999 334 996 q 390 981 357 997 q 380 987 393 982 q 353 996 366 994 q 338 998 347 998 l 333 999 l 328 1000 q 325 1004 319 1001 q 410 977 378 999 q 393 990 408 982 q 361 1004 378 999 q 344 1008 353 1006 l 336 1009 l 330 1010 q 317 1013 315 1012 q 338 1012 323 1015 q 367 1004 353 1009 q 380 998 373 1002 l 387 996 l 392 993 q 406 989 404 987 q 399 994 408 989 q 382 1003 391 999 q 420 985 402 996 q 446 966 434 977 l 439 943 l 431 920 q 414 871 421 892 q 375 772 394 815 m 456 969 q 448 981 453 975 q 432 998 441 989 q 463 967 448 985 l 456 969 m 484 962 q 436 1019 465 995 q 388 1048 411 1040 q 297 1059 342 1063 l 294 1058 l 290 1058 q 283 1057 286 1057 l 273 1055 l 254 1049 q 216 1035 232 1042 q 95 935 145 1003 q 0 672 21 834 q 2 673 1 672 l 5 674 q 7 666 7 675 l 5 646 l 5 627 q 5 589 4 606 q 29 507 9 543 l 36 506 q 87 444 55 468 q 170 409 123 414 q 308 450 241 404 q 391 531 349 479 q 391 537 387 530 q 409 559 401 551 q 428 586 419 574 q 414 488 422 526 q 341 307 391 389 q 343 287 349 307 q 326 245 338 268 q 315 224 322 237 l 310 216 q 305 208 307 211 q 309 195 298 193 q 248 157 280 170 q 234 151 241 153 l 227 148 l 222 146 q 209 140 210 142 q 196 127 206 134 q 181 121 189 123 q 158 118 170 118 q 93 143 123 119 q 40 227 56 174 q 37 321 28 271 q 47 362 39 340 q 54 378 50 370 l 56 384 q 58 389 58 387 q 56 392 60 396 q 41 370 50 387 q 35 357 39 365 l 33 351 l 31 347 q 27 350 26 340 q 37 186 6 265 q 61 144 47 163 q 103 105 79 120 q 155 84 127 89 q 210 84 182 79 q 354 155 291 95 q 437 268 401 199 q 519 503 485 359 q 562 739 542 599 q 564 752 563 746 q 565 770 564 761 q 570 814 567 791 q 584 936 576 877 l 484 962 z "},"\u0000":{"ha":0,"x_min":0,"x_max":0,"o":""},"\u001d":{"ha":0,"x_min":0,"x_max":0,"o":""}," ":{"ha":505,"x_min":0,"x_max":0,"o":""}," ":{"ha":505,"x_min":0,"x_max":0,"o":""},"!":{"ha":283,"x_min":61,"x_max":397,"o":"m 387 1252 q 391 1262 389 1258 q 393 1278 393 1273 q 387 1299 395 1300 q 378 1295 383 1299 l 372 1291 l 367 1288 q 361 1285 364 1285 l 359 1286 l 357 1286 q 346 1282 351 1289 l 355 1308 q 351 1303 353 1308 l 350 1299 l 349 1293 q 342 1284 345 1280 q 347 1300 345 1290 l 349 1308 l 351 1316 q 345 1310 348 1316 l 342 1305 l 340 1299 q 331 1284 334 1283 q 334 1291 332 1286 l 336 1296 l 339 1301 q 342 1316 346 1313 q 338 1310 340 1316 l 336 1305 l 335 1301 q 338 1336 341 1327 q 323 1327 336 1345 q 326 1335 324 1331 l 330 1344 q 337 1361 336 1355 l 337 1361 l 335 1357 l 332 1352 q 328 1343 330 1345 l 335 1360 l 331 1358 q 324 1345 326 1351 l 328 1357 q 318 1350 323 1354 l 311 1340 l 303 1331 q 294 1317 296 1322 q 231 1131 258 1222 l 233 1130 l 235 1130 q 237 1126 237 1130 q 234 1114 237 1120 l 229 1104 q 220 1082 221 1090 l 224 1079 l 206 1042 q 189 966 197 1003 q 193 964 193 966 q 188 945 192 957 l 184 935 l 181 924 l 180 918 q 182 916 180 917 l 183 914 q 177 897 180 906 q 151 663 166 812 l 151 635 q 149 610 151 621 q 140 570 147 595 l 135 549 q 130 531 132 538 q 140 522 136 531 q 143 512 141 518 l 146 502 q 163 479 153 475 q 161 467 161 472 q 158 454 159 459 q 159 438 157 439 q 190 376 186 427 q 189 363 190 370 l 186 351 q 185 334 183 336 q 189 333 186 331 l 191 335 l 193 338 q 200 342 198 347 q 214 426 205 376 l 222 470 l 231 513 q 271 692 252 619 q 311 877 272 723 q 368 1082 349 1027 l 369 1088 q 397 1208 393 1163 l 397 1232 l 397 1257 q 384 1240 390 1247 l 387 1252 m 195 222 l 189 227 l 180 225 q 178 231 182 230 q 151 236 174 236 l 146 236 l 142 237 q 133 237 136 238 l 134 241 q 132 241 132 241 l 132 239 q 128 238 132 237 q 129 240 130 239 l 128 241 l 128 243 q 125 242 125 243 l 123 241 q 118 239 121 239 q 119 240 118 239 l 121 241 q 119 243 124 243 q 118 243 119 244 l 117 241 q 111 248 116 246 q 99 248 106 250 l 100 249 l 101 250 q 102 253 103 252 l 102 253 l 101 252 l 100 250 l 100 253 l 97 253 q 95 251 95 252 l 96 253 l 87 252 l 83 252 l 79 251 q 74 249 74 250 q 62 221 65 234 l 66 220 q 70 220 69 220 q 69 218 71 219 l 67 216 q 64 214 63 215 l 69 212 l 61 208 q 62 196 61 202 q 66 195 66 195 q 66 192 67 194 l 65 189 l 66 188 l 67 187 l 69 187 l 68 184 q 80 165 72 177 l 94 145 q 104 136 102 138 q 102 130 104 133 l 101 127 l 100 124 q 111 121 106 123 l 121 117 q 142 111 132 111 l 141 109 l 141 107 q 144 104 141 104 q 166 98 157 102 q 183 89 178 94 q 183 87 183 88 l 181 85 q 180 82 179 83 q 184 81 182 81 l 188 82 q 196 81 193 83 q 201 109 201 92 l 202 123 l 203 136 q 200 166 199 142 q 205 197 201 189 l 205 199 q 201 218 209 210 l 195 222 z "},"\"":{"ha":278,"x_min":-1,"x_max":366,"o":"m 7 1267 l 9 1267 q 12 1265 11 1267 q 11 1261 12 1263 l 8 1257 q 5 1249 3 1252 l 9 1247 l 0 1233 q 1 1203 -1 1217 q 5 1202 4 1203 q 4 1195 5 1200 l 3 1191 l 2 1187 l 3 1184 l 5 1183 l 7 1183 q 5 1176 6 1179 q 33 1088 13 1143 l 39 1078 q 44 1069 43 1073 q 44 1054 45 1063 l 43 1046 l 43 1039 q 54 1037 48 1040 l 60 1034 l 64 1031 q 86 1026 77 1023 l 86 1021 l 87 1017 q 91 1013 88 1013 q 133 998 121 1013 q 134 994 134 997 l 133 989 q 134 984 132 985 q 137 984 136 983 l 141 987 q 148 990 146 991 q 147 1017 149 1002 l 145 1045 q 143 1105 142 1083 q 138 1168 137 1115 q 146 1237 140 1220 l 146 1239 q 146 1279 152 1263 l 137 1297 l 127 1293 q 127 1306 130 1303 q 117 1316 125 1314 q 110 1316 115 1316 l 101 1316 q 97 1316 99 1315 l 92 1317 q 83 1318 86 1319 l 85 1326 q 83 1326 84 1327 l 83 1324 l 83 1322 q 78 1319 82 1316 q 80 1325 79 1321 l 80 1329 l 80 1331 q 77 1330 78 1331 l 75 1328 l 74 1326 q 68 1321 71 1320 q 70 1324 68 1322 l 73 1326 q 72 1333 77 1331 q 70 1331 71 1333 l 69 1329 l 68 1328 q 66 1343 69 1339 q 53 1342 61 1348 l 54 1345 l 56 1349 q 60 1356 59 1353 l 60 1356 l 58 1354 l 57 1352 q 55 1349 56 1350 l 58 1356 l 54 1356 q 50 1351 52 1354 l 52 1356 l 44 1354 l 39 1352 l 33 1349 q 27 1343 27 1345 q 4 1268 11 1306 l 7 1267 m 224 1244 l 226 1243 q 229 1241 228 1242 q 224 1234 229 1238 l 220 1231 q 219 1227 219 1229 l 224 1224 l 213 1213 q 210 1185 210 1199 q 214 1184 213 1185 q 212 1177 214 1181 l 210 1174 l 209 1171 l 210 1168 l 211 1166 l 213 1166 q 210 1160 212 1163 q 227 1073 214 1124 l 231 1063 q 235 1053 234 1057 q 233 1040 235 1048 l 232 1033 l 230 1026 q 241 1023 236 1026 l 246 1019 l 251 1016 q 272 1008 263 1006 l 272 1004 l 272 1000 q 275 995 272 995 q 315 977 304 991 q 316 974 316 976 l 315 970 q 315 965 313 966 q 318 965 316 964 l 322 967 q 330 968 328 970 q 332 992 331 979 l 332 1004 l 332 1017 q 337 1069 334 1049 q 340 1126 332 1079 q 357 1187 349 1172 l 358 1190 q 363 1227 366 1211 l 355 1246 l 345 1244 l 347 1248 l 347 1251 q 347 1257 349 1255 q 338 1267 345 1265 q 330 1269 335 1268 l 321 1270 q 317 1270 319 1269 l 313 1272 q 304 1274 307 1275 l 307 1282 q 305 1282 306 1283 l 304 1280 l 304 1278 q 299 1276 302 1274 q 301 1282 301 1278 l 302 1284 l 302 1287 q 298 1286 300 1288 l 297 1285 l 296 1283 q 290 1280 293 1278 q 291 1282 290 1281 l 294 1284 q 294 1290 298 1287 q 292 1289 294 1291 l 292 1287 l 290 1286 q 288 1300 292 1295 q 276 1301 284 1305 l 277 1303 l 279 1306 q 283 1312 282 1310 l 283 1312 l 280 1309 q 278 1306 279 1307 l 281 1312 l 277 1313 q 274 1309 275 1311 l 276 1313 l 267 1313 l 262 1312 l 257 1310 q 251 1307 252 1308 q 222 1244 232 1276 l 224 1244 z "},"#":{"ha":616,"x_min":0,"x_max":623,"o":"m 259 528 q 265 569 262 547 l 272 569 l 275 570 l 276 572 l 277 574 q 286 573 281 574 l 301 577 l 316 581 l 314 572 l 311 561 l 311 557 l 313 555 l 315 555 q 311 543 313 550 l 311 533 q 259 528 294 531 m 617 659 q 496 703 571 688 l 490 703 l 484 704 q 487 730 487 720 l 483 760 q 471 752 475 755 l 473 759 l 475 765 q 477 774 477 771 q 469 789 477 788 q 461 788 467 789 l 456 787 l 451 785 q 446 785 449 785 l 441 787 q 431 785 436 789 l 438 801 q 435 799 437 802 l 435 796 l 433 793 q 427 788 430 784 q 431 798 429 791 l 433 803 l 434 808 q 429 804 432 808 l 427 802 l 425 798 q 417 789 420 788 q 420 794 417 791 l 422 796 l 424 800 q 426 809 430 806 q 423 806 425 810 l 421 803 l 420 800 q 422 824 425 818 q 408 821 420 831 l 411 826 l 415 831 q 421 843 420 838 l 421 843 l 419 840 l 417 837 q 413 831 414 833 l 419 843 l 415 842 q 409 833 411 838 l 413 842 q 403 838 408 840 l 395 833 l 389 827 q 380 819 381 822 q 338 709 355 770 l 327 709 l 315 709 l 291 707 q 295 722 293 718 l 296 726 q 306 798 308 771 l 304 813 l 300 828 q 289 820 294 823 q 294 842 295 838 q 286 855 293 854 q 277 854 282 856 l 273 852 l 267 851 q 262 850 265 850 l 258 852 q 248 850 252 854 l 254 866 q 251 864 252 867 l 250 861 l 250 857 q 243 852 247 848 q 247 862 245 856 l 248 867 l 250 873 q 245 869 247 873 l 243 866 l 241 862 q 233 854 236 852 q 235 858 233 855 l 237 861 l 239 863 q 241 873 245 871 q 238 870 240 874 l 237 867 l 235 864 q 237 889 239 882 q 222 884 235 897 q 230 897 224 888 l 235 904 l 239 911 l 239 911 l 236 908 l 233 904 q 228 896 229 899 q 237 911 233 906 l 233 910 q 224 899 227 905 l 230 910 q 218 904 224 907 l 210 897 l 207 893 l 203 890 q 195 881 196 884 q 155 759 171 827 l 157 759 l 159 758 q 161 756 161 758 q 160 749 161 752 l 156 742 q 151 728 151 733 l 155 726 l 143 703 l 142 696 q 76 677 100 692 q 51 658 66 671 q 64 652 58 656 q 43 645 46 649 q 36 630 32 637 q 42 624 37 628 l 45 621 l 50 618 q 53 614 52 616 l 54 610 q 60 602 56 604 l 46 599 q 49 597 46 597 l 52 598 l 54 600 q 61 597 62 602 q 52 595 58 597 l 49 593 l 45 591 q 49 589 45 589 l 52 589 l 56 590 q 65 588 64 591 q 61 587 64 587 l 58 588 l 55 588 q 49 584 47 589 q 52 583 49 583 l 54 584 l 57 585 q 42 572 44 578 q 52 563 40 566 l 48 562 l 43 562 q 35 560 38 562 l 35 559 l 37 560 l 40 560 q 45 561 43 561 l 37 558 l 39 556 q 45 556 43 555 l 41 555 l 47 549 l 54 547 l 59 544 q 67 541 65 541 q 102 546 82 544 l 138 550 l 140 522 q 125 522 130 522 l 121 522 q 62 513 83 522 l 50 507 l 39 499 q 49 490 45 494 q 31 488 33 491 q 21 475 20 483 q 25 469 22 473 l 27 465 l 30 460 q 32 456 31 458 l 32 451 q 36 442 32 445 l 22 442 q 25 441 22 441 l 27 441 l 30 441 q 35 437 37 441 q 27 437 33 438 l 23 436 l 19 436 q 23 433 20 434 l 26 432 l 29 431 q 37 427 37 431 q 33 428 36 427 l 31 429 l 28 430 q 21 428 22 433 q 24 427 21 427 l 26 426 l 28 426 q 12 418 16 424 q 18 407 7 413 l 14 408 l 9 408 q 0 409 3 410 l 3 409 l 5 408 q 10 407 9 407 l 1 408 l 2 404 q 9 402 7 402 l 3 402 l 9 395 l 14 391 l 20 387 q 28 382 25 382 q 126 378 79 376 l 125 380 l 125 382 q 127 385 125 384 q 134 385 130 386 l 137 384 l 140 382 l 140 381 q 151 375 146 381 l 156 370 l 160 363 q 180 349 170 347 l 178 341 l 178 333 q 181 323 178 324 q 218 286 209 317 q 218 278 218 283 l 216 271 q 216 264 214 264 q 224 266 218 262 l 227 268 q 231 268 229 269 l 243 370 l 245 394 l 280 404 l 316 415 q 317 393 317 408 l 321 376 q 323 359 323 366 q 319 334 323 350 l 316 321 q 313 310 314 314 q 324 304 319 310 l 328 298 l 332 291 q 352 276 342 274 l 351 269 l 349 260 q 352 250 349 251 q 372 237 365 246 q 386 208 383 227 q 385 199 386 203 l 382 190 q 380 177 378 179 q 383 176 381 175 q 388 180 385 177 l 390 182 l 393 184 q 396 182 395 184 q 415 297 406 227 l 422 353 q 431 410 427 387 q 434 454 430 420 q 443 473 444 465 l 449 472 l 456 471 q 464 475 463 471 q 474 496 467 488 q 499 511 483 507 q 507 510 503 511 l 514 507 q 524 505 523 504 q 522 513 527 507 l 521 515 l 519 517 q 520 522 519 520 q 445 533 486 530 q 460 606 452 570 l 470 604 l 479 601 q 486 612 480 607 l 491 616 l 497 619 q 512 638 513 629 l 519 635 l 527 634 q 536 635 535 632 q 552 654 543 648 q 587 659 565 662 q 595 655 590 658 l 604 648 q 618 640 616 640 q 618 649 623 640 l 616 652 l 615 655 q 617 659 614 659 z "},"$":{"ha":612,"x_min":-69,"x_max":669,"o":"m 352 406 q 427 324 410 363 q 435 301 433 311 q 437 275 437 288 q 425 221 437 248 q 358 142 406 175 q 252 104 316 115 q 291 288 275 215 q 317 431 294 319 q 352 406 338 416 m 170 768 q 210 848 170 804 q 285 910 241 882 l 283 904 l 281 897 l 286 894 l 262 831 q 236 708 248 769 q 239 705 239 709 q 234 682 237 696 l 231 670 l 227 656 q 208 676 216 668 q 170 768 170 722 m 661 1007 q 605 1097 650 1064 q 556 1120 584 1112 q 511 1128 536 1126 q 491 1128 500 1128 l 494 1167 l 498 1205 q 481 1177 488 1187 l 486 1195 q 491 1212 489 1205 q 495 1236 496 1230 q 492 1268 501 1271 q 482 1260 489 1267 l 476 1253 l 469 1246 q 464 1242 467 1242 l 461 1242 l 459 1244 q 447 1234 453 1246 q 460 1276 454 1257 q 456 1270 458 1277 l 454 1261 l 451 1253 q 443 1237 445 1230 q 450 1263 446 1246 l 454 1276 l 458 1289 q 450 1278 454 1288 q 444 1259 448 1272 q 432 1235 435 1233 q 435 1246 432 1238 l 439 1254 l 443 1262 q 448 1286 452 1283 q 444 1278 447 1287 l 441 1270 q 438 1262 439 1265 q 450 1320 450 1309 q 431 1302 450 1334 q 463 1364 441 1329 l 463 1364 q 442 1329 449 1345 q 460 1363 450 1349 q 453 1358 457 1361 q 438 1333 444 1345 q 450 1356 444 1345 q 433 1339 441 1348 q 397 1280 402 1293 q 385 1240 391 1262 l 373 1202 q 350 1130 358 1153 l 337 1097 l 315 1088 q 316 1086 315 1086 l 318 1084 q 313 1079 320 1082 q 284 1065 300 1073 l 270 1060 l 256 1055 q 202 1025 223 1040 l 202 1019 q 114 955 150 988 q 50 861 71 910 q 32 800 37 831 q 33 736 28 770 q 37 732 35 741 q 82 616 47 667 l 94 601 q 98 598 96 599 l 100 598 l 101 598 q 134 560 116 579 q 203 507 163 534 q 164 220 189 411 l 161 178 q 157 136 159 155 q 147 89 154 118 l 137 89 q 115 92 128 90 l 106 94 q 98 94 101 94 q 87 87 82 96 q 36 132 57 103 q 27 144 31 137 l 24 149 l 20 155 q 13 165 14 165 q -2 175 5 168 q -18 203 -11 184 q -23 258 -26 229 q 5 338 -19 299 q 68 397 26 372 q 85 408 76 403 q 100 416 92 412 q 120 425 118 424 q 120 429 126 430 q 112 428 118 429 l 106 427 l 100 425 l 94 423 l 89 421 q 80 418 83 419 q 80 422 73 416 q -26 317 9 384 q -43 154 -69 237 q 64 31 -18 73 q 132 6 96 15 l 134 6 q 139 -14 137 1 l 140 -28 l 142 -43 q 157 -69 146 -77 q 152 -90 154 -81 q 149 -111 150 -102 q 147 -136 144 -134 q 170 -236 174 -153 q 166 -258 169 -245 l 164 -269 l 162 -279 q 159 -296 159 -291 q 159 -299 159 -298 q 163 -300 161 -304 q 165 -298 164 -299 l 167 -298 l 169 -294 l 172 -291 q 175 -292 174 -288 q 188 -222 180 -264 l 195 -186 l 202 -150 l 231 -5 l 231 0 q 331 21 281 4 q 447 83 397 44 q 535 199 509 133 q 551 277 550 237 q 550 315 552 296 q 541 356 548 335 q 526 389 535 372 q 499 430 514 411 q 413 513 469 469 q 346 563 391 531 l 352 590 q 435 924 402 817 l 438 935 l 451 979 q 487 985 472 984 q 509 986 499 987 q 519 985 518 985 q 530 977 526 983 q 535 947 536 971 q 530 904 535 928 q 549 938 541 920 q 535 895 545 920 l 531 886 l 528 878 q 523 866 524 869 q 511 826 504 825 q 526 834 516 827 l 535 841 l 545 849 q 553 854 550 854 l 555 853 l 557 852 q 574 863 562 848 q 541 810 559 836 q 548 817 541 808 q 562 839 555 827 q 576 859 577 866 l 567 842 l 557 825 q 536 792 546 805 q 566 829 545 795 q 589 861 588 862 q 566 825 585 850 q 547 793 546 798 q 556 804 547 792 q 570 825 565 815 q 555 800 564 812 q 542 779 549 791 q 524 753 526 756 q 526 747 519 743 q 555 770 536 751 q 523 737 544 755 q 486 706 507 722 l 486 706 q 507 722 496 713 q 527 739 521 732 q 490 707 509 721 q 498 709 494 708 q 528 733 515 721 q 503 711 517 722 q 530 725 516 717 q 604 794 584 764 q 659 920 646 858 q 661 1007 669 968 z "},"%":{"ha":846,"x_min":-2,"x_max":847,"o":"m 222 868 q 220 860 220 863 l 218 857 l 216 852 q 195 814 208 833 l 187 803 q 183 798 184 800 l 181 795 l 176 791 l 174 790 l 171 789 q 165 787 168 787 q 157 810 153 793 l 157 814 l 157 815 l 157 816 q 158 820 157 817 q 171 844 163 829 q 201 892 184 868 q 163 860 183 878 q 182 882 172 870 q 200 902 189 890 q 224 930 221 926 l 225 931 l 225 904 l 225 895 l 225 885 q 222 868 224 875 m 306 1064 q 294 1065 299 1065 q 306 1064 299 1065 m 309 1063 q 320 1060 315 1062 q 309 1063 315 1062 m 323 1059 q 336 1052 330 1056 q 323 1059 330 1056 m 582 785 q 632 928 594 825 q 675 1040 654 988 l 700 1102 q 727 1161 718 1142 l 723 1163 l 724 1164 l 611 1224 l 611 1223 l 606 1225 q 460 1027 547 1111 q 376 966 414 983 q 340 955 355 956 q 312 960 330 955 l 298 965 l 282 970 l 225 989 l 225 961 l 209 954 q 199 951 202 949 q 197 952 198 951 l 195 954 q 175 946 192 959 q 228 993 203 974 q 218 987 228 995 q 196 968 208 979 q 174 952 170 944 l 189 966 l 205 981 q 240 1009 224 1000 q 195 980 229 1009 q 161 954 161 951 q 197 984 168 962 q 228 1011 228 1007 q 214 1002 228 1013 q 193 985 201 993 q 275 1046 241 1031 q 278 1052 290 1051 q 258 1048 270 1052 q 229 1038 244 1045 q 255 1050 241 1045 l 263 1053 l 273 1056 q 298 1059 284 1059 q 332 1046 317 1057 q 354 1018 347 1036 q 359 995 358 1006 q 360 986 360 991 l 360 978 l 360 978 l 361 987 q 360 998 361 993 q 351 1027 359 1012 q 317 1056 340 1049 q 300 1059 309 1059 q 319 1056 309 1059 q 350 1031 338 1049 q 360 1004 358 1017 q 361 993 361 999 l 362 983 q 365 998 364 989 q 363 1006 364 1002 q 361 1017 363 1011 q 349 1040 357 1029 q 337 1050 344 1046 l 340 1049 l 342 1046 q 358 1025 353 1038 q 365 1006 362 1017 q 362 1021 364 1015 q 353 1041 359 1031 q 309 1071 338 1065 q 271 1072 288 1074 q 258 1068 266 1070 l 248 1065 q 213 1051 231 1059 q 170 1025 186 1038 q 71 922 117 980 q 50 893 60 907 l 43 883 l 36 870 q 22 844 27 855 q 3 789 8 815 q 1 738 -2 768 q 36 646 7 681 q 119 604 68 606 q 213 631 164 602 q 300 711 260 660 q 297 712 299 712 l 295 711 l 294 711 q 294 714 292 711 q 298 722 294 716 l 309 737 l 319 753 q 338 785 331 771 q 347 802 344 794 l 351 811 q 352 812 352 812 l 352 812 l 352 812 q 353 814 353 812 l 349 819 l 349 819 l 350 820 l 356 816 l 357 815 q 364 816 359 815 q 372 817 368 816 q 404 823 387 819 q 486 865 445 838 l 427 683 l 410 617 q 391 553 400 581 q 355 454 379 517 l 345 429 l 336 404 q 318 357 325 375 q 323 336 324 358 q 320 314 322 328 l 318 302 l 316 290 q 320 236 307 224 l 315 221 l 309 204 q 297 172 302 185 q 288 134 286 136 q 296 90 297 121 q 275 -24 294 49 q 262 -58 270 -38 l 256 -76 l 249 -93 q 232 -142 233 -134 q 244 -130 231 -153 l 250 -121 q 254 -114 252 -116 q 256 -117 258 -109 q 338 109 293 -18 l 418 334 q 582 785 521 622 m 825 359 q 801 371 810 381 q 794 389 800 380 q 785 395 788 398 q 774 389 781 392 l 764 382 q 744 370 749 375 q 741 370 743 369 l 740 370 l 737 370 q 724 367 726 370 q 725 363 723 365 l 727 362 l 730 361 q 736 355 738 357 l 741 355 l 742 355 l 742 355 l 743 355 l 743 353 l 743 353 l 743 353 l 743 353 l 743 348 l 744 341 l 744 334 q 707 197 743 270 q 699 177 705 189 q 682 146 692 161 q 658 114 671 127 q 656 112 656 113 l 656 111 l 655 111 l 654 109 q 650 107 652 108 q 641 109 646 106 q 637 117 637 112 q 637 117 637 117 l 636 120 q 635 128 636 125 q 636 144 635 136 q 640 172 637 159 l 641 176 q 654 224 644 195 l 657 237 l 661 248 q 667 269 665 262 q 675 306 671 293 l 659 299 l 665 307 l 670 313 q 676 323 675 319 q 678 341 685 337 q 658 344 675 344 q 652 345 654 343 l 650 346 l 649 348 q 637 349 645 353 q 657 367 648 359 q 652 365 656 368 l 649 361 l 645 357 q 634 353 634 347 l 640 358 l 646 364 q 660 376 654 372 q 651 374 657 377 q 640 366 646 372 q 625 357 627 355 q 631 363 626 359 l 635 366 l 640 369 q 652 380 653 376 q 646 378 652 382 q 637 371 640 374 l 646 380 q 655 389 650 384 q 667 400 665 398 q 666 406 672 405 q 646 402 660 407 q 669 412 654 408 q 696 418 682 416 l 696 418 q 673 415 684 418 q 694 420 684 418 l 688 422 q 667 418 676 421 q 685 423 675 421 q 667 426 677 426 q 610 406 626 420 q 536 311 568 372 q 499 205 510 260 l 501 205 l 503 206 q 506 202 506 205 q 504 188 506 196 l 500 175 q 495 147 494 159 l 500 145 q 497 120 498 132 q 496 90 496 105 q 570 -20 511 12 q 574 -18 570 -16 q 604 -30 589 -25 q 640 -37 622 -36 l 646 -36 l 651 -35 q 654 -33 653 -35 l 655 -31 q 686 -26 673 -30 q 726 0 705 -17 q 743 16 734 8 q 753 30 750 24 q 787 85 772 54 q 827 202 812 137 l 830 229 q 833 254 831 245 q 837 273 834 261 l 841 294 q 847 335 846 319 q 836 342 841 334 l 830 351 l 825 359 z "},"&":{"ha":705,"x_min":3,"x_max":701,"o":"m 463 168 q 350 118 418 134 q 243 123 288 104 q 243 121 243 123 l 243 119 q 236 119 243 117 q 197 150 215 127 q 170 196 189 162 l 164 196 q 150 297 147 241 q 163 393 149 347 q 182 436 171 414 q 195 456 190 449 l 202 466 q 210 475 207 472 q 210 481 205 475 q 250 523 222 496 q 271 500 256 520 q 286 481 277 494 l 301 460 q 349 418 351 394 q 392 346 368 383 q 422 309 417 308 q 467 285 437 307 q 491 266 475 279 l 498 260 l 505 254 q 522 241 514 248 q 463 168 500 198 m 278 831 q 299 953 281 903 q 321 992 309 979 q 340 1002 330 1001 l 342 1003 l 345 1003 q 353 1003 348 1004 q 384 993 365 1001 q 417 972 406 983 q 427 953 427 963 q 412 903 429 935 q 368 836 397 873 q 282 742 336 795 q 278 831 277 787 m 675 155 q 659 166 663 162 q 663 169 654 171 q 637 181 651 174 q 661 302 659 238 q 637 232 652 264 q 654 313 650 270 q 652 367 656 347 q 642 423 648 407 q 635 429 637 437 q 631 406 633 425 l 628 389 q 625 372 627 379 q 621 359 623 361 q 618 359 620 359 l 616 359 q 606 335 610 360 q 603 420 608 374 q 603 405 602 420 l 604 397 l 604 389 q 606 372 606 379 q 606 342 607 353 q 602 338 604 330 q 601 389 604 360 l 597 415 l 593 440 q 593 417 592 437 l 594 408 l 595 399 q 596 378 596 387 q 595 343 597 359 q 591 330 594 328 q 592 339 591 333 l 592 345 l 593 352 q 594 384 594 371 q 587 429 594 425 q 588 412 586 429 l 589 404 l 589 395 q 590 380 590 386 q 579 446 587 414 q 566 484 573 470 q 560 485 561 494 q 564 441 560 476 q 553 495 558 472 q 537 549 545 528 l 537 549 q 545 518 541 537 q 553 489 550 502 q 536 545 547 511 l 536 534 l 547 492 l 543 510 l 536 528 l 538 495 q 545 433 543 468 l 545 419 l 545 407 q 545 387 545 393 q 531 263 550 317 q 472 335 500 295 q 331 581 412 420 l 323 597 l 363 633 q 486 780 443 718 q 535 873 519 830 q 549 931 547 903 q 541 1000 553 968 q 503 1057 529 1032 q 454 1091 483 1076 q 402 1112 431 1103 q 340 1120 371 1122 q 276 1102 305 1119 q 229 1059 249 1086 q 185 955 199 1019 q 179 781 172 884 q 195 658 183 713 l 157 622 q 119 583 134 599 q 98 560 106 569 l 89 548 q 80 536 84 542 q 7 315 12 441 q 50 121 3 208 q 152 8 87 48 q 178 -6 165 0 q 307 -33 237 -35 q 430 -7 367 -31 q 611 130 553 35 q 631 168 622 146 l 637 164 q 669 149 653 155 q 690 142 683 144 q 675 155 701 140 z "},"'":{"ha":204,"x_min":115,"x_max":269,"o":"m 122 1190 l 124 1190 q 127 1188 127 1190 q 127 1184 127 1186 l 123 1181 q 120 1173 119 1175 l 125 1171 l 116 1158 q 115 1131 115 1145 q 119 1130 119 1131 q 119 1124 120 1128 l 118 1120 l 117 1116 l 117 1114 l 119 1113 l 121 1112 q 119 1106 121 1109 q 130 1065 123 1090 l 135 1044 l 141 1023 q 150 1004 149 1010 q 148 991 151 1000 l 146 984 l 144 978 q 155 974 150 977 l 160 970 l 165 966 q 185 957 176 956 l 184 953 l 184 948 q 187 943 184 943 q 208 934 201 939 q 223 914 219 926 q 219 901 223 910 q 215 890 215 891 q 224 891 216 886 l 227 892 l 229 894 q 232 892 231 895 q 239 916 236 904 q 242 933 241 924 q 246 966 245 947 l 249 998 l 252 1029 q 252 1094 248 1040 q 262 1164 256 1147 l 262 1166 q 263 1206 269 1191 l 258 1215 l 252 1223 l 243 1219 q 243 1232 245 1229 q 233 1240 241 1239 q 226 1240 230 1240 l 217 1239 q 212 1239 215 1238 l 208 1240 q 198 1240 201 1242 l 201 1249 q 199 1247 199 1249 l 199 1246 l 198 1244 q 193 1241 197 1239 q 195 1246 195 1243 l 195 1250 l 195 1253 q 192 1251 193 1253 l 191 1249 l 189 1247 q 184 1242 186 1242 q 185 1245 183 1243 l 188 1248 q 187 1254 192 1252 q 185 1252 186 1254 l 184 1251 l 184 1249 q 180 1263 184 1259 q 168 1262 176 1268 l 170 1265 l 172 1268 q 175 1276 175 1273 l 175 1276 l 174 1274 l 172 1272 q 170 1268 170 1269 l 173 1276 l 170 1276 q 165 1270 167 1272 l 168 1276 l 159 1273 l 153 1270 l 148 1267 q 142 1261 142 1263 q 120 1190 127 1226 l 122 1190 z "},"(":{"ha":300,"x_min":-7,"x_max":355,"o":"m 123 970 l 125 970 q 127 965 128 970 q 120 949 124 957 l 111 935 q 96 904 99 916 l 100 901 l 72 848 q 39 742 53 795 q 43 739 43 743 q 35 713 41 730 l 30 699 l 25 683 l 24 673 q 25 671 24 671 l 26 669 l 18 643 q 3 309 -7 477 l 9 272 q 14 236 12 250 q 15 208 14 224 l 16 179 q 18 122 17 140 q 31 114 24 124 q 37 103 34 110 l 44 90 q 69 68 61 58 q 75 32 72 47 q 83 12 79 13 q 140 -56 112 9 q 145 -73 142 -62 l 147 -82 l 149 -92 q 157 -117 155 -113 q 161 -117 160 -121 q 161 -113 161 -115 l 162 -107 q 167 -97 163 -92 q 117 381 97 155 q 123 475 115 409 q 153 631 134 556 q 203 791 172 707 q 249 901 228 859 l 252 909 l 261 928 l 270 947 l 288 987 q 320 1061 309 1033 l 340 1124 q 319 1104 327 1112 l 327 1118 q 334 1131 332 1126 q 343 1151 342 1145 q 347 1179 355 1179 q 335 1175 343 1179 l 328 1171 l 321 1167 q 315 1164 317 1164 l 312 1166 l 311 1167 q 297 1162 305 1171 l 317 1194 q 312 1190 316 1196 l 309 1184 l 304 1177 q 294 1166 294 1160 q 305 1186 298 1173 l 311 1196 l 317 1206 q 309 1199 314 1206 l 303 1192 l 298 1185 q 283 1168 285 1166 q 289 1177 284 1171 l 294 1182 l 298 1187 q 307 1206 311 1202 q 302 1200 307 1207 l 298 1194 q 294 1189 296 1192 q 313 1234 312 1222 q 294 1224 315 1246 q 300 1234 296 1228 l 309 1244 l 313 1250 l 316 1255 q 320 1262 320 1261 l 320 1262 q 314 1254 319 1261 l 309 1248 q 306 1243 307 1245 l 318 1262 l 316 1262 l 314 1261 q 302 1247 308 1255 l 312 1261 q 298 1253 306 1259 l 286 1242 l 275 1232 q 259 1215 262 1221 q 121 970 178 1095 l 123 970 z "},")":{"ha":267,"x_min":-42,"x_max":264,"o":"m 116 930 l 118 931 q 121 928 120 932 q 122 897 124 917 l 121 882 q 122 867 121 873 l 127 865 q 121 812 125 846 q 122 714 123 762 q 125 711 125 715 q 124 688 126 703 l 122 674 l 120 659 l 120 651 q 121 648 121 649 l 123 647 q 119 623 122 635 q 78 319 113 466 q 64 250 71 275 q 43 200 58 230 l 31 176 l 24 163 l 19 153 q 25 139 25 151 q 24 127 25 134 l 23 113 q 31 80 19 77 l 26 73 l 22 64 q 14 48 16 54 q 7 28 5 31 q 16 -1 16 18 q -1 -63 16 -25 q -12 -80 -5 -71 q -24 -96 -16 -86 q -41 -119 -39 -115 q -29 -117 -42 -126 l -24 -113 q -20 -111 -22 -111 q -18 -113 -17 -109 q 207 360 123 81 q 215 397 208 368 l 218 411 l 221 426 q 228 459 224 444 q 254 627 247 552 q 264 806 264 709 q 262 880 264 844 q 259 932 261 909 l 258 942 q 221 1115 250 1043 q 191 1177 211 1139 q 190 1147 191 1162 q 172 1198 179 1190 q 153 1219 157 1225 q 149 1207 151 1216 l 147 1199 l 145 1192 q 142 1185 144 1187 l 140 1184 l 138 1183 q 132 1171 132 1182 l 121 1206 q 122 1199 120 1206 l 124 1193 l 127 1185 q 127 1171 133 1167 q 121 1192 126 1179 l 117 1202 l 113 1213 q 113 1202 111 1210 l 115 1194 l 117 1185 q 119 1164 123 1164 q 117 1174 118 1166 l 116 1181 l 115 1187 q 106 1205 111 1205 q 107 1198 105 1205 l 109 1191 l 111 1187 l 111 1185 q 90 1225 98 1217 q 84 1205 80 1234 l 81 1216 l 77 1227 q 69 1251 73 1242 l 69 1251 l 77 1225 l 68 1249 l 67 1243 q 72 1225 69 1233 l 66 1240 q 64 1224 64 1233 l 65 1210 l 66 1196 q 68 1175 66 1181 q 114 930 101 1059 l 116 930 z "},"*":{"ha":425,"x_min":-2,"x_max":422,"o":"m 414 1195 q 371 1194 396 1195 l 349 1193 l 326 1192 l 327 1193 l 328 1196 q 347 1253 346 1227 q 344 1280 347 1265 q 334 1272 340 1276 q 338 1291 340 1287 q 330 1303 336 1303 q 323 1301 328 1303 l 319 1299 l 315 1297 q 312 1297 314 1297 l 308 1297 q 300 1296 303 1299 q 302 1307 302 1302 q 301 1305 301 1308 l 300 1303 l 300 1301 q 296 1298 299 1295 q 298 1304 298 1300 l 298 1308 l 298 1311 q 295 1308 296 1310 l 294 1306 l 293 1303 q 288 1299 291 1298 q 289 1301 288 1299 l 290 1303 l 292 1305 q 291 1310 295 1310 q 290 1309 290 1311 l 289 1307 l 288 1305 q 284 1318 289 1315 q 274 1315 280 1321 l 275 1318 l 276 1320 q 277 1325 277 1323 l 277 1325 l 276 1322 q 275 1320 275 1320 l 275 1324 l 273 1324 q 271 1320 271 1322 l 271 1324 l 265 1321 l 262 1319 l 258 1317 q 253 1314 254 1315 q 224 1255 246 1297 l 226 1254 l 227 1253 q 229 1251 229 1252 q 224 1244 229 1247 l 220 1241 q 218 1238 218 1240 q 189 1292 195 1276 l 186 1295 q 153 1343 170 1329 l 142 1351 l 132 1358 q 130 1345 131 1351 q 119 1361 123 1360 q 106 1364 111 1369 q 103 1358 105 1362 l 101 1354 l 100 1350 q 98 1346 99 1348 l 94 1344 q 90 1337 90 1341 l 83 1349 q 83 1346 82 1348 l 84 1344 l 86 1341 q 85 1335 90 1336 q 82 1342 85 1339 l 79 1345 l 77 1349 q 77 1344 76 1348 l 77 1341 l 79 1339 q 79 1330 82 1331 q 78 1333 79 1331 l 77 1336 l 77 1339 q 72 1344 76 1345 q 73 1341 71 1343 l 73 1339 l 75 1337 q 61 1348 66 1347 q 56 1337 56 1349 l 54 1341 l 53 1345 q 49 1354 51 1351 l 49 1354 l 50 1352 l 51 1349 q 52 1344 52 1345 l 48 1352 l 47 1350 q 49 1343 47 1345 l 46 1348 q 43 1340 44 1344 l 43 1334 l 42 1328 q 43 1319 41 1321 q 84 1234 64 1270 l 85 1234 l 87 1236 q 90 1236 88 1237 q 93 1231 92 1234 l 94 1225 q 98 1214 95 1217 l 102 1215 l 106 1195 l 112 1186 l 118 1177 q 90 1176 98 1177 l 87 1176 q 32 1162 52 1174 l 22 1154 l 13 1145 q 23 1141 18 1143 q 7 1135 9 1138 q 1 1122 -2 1128 q 5 1117 2 1120 l 9 1114 l 12 1112 q 14 1108 14 1110 l 15 1104 q 20 1097 16 1099 l 9 1095 q 12 1094 9 1094 l 14 1095 l 16 1095 q 20 1093 21 1097 q 14 1092 18 1094 l 11 1090 l 8 1089 q 12 1087 9 1088 l 14 1087 l 17 1088 q 24 1086 23 1088 q 21 1085 23 1085 l 18 1086 l 16 1086 q 11 1083 11 1087 q 14 1082 12 1082 l 16 1082 l 18 1083 q 7 1073 8 1078 q 14 1065 5 1067 l 11 1065 l 7 1064 q 1 1063 3 1064 l 1 1063 l 3 1063 l 5 1063 q 9 1063 7 1063 l 2 1061 l 4 1059 q 9 1059 7 1059 l 5 1058 l 11 1053 l 15 1051 l 20 1048 q 26 1046 24 1046 q 61 1050 40 1048 l 79 1052 l 98 1053 l 98 1055 l 98 1057 q 98 1059 97 1059 q 108 1059 102 1061 l 113 1057 q 117 1057 115 1057 l 117 1062 l 134 1057 l 147 1059 q 144 1048 146 1053 q 134 1034 141 1042 l 128 1027 l 123 1021 q 130 1013 127 1018 l 131 1007 l 132 1001 q 142 984 134 986 l 138 979 l 136 975 q 134 968 132 970 q 149 928 153 951 q 146 924 149 926 l 143 920 q 139 913 138 915 q 142 911 140 912 l 143 911 l 145 912 q 152 911 151 913 q 193 971 166 931 l 214 1004 l 236 1037 q 241 1047 237 1040 q 251 1038 247 1042 q 261 1021 256 1032 l 266 1013 l 271 1004 q 280 1007 274 1007 l 286 1006 l 292 1004 q 311 1007 307 1000 l 315 1002 l 319 997 q 325 993 323 991 q 344 998 335 998 q 368 990 356 998 q 372 985 370 989 l 375 979 q 380 972 378 972 q 383 978 383 971 q 384 983 383 981 q 387 984 385 985 q 347 1044 373 1006 l 326 1074 l 306 1104 l 309 1105 l 311 1106 q 328 1106 317 1107 l 337 1105 l 345 1105 q 348 1115 345 1110 l 352 1119 l 355 1124 q 363 1142 366 1135 l 368 1142 l 374 1143 q 380 1146 380 1143 q 402 1181 382 1171 q 408 1182 404 1183 l 413 1182 q 420 1183 420 1181 q 420 1185 422 1184 l 418 1188 q 414 1195 413 1192 z "},"+":{"ha":533,"x_min":-3,"x_max":536,"o":"m 528 650 q 435 654 492 653 l 387 655 q 338 657 359 656 q 345 703 341 689 l 345 707 q 346 780 351 753 l 341 794 l 336 809 q 326 798 331 803 q 328 812 328 808 q 326 821 328 819 q 315 833 323 835 q 308 831 313 833 l 304 828 l 299 825 q 294 824 297 824 l 290 825 q 280 821 283 825 l 283 837 q 281 834 281 837 l 280 831 l 280 828 q 275 823 279 819 q 277 832 277 826 l 277 837 l 277 842 q 273 838 275 841 l 272 834 l 271 831 q 265 822 269 821 q 267 826 265 823 l 268 829 l 269 832 q 269 841 273 840 q 267 838 267 841 l 266 835 l 265 831 q 260 852 265 848 q 248 846 256 858 l 249 851 l 251 857 q 253 867 253 864 l 253 867 l 252 865 l 251 861 q 250 856 250 857 l 251 867 l 248 865 q 245 857 245 861 l 245 865 q 237 859 241 862 l 233 853 l 227 848 q 222 839 222 842 q 201 725 208 777 l 203 725 l 205 725 q 208 723 208 725 q 208 715 209 720 l 204 709 q 201 695 200 701 l 205 694 l 195 671 l 195 661 l 195 652 l 115 650 l 111 650 q 41 635 67 649 l 28 626 l 16 616 q 29 610 24 614 q 8 603 12 608 q 1 589 -3 595 q 7 583 3 586 l 11 579 l 14 576 q 17 572 16 575 l 18 568 q 24 559 20 562 l 21 559 l 18 558 q 11 557 14 557 q 14 556 12 555 l 16 557 l 19 557 q 25 555 26 559 q 17 553 22 555 l 13 551 l 9 550 q 14 548 10 548 l 17 548 l 20 548 q 28 546 28 549 q 25 545 28 545 l 22 546 l 20 547 q 13 543 12 547 q 16 542 14 541 l 19 542 l 21 543 q 7 531 9 537 q 17 522 5 524 l 13 521 l 8 521 q 1 519 3 520 l 1 519 l 3 519 l 5 519 q 9 519 8 519 l 1 517 l 4 515 q 11 515 8 514 l 5 513 l 12 507 l 18 505 l 23 502 q 31 500 29 499 q 75 503 49 502 l 97 505 l 121 506 l 120 508 l 119 510 q 121 513 119 512 q 132 512 125 515 l 138 510 q 144 510 142 509 l 144 515 l 165 509 q 203 513 186 511 q 204 517 203 516 l 205 517 l 210 480 l 216 443 l 221 427 q 224 412 224 418 q 223 387 225 403 l 221 375 l 220 364 q 231 359 225 364 l 235 354 l 240 348 q 261 336 252 333 l 260 328 l 260 321 q 264 311 260 312 q 286 302 277 309 q 303 276 298 293 q 303 269 304 273 l 302 260 q 302 249 300 251 q 309 253 304 247 q 313 256 312 256 q 317 256 315 258 q 322 360 319 290 l 324 414 q 328 467 326 444 q 328 539 325 480 l 345 543 l 361 546 q 389 556 380 554 q 410 555 397 557 l 421 553 l 431 552 q 435 563 431 557 l 440 568 l 446 572 q 456 594 459 585 l 463 593 l 470 593 q 478 597 477 593 q 487 619 480 610 q 510 636 494 631 q 517 636 513 637 l 524 635 q 534 635 532 633 q 531 642 536 637 l 528 646 q 528 650 526 648 z "},",":{"ha":195,"x_min":52,"x_max":201,"o":"m 54 248 l 57 248 q 60 248 59 248 q 58 239 62 245 l 56 235 q 56 231 56 233 l 61 231 l 55 217 q 58 191 56 204 q 62 191 62 192 q 63 184 63 189 l 62 181 l 62 177 l 62 175 l 64 174 l 66 174 q 65 168 66 171 l 71 149 l 78 128 q 90 86 85 105 q 98 66 97 73 q 95 53 98 61 l 92 46 l 90 40 q 100 35 96 39 l 104 31 l 108 26 q 126 12 117 13 l 124 7 l 123 3 q 124 -5 121 -3 q 133 -12 130 -9 q 142 -20 138 -16 q 145 -50 149 -33 q 140 -58 144 -54 q 133 -64 137 -60 q 123 -73 123 -72 q 132 -76 123 -77 l 135 -75 l 138 -75 q 140 -78 140 -75 q 161 -53 152 -67 q 175 -28 169 -42 q 189 15 184 -9 q 197 55 193 33 l 199 74 l 201 93 q 199 122 199 99 q 199 144 199 129 l 199 170 l 198 195 l 198 208 l 197 219 q 197 254 197 245 l 197 257 q 184 306 197 288 q 168 323 179 313 q 161 314 164 317 q 159 323 160 320 q 155 329 157 328 q 141 334 149 337 q 135 329 139 332 l 132 326 l 128 323 q 124 321 127 322 l 119 320 q 111 315 113 319 l 110 324 q 109 322 108 324 l 109 321 l 109 319 q 106 315 111 314 q 105 320 107 317 l 104 322 l 103 325 q 100 321 101 324 l 100 317 q 97 311 100 312 q 97 314 96 312 l 98 316 l 98 317 q 95 321 100 323 q 94 319 94 321 l 94 318 l 94 317 q 75 317 86 333 l 75 319 l 75 321 q 75 324 76 323 l 75 324 l 74 322 l 74 320 l 73 323 l 71 321 q 69 319 69 319 l 69 321 l 62 317 q 55 311 58 314 q 52 307 52 308 l 52 279 q 52 248 52 261 l 54 248 z "},"-":{"ha":585,"x_min":18,"x_max":556,"o":"m 140 434 l 140 436 q 141 439 140 438 q 153 437 145 441 l 159 435 q 165 436 162 435 l 165 441 l 185 435 q 224 438 204 436 q 224 442 223 441 q 234 443 228 444 l 239 442 l 245 441 l 249 442 l 250 444 l 250 446 q 260 445 254 446 l 289 452 l 319 458 q 382 472 353 466 l 395 477 q 409 481 404 480 q 431 480 417 482 l 441 479 l 452 477 q 456 489 452 484 l 460 494 l 466 498 q 477 519 479 510 l 484 519 l 490 519 q 498 523 498 519 q 507 545 500 536 q 530 562 515 556 q 537 562 533 563 l 545 561 q 554 561 553 559 q 555 564 556 562 l 551 568 q 548 576 546 573 q 454 581 513 579 l 406 581 q 357 583 378 582 q 254 578 345 579 l 135 576 l 132 576 q 62 561 88 575 l 49 552 l 37 542 q 50 536 44 539 q 28 529 32 533 q 22 514 18 521 q 27 509 23 512 l 31 505 l 35 502 q 37 498 37 500 l 39 494 q 45 486 40 488 l 41 485 l 38 484 q 31 483 35 484 q 34 481 32 481 l 37 482 l 39 483 q 45 481 46 486 q 37 479 42 481 l 33 477 l 30 475 q 34 473 31 474 l 37 473 l 41 474 q 49 471 49 475 q 45 471 48 471 l 43 471 l 40 472 q 33 468 33 473 q 37 467 34 467 l 39 468 l 41 468 q 28 457 30 463 q 37 447 26 450 l 33 447 l 28 446 q 21 445 23 446 l 21 444 l 23 445 l 26 445 q 30 446 28 445 l 22 443 l 24 440 q 31 441 28 440 l 26 439 l 33 433 l 38 431 l 43 428 q 52 425 50 425 q 95 429 69 427 l 117 430 l 141 431 l 140 434 z "},"­":{"ha":585,"x_min":18,"x_max":556,"o":"m 140 434 l 140 436 q 141 439 140 438 q 153 437 145 441 l 159 435 q 165 436 162 435 l 165 441 l 185 435 q 224 438 204 436 q 224 442 223 441 q 234 443 228 444 l 239 442 l 245 441 l 249 442 l 250 444 l 250 446 q 260 445 254 446 l 289 452 l 319 458 q 382 472 353 466 l 395 477 q 409 481 404 480 q 431 480 417 482 l 441 479 l 452 477 q 456 489 452 484 l 460 494 l 466 498 q 477 519 479 510 l 484 519 l 490 519 q 498 523 498 519 q 507 545 500 536 q 530 562 515 556 q 537 562 533 563 l 545 561 q 554 561 553 559 q 555 564 556 562 l 551 568 q 548 576 546 573 q 454 581 513 579 l 406 581 q 357 583 378 582 q 254 578 345 579 l 135 576 l 132 576 q 62 561 88 575 l 49 552 l 37 542 q 50 536 44 539 q 28 529 32 533 q 22 514 18 521 q 27 509 23 512 l 31 505 l 35 502 q 37 498 37 500 l 39 494 q 45 486 40 488 l 41 485 l 38 484 q 31 483 35 484 q 34 481 32 481 l 37 482 l 39 483 q 45 481 46 486 q 37 479 42 481 l 33 477 l 30 475 q 34 473 31 474 l 37 473 l 41 474 q 49 471 49 475 q 45 471 48 471 l 43 471 l 40 472 q 33 468 33 473 q 37 467 34 467 l 39 468 l 41 468 q 28 457 30 463 q 37 447 26 450 l 33 447 l 28 446 q 21 445 23 446 l 21 444 l 23 445 l 26 445 q 30 446 28 445 l 22 443 l 24 440 q 31 441 28 440 l 26 439 l 33 433 l 38 431 l 43 428 q 52 425 50 425 q 95 429 69 427 l 117 430 l 141 431 l 140 434 z "},".":{"ha":212,"x_min":41,"x_max":202,"o":"m 45 229 q 48 229 47 229 q 46 225 50 228 l 44 223 q 44 222 43 222 l 49 222 l 42 215 q 46 203 43 209 q 50 203 50 203 q 51 200 51 202 l 50 197 l 51 196 l 53 195 l 54 195 l 54 193 q 70 176 60 186 l 87 158 q 99 151 97 153 q 100 144 100 149 l 99 141 l 98 138 q 110 138 104 139 l 120 136 q 142 135 133 134 l 142 133 l 142 132 q 146 130 143 130 q 187 127 174 132 q 188 125 188 126 l 186 126 l 186 126 l 185 126 l 185 125 l 186 126 l 193 127 l 201 130 l 201 129 l 202 127 l 202 130 l 202 135 q 201 147 202 140 l 198 160 q 196 174 197 168 q 186 202 191 178 q 186 234 183 225 l 185 235 q 178 254 186 247 l 171 257 l 163 260 l 155 257 q 153 262 156 262 q 125 262 146 267 l 121 261 l 116 261 q 106 259 109 260 l 107 263 q 105 262 106 263 l 106 261 q 102 259 106 259 q 102 262 103 260 l 101 263 l 100 264 q 98 263 98 264 l 96 261 q 92 258 95 258 q 92 260 92 258 l 95 261 q 92 263 97 263 q 91 262 92 263 l 91 261 q 83 266 88 265 q 71 263 77 267 l 72 264 l 73 267 q 74 269 75 268 l 73 269 l 73 267 l 72 266 l 72 269 l 68 269 q 66 266 67 267 l 67 268 l 60 266 l 55 264 l 51 262 q 47 260 47 260 q 41 229 41 243 l 45 229 z "},"/":{"ha":312,"x_min":-54,"x_max":551,"o":"m 315 890 l 317 889 l 319 889 q 319 884 321 888 q 302 858 315 873 l 292 846 q 284 831 287 838 l 288 827 l 254 785 l 203 695 q 205 691 206 695 q 192 670 201 684 l 184 659 l 176 646 l 172 637 q 172 635 171 636 l 173 633 q 159 612 167 624 l 124 544 q 90 474 103 502 q 20 326 50 393 l 9 292 q -3 258 3 272 q -27 209 -10 242 l -41 184 q -52 160 -47 170 q -45 146 -47 159 q -45 134 -45 142 l -45 121 q -35 89 -47 85 q -47 56 -43 71 q -51 36 -54 38 q -34 -48 -28 19 q -37 -65 -35 -55 l -40 -73 l -42 -82 q -47 -106 -47 -102 q -43 -107 -46 -110 l -41 -104 l -38 -100 q -29 -94 -31 -87 q 44 123 -8 3 q 154 338 94 238 q 283 559 167 369 q 328 633 301 590 l 340 652 l 351 670 q 372 704 364 692 q 435 808 419 781 l 439 816 q 460 853 448 831 l 481 890 q 517 962 505 933 q 538 1025 526 986 q 517 1005 526 1013 q 541 1053 539 1042 q 542 1082 551 1083 q 531 1076 538 1081 l 524 1072 l 517 1068 q 511 1065 514 1065 l 509 1066 l 507 1067 q 494 1063 502 1071 q 511 1095 505 1081 q 507 1090 510 1095 l 504 1084 l 500 1077 q 490 1067 492 1060 q 500 1086 495 1074 l 505 1096 l 509 1105 q 503 1098 507 1105 l 498 1092 l 494 1084 q 480 1068 482 1065 q 485 1076 481 1070 l 489 1082 l 494 1087 q 500 1105 504 1101 q 496 1099 500 1106 l 492 1093 l 490 1090 l 489 1088 q 502 1130 503 1118 q 484 1120 500 1142 l 489 1130 l 494 1139 q 498 1152 499 1149 l 498 1151 q 498 1148 498 1150 q 496 1146 497 1147 l 494 1142 l 492 1137 l 495 1146 l 496 1147 l 496 1150 l 493 1149 q 492 1148 492 1148 l 492 1147 l 491 1147 q 488 1141 490 1144 l 489 1143 l 490 1146 q 491 1148 491 1149 q 481 1145 488 1149 l 473 1136 l 465 1127 q 452 1112 455 1117 q 419 1059 439 1089 l 385 1004 l 349 947 l 315 890 z "},":":{"ha":201,"x_min":41,"x_max":281,"o":"m 135 604 q 139 604 138 604 q 139 601 140 603 l 138 597 l 138 596 l 140 596 l 142 595 l 141 593 q 155 574 146 586 l 171 555 l 177 550 q 181 546 180 548 q 181 540 182 543 l 180 536 l 178 533 q 190 532 184 533 l 200 528 q 221 524 212 524 l 221 522 l 221 520 q 225 517 222 518 q 264 507 254 515 q 265 506 265 507 l 264 504 q 263 503 262 503 l 267 502 l 271 503 q 279 503 276 504 q 281 528 281 511 l 280 543 l 280 556 q 275 586 275 562 q 277 619 274 610 l 277 620 q 271 640 279 632 l 265 644 l 258 648 l 250 646 l 250 649 q 248 651 250 650 q 220 654 242 656 l 216 654 l 211 654 q 202 653 205 654 l 203 657 q 201 657 201 658 l 201 655 q 197 654 201 653 q 197 656 198 654 l 197 658 l 197 659 q 193 658 194 659 l 192 656 q 187 654 191 654 q 188 655 186 654 l 190 656 q 188 659 193 659 q 186 659 187 659 l 186 657 q 179 663 184 661 q 167 661 174 665 l 168 663 l 169 664 q 170 667 171 666 l 170 667 l 169 665 l 168 664 l 168 667 l 165 667 q 163 665 163 665 l 163 667 l 155 665 l 151 664 l 147 663 q 142 661 142 661 q 133 631 134 644 l 137 631 q 140 630 139 631 q 138 627 142 629 l 135 625 q 135 623 134 624 l 140 623 l 132 616 q 135 604 133 610 m 197 175 q 187 203 191 180 q 185 234 183 226 l 185 235 q 177 252 186 246 l 170 254 l 163 257 l 155 254 q 152 258 155 258 q 124 258 145 262 l 120 257 l 115 256 q 106 255 109 256 l 106 259 q 104 258 105 259 l 105 256 q 101 255 105 254 q 101 257 102 256 l 100 258 l 100 260 q 97 258 98 259 l 96 256 q 92 254 94 254 q 92 255 91 254 l 94 256 q 92 259 96 259 q 90 258 91 259 l 90 256 q 83 262 87 260 q 71 259 77 262 l 71 260 l 73 262 q 73 266 74 264 l 73 266 l 72 264 q 71 262 71 262 l 71 265 l 68 264 q 66 262 66 263 l 66 264 l 59 262 l 54 260 l 50 258 q 46 254 46 256 q 41 224 41 237 l 45 225 q 48 224 47 225 q 48 223 49 224 l 46 221 q 44 218 43 219 l 49 218 l 43 212 q 47 201 44 206 q 51 201 50 201 q 52 199 52 201 l 50 196 l 52 195 l 53 195 l 55 195 l 54 192 l 87 162 q 99 155 97 158 q 99 150 100 153 l 98 147 l 97 144 q 109 144 103 144 l 119 141 q 140 138 132 138 l 140 136 l 140 134 q 144 132 141 132 q 166 128 158 130 q 184 119 178 125 q 184 116 184 118 l 182 113 q 182 109 180 109 q 189 109 184 107 l 193 110 q 197 109 195 111 q 200 145 201 127 l 198 160 q 197 175 197 170 z "},";":{"ha":214,"x_min":68,"x_max":313,"o":"m 214 179 l 214 191 l 214 203 q 214 238 213 229 l 213 241 q 201 290 213 271 q 184 307 195 296 q 177 298 180 302 q 176 307 176 304 q 172 313 174 311 q 157 317 165 321 q 151 313 155 316 l 148 310 l 144 307 q 140 304 143 305 l 136 304 q 127 299 130 302 l 126 308 q 125 306 124 308 l 125 304 l 125 302 q 123 298 127 298 q 121 304 123 300 l 120 306 l 119 309 q 117 305 117 308 l 117 301 q 113 295 117 296 q 113 298 113 296 l 114 300 l 115 301 q 111 305 116 307 q 111 303 111 305 l 111 302 l 111 300 q 91 301 102 317 l 91 303 l 92 305 q 91 308 92 307 l 91 308 l 90 306 l 90 304 l 90 307 l 87 305 q 85 302 85 303 l 85 304 l 79 300 q 71 295 75 298 q 68 290 68 292 l 68 262 q 68 231 68 245 l 71 231 l 73 232 q 76 231 75 232 q 75 223 78 229 l 73 219 q 73 215 72 217 l 77 215 l 71 201 q 75 175 73 188 q 79 174 78 176 q 79 168 79 172 l 79 165 l 78 161 l 79 159 l 81 158 l 82 158 q 81 151 82 155 l 87 132 l 94 112 q 106 70 102 89 q 114 50 113 57 q 111 37 114 45 l 109 30 l 106 24 q 117 18 112 23 l 121 14 l 124 9 q 142 -4 134 -3 l 140 -9 l 139 -14 q 140 -21 138 -20 q 149 -28 146 -25 q 158 -37 155 -32 q 161 -66 165 -49 q 156 -74 159 -70 q 149 -80 153 -77 q 140 -90 140 -88 q 148 -92 139 -94 l 151 -92 l 154 -92 q 157 -94 157 -92 q 178 -69 168 -84 q 191 -45 185 -58 q 205 -1 200 -25 q 213 39 210 16 l 215 58 l 218 77 q 216 106 216 83 q 215 128 215 113 l 215 153 l 214 179 m 207 616 q 212 611 210 613 q 211 604 212 608 l 210 600 l 209 597 q 220 595 215 597 l 231 591 q 252 587 243 587 l 252 585 l 252 583 q 256 580 252 581 q 278 576 269 579 q 296 568 290 574 q 296 566 296 568 l 294 564 q 294 562 293 562 l 302 562 l 309 562 q 312 594 313 574 l 311 610 l 311 627 q 303 661 305 633 q 305 699 302 688 l 304 701 q 298 722 307 714 l 292 727 l 285 731 l 276 728 l 277 732 q 274 735 276 734 q 246 736 269 740 l 242 735 l 237 735 q 228 734 231 735 l 229 739 q 227 738 227 739 l 227 736 q 223 734 227 734 q 223 737 224 735 l 222 739 l 222 740 q 219 739 220 740 l 218 736 q 213 734 216 734 q 214 735 213 734 l 216 737 q 214 739 219 739 q 212 739 213 740 l 212 737 q 205 743 210 741 q 193 741 199 744 l 193 742 l 195 744 q 195 747 196 745 l 195 747 l 195 745 l 193 743 l 194 747 l 191 746 q 189 744 189 745 l 189 745 l 181 744 l 177 743 l 173 741 q 168 738 168 739 q 160 705 161 720 l 164 705 q 168 704 167 705 q 165 700 169 703 l 163 698 q 163 696 162 696 l 168 695 l 161 688 q 163 675 161 682 q 168 674 167 675 q 168 671 168 673 l 166 667 l 168 666 l 169 666 l 171 665 l 170 663 q 184 642 175 654 l 193 631 l 201 621 l 207 616 z "},";":{"ha":214,"x_min":68,"x_max":313,"o":"m 214 179 l 214 191 l 214 203 q 214 238 213 229 l 213 241 q 201 290 213 271 q 184 307 195 296 q 177 298 180 302 q 176 307 176 304 q 172 313 174 311 q 157 317 165 321 q 151 313 155 316 l 148 310 l 144 307 q 140 304 143 305 l 136 304 q 127 299 130 302 l 126 308 q 125 306 124 308 l 125 304 l 125 302 q 123 298 127 298 q 121 304 123 300 l 120 306 l 119 309 q 117 305 117 308 l 117 301 q 113 295 117 296 q 113 298 113 296 l 114 300 l 115 301 q 111 305 116 307 q 111 303 111 305 l 111 302 l 111 300 q 91 301 102 317 l 91 303 l 92 305 q 91 308 92 307 l 91 308 l 90 306 l 90 304 l 90 307 l 87 305 q 85 302 85 303 l 85 304 l 79 300 q 71 295 75 298 q 68 290 68 292 l 68 262 q 68 231 68 245 l 71 231 l 73 232 q 76 231 75 232 q 75 223 78 229 l 73 219 q 73 215 72 217 l 77 215 l 71 201 q 75 175 73 188 q 79 174 78 176 q 79 168 79 172 l 79 165 l 78 161 l 79 159 l 81 158 l 82 158 q 81 151 82 155 l 87 132 l 94 112 q 106 70 102 89 q 114 50 113 57 q 111 37 114 45 l 109 30 l 106 24 q 117 18 112 23 l 121 14 l 124 9 q 142 -4 134 -3 l 140 -9 l 139 -14 q 140 -21 138 -20 q 149 -28 146 -25 q 158 -37 155 -32 q 161 -66 165 -49 q 156 -74 159 -70 q 149 -80 153 -77 q 140 -90 140 -88 q 148 -92 139 -94 l 151 -92 l 154 -92 q 157 -94 157 -92 q 178 -69 168 -84 q 191 -45 185 -58 q 205 -1 200 -25 q 213 39 210 16 l 215 58 l 218 77 q 216 106 216 83 q 215 128 215 113 l 215 153 l 214 179 m 207 616 q 212 611 210 613 q 211 604 212 608 l 210 600 l 209 597 q 220 595 215 597 l 231 591 q 252 587 243 587 l 252 585 l 252 583 q 256 580 252 581 q 278 576 269 579 q 296 568 290 574 q 296 566 296 568 l 294 564 q 294 562 293 562 l 302 562 l 309 562 q 312 594 313 574 l 311 610 l 311 627 q 303 661 305 633 q 305 699 302 688 l 304 701 q 298 722 307 714 l 292 727 l 285 731 l 276 728 l 277 732 q 274 735 276 734 q 246 736 269 740 l 242 735 l 237 735 q 228 734 231 735 l 229 739 q 227 738 227 739 l 227 736 q 223 734 227 734 q 223 737 224 735 l 222 739 l 222 740 q 219 739 220 740 l 218 736 q 213 734 216 734 q 214 735 213 734 l 216 737 q 214 739 219 739 q 212 739 213 740 l 212 737 q 205 743 210 741 q 193 741 199 744 l 193 742 l 195 744 q 195 747 196 745 l 195 747 l 195 745 l 193 743 l 194 747 l 191 746 q 189 744 189 745 l 189 745 l 181 744 l 177 743 l 173 741 q 168 738 168 739 q 160 705 161 720 l 164 705 q 168 704 167 705 q 165 700 169 703 l 163 698 q 163 696 162 696 l 168 695 l 161 688 q 163 675 161 682 q 168 674 167 675 q 168 671 168 673 l 166 667 l 168 666 l 169 666 l 171 665 l 170 663 q 184 642 175 654 l 193 631 l 201 621 l 207 616 z "},"<":{"ha":479,"x_min":0,"x_max":480,"o":"m 264 793 l 266 791 l 267 789 q 267 785 269 788 q 251 775 263 780 l 242 771 q 234 765 237 769 l 236 761 l 205 747 q 193 737 200 743 l 187 732 l 181 727 q 139 696 164 714 q 140 692 144 695 q 116 676 132 686 l 100 667 l 84 658 l 76 652 q 76 649 75 650 l 77 648 q 50 633 66 642 l 22 612 l 16 607 l 9 602 q 0 592 2 596 l 39 575 l 77 558 q 144 526 120 539 q 224 475 198 493 q 262 453 249 463 q 285 428 271 444 l 296 414 q 306 402 302 406 q 318 405 309 406 q 326 403 321 405 l 336 400 q 362 402 359 393 l 366 398 l 370 394 l 377 385 q 388 378 385 376 q 413 383 399 385 q 451 367 431 381 q 458 359 454 364 l 462 354 l 465 349 q 476 337 473 338 q 479 339 479 336 l 479 342 l 478 346 q 480 355 476 355 q 380 473 422 427 q 261 590 317 541 q 257 592 258 592 l 257 591 l 256 591 q 253 591 255 591 q 243 595 251 592 q 243 597 242 595 l 245 599 l 247 600 l 251 603 l 253 605 l 264 613 l 349 674 l 353 678 q 431 753 406 718 l 442 771 l 452 790 q 434 785 442 787 q 457 808 455 802 q 460 829 468 825 q 451 830 458 829 l 446 830 l 439 830 q 434 831 436 829 l 433 833 l 431 835 q 420 837 427 840 l 437 852 q 433 850 436 853 l 430 848 l 427 844 q 417 842 418 836 q 427 850 422 844 l 432 856 l 437 861 q 430 859 435 861 l 426 856 l 422 852 q 409 847 410 844 q 414 850 410 848 l 418 852 l 422 854 q 429 865 432 861 q 425 863 429 865 l 421 860 l 418 857 q 435 882 433 874 q 418 884 436 891 q 431 892 422 887 l 438 898 l 446 903 l 446 903 q 441 902 446 904 l 439 899 q 436 898 437 899 q 429 892 431 894 l 432 895 l 435 899 q 445 905 440 902 l 439 905 q 427 897 430 900 l 436 905 l 422 903 l 413 900 l 404 897 q 391 892 393 894 l 264 793 z "},"=":{"ha":542,"x_min":-3,"x_max":536,"o":"m 528 581 q 434 585 492 584 l 386 586 q 336 587 357 587 q 233 583 324 584 l 115 581 l 111 581 q 41 566 67 579 l 28 557 l 16 547 q 29 541 24 544 q 8 534 12 538 q 1 519 -3 526 q 7 513 3 517 l 11 510 l 14 507 q 17 503 16 505 l 18 498 q 24 490 20 492 l 21 490 l 18 489 q 11 488 14 488 q 14 486 12 486 l 16 487 l 19 488 q 25 486 26 490 q 17 484 22 486 l 13 481 l 9 480 q 14 478 10 478 l 17 478 l 20 479 q 28 476 28 479 q 25 476 28 475 l 22 476 l 20 477 q 13 473 12 477 q 16 472 14 472 l 19 473 l 21 473 q 7 462 9 468 q 17 452 5 455 l 13 452 l 8 451 q 1 449 3 451 l 1 449 l 3 450 l 5 450 q 9 450 8 450 l 1 448 l 4 445 q 11 446 8 445 l 5 444 l 12 438 l 18 435 l 23 433 q 31 430 29 429 q 75 434 49 432 l 97 435 l 121 436 l 120 439 l 119 441 q 121 444 119 443 q 132 442 125 446 l 138 440 q 144 441 142 439 l 144 446 l 165 439 q 203 443 186 441 q 204 447 203 446 q 214 448 208 448 l 219 447 l 224 446 l 229 447 l 229 449 l 229 451 q 239 450 234 450 l 269 456 l 298 463 q 361 477 333 471 q 389 486 380 485 q 410 485 397 487 l 421 484 l 431 482 q 435 494 431 488 l 440 498 l 446 503 q 456 524 459 515 l 463 524 l 470 524 q 478 528 477 524 q 487 549 480 541 q 510 567 494 561 q 517 567 513 568 l 524 566 q 534 566 532 564 q 531 573 536 568 l 528 577 q 528 581 526 579 m 71 727 q 73 723 73 726 l 75 718 q 81 711 76 712 q 68 708 73 709 q 71 707 68 706 l 73 707 l 75 708 q 81 705 82 710 q 74 704 78 706 l 71 702 l 67 701 q 71 699 68 699 l 74 699 l 77 699 q 85 696 84 700 q 81 696 84 696 l 79 696 l 77 697 q 71 693 71 698 q 74 692 71 692 l 76 693 l 78 693 q 66 682 68 688 q 75 672 64 675 l 71 672 l 68 672 q 60 670 62 671 l 62 670 l 64 670 q 68 671 68 671 l 61 669 l 64 666 q 70 666 68 665 l 65 665 l 71 659 l 77 656 l 82 653 q 89 650 87 650 q 127 654 105 652 l 147 656 l 167 657 l 167 659 l 166 661 q 168 665 166 663 q 178 663 171 666 l 182 661 q 188 661 185 661 l 188 666 l 205 660 q 239 664 220 661 q 240 668 239 667 q 248 668 243 669 l 253 667 l 258 667 l 261 668 l 262 669 l 262 671 q 271 670 266 671 l 296 677 l 323 684 q 380 697 353 691 l 392 703 q 404 707 399 706 q 423 706 412 707 l 433 704 l 442 703 q 446 714 442 709 l 450 719 l 455 724 q 465 745 467 736 l 471 745 l 477 745 q 484 748 484 745 q 492 770 486 761 q 513 787 499 782 q 519 788 515 788 l 525 787 q 534 786 532 785 q 534 790 535 788 l 531 793 q 528 802 526 799 q 446 806 498 804 l 403 806 q 359 808 378 807 q 267 804 349 805 l 159 802 l 155 801 q 92 785 115 800 q 71 766 84 779 q 83 761 77 764 q 64 753 66 758 q 58 739 54 746 q 64 733 60 737 l 67 730 l 71 727 z "},">":{"ha":488,"x_min":-3,"x_max":490,"o":"m 183 711 l 184 713 q 188 714 185 715 q 197 708 193 712 l 203 701 q 219 688 212 690 l 222 691 l 235 679 l 241 672 q 241 671 242 671 l 241 670 l 241 670 l 244 670 q 248 669 245 669 q 254 671 253 671 q 256 669 256 670 l 256 669 l 256 668 l 258 667 l 264 667 l 263 667 l 260 666 q 262 658 262 663 l 261 654 l 260 651 q 254 642 258 647 l 187 567 q 160 532 170 543 q 134 512 151 524 l 119 503 q 106 494 110 496 q 108 481 110 490 q 105 473 107 477 l 101 465 q 100 438 92 442 l 91 432 l 81 425 q 73 415 72 418 q 73 389 77 402 q 46 354 67 372 q 34 348 41 351 q 20 344 28 346 q 1 336 3 338 q 9 332 -3 332 l 14 331 l 18 330 q 18 327 21 330 q 169 413 83 351 q 231 462 195 432 l 262 487 l 293 511 q 308 527 297 517 l 320 538 l 323 541 l 328 545 q 339 554 332 549 q 408 607 363 575 q 448 636 424 619 l 490 665 q 340 776 404 735 l 295 806 q 270 824 279 817 l 266 827 q 183 880 214 865 l 148 892 l 153 876 l 146 882 l 140 888 q 131 894 134 893 q 113 896 117 902 q 111 888 111 893 l 110 882 l 109 876 q 109 871 110 873 l 106 869 l 104 868 q 102 857 100 864 q 87 875 94 866 q 89 870 86 874 l 92 867 l 95 863 q 98 854 104 854 q 89 865 96 858 l 83 870 l 79 876 q 80 869 77 873 q 87 859 82 865 q 93 845 96 846 q 89 850 92 846 l 87 854 l 84 859 q 74 869 78 870 q 76 863 73 868 q 82 856 79 859 l 74 863 l 66 871 q 56 882 58 880 q 50 880 51 885 q 53 862 48 875 q 44 883 47 871 q 41 906 40 897 l 41 906 q 41 893 39 901 q 43 880 41 886 l 41 886 l 40 892 q 39 904 38 899 q 35 899 37 901 q 38 880 35 889 q 34 897 35 888 q 31 880 31 888 q 37 848 33 864 q 46 829 42 834 q 114 761 71 799 q 182 709 144 735 l 183 711 z "},"?":{"ha":535,"x_min":43,"x_max":762,"o":"m 325 196 l 319 201 l 310 201 q 309 205 311 204 q 282 214 300 211 l 277 214 l 273 216 q 264 217 267 217 l 266 221 q 264 220 264 221 l 263 219 q 259 218 263 216 q 260 221 260 219 l 260 222 l 260 224 q 256 224 258 224 l 254 222 q 250 220 253 219 q 250 221 249 221 l 253 222 q 252 226 256 224 q 250 225 251 227 l 250 224 l 249 224 q 245 233 249 229 q 233 234 240 237 l 234 235 l 235 237 q 238 241 238 239 l 238 241 l 236 239 l 234 237 l 236 241 l 233 242 q 230 239 231 241 l 231 242 l 223 243 l 218 241 l 213 240 q 208 237 208 239 q 192 203 195 216 l 196 203 q 199 202 199 203 q 199 200 200 201 l 196 199 q 193 195 192 197 l 198 194 l 190 189 q 191 176 190 182 q 195 176 195 176 q 195 172 196 174 l 193 170 l 194 168 l 196 168 l 197 167 l 196 164 q 208 144 201 156 l 222 124 l 228 119 q 232 115 231 117 q 231 109 233 112 l 230 105 l 229 102 q 240 100 235 102 l 250 96 q 271 92 262 92 l 271 90 l 271 87 q 274 85 271 85 q 314 75 302 82 q 314 73 315 74 l 313 73 q 313 71 311 71 l 316 71 l 320 71 q 328 72 325 72 q 330 80 330 74 q 331 92 331 84 l 331 104 l 332 117 q 328 144 327 121 q 334 174 330 166 l 334 175 q 330 192 338 184 l 325 196 m 760 1118 l 759 1128 q 754 1149 757 1139 q 704 1230 741 1199 q 618 1268 669 1261 q 543 1269 585 1274 q 424 1238 489 1263 q 334 1200 379 1222 q 299 1182 317 1192 q 284 1174 292 1179 l 278 1171 l 272 1167 l 260 1160 q 87 994 150 1093 q 47 905 60 948 q 74 937 60 923 q 45 863 44 891 q 45 839 43 850 q 47 824 45 830 q 54 820 51 814 q 57 826 55 821 l 59 830 l 61 835 q 71 854 66 848 q 77 860 75 859 l 79 859 l 82 859 q 94 869 88 857 q 87 826 87 846 q 89 833 88 825 l 89 837 l 89 841 l 90 850 q 94 865 92 859 q 98 865 97 870 q 94 817 89 844 q 96 827 96 818 l 97 836 l 99 844 q 104 861 101 854 q 109 866 107 868 q 105 856 109 865 l 102 849 l 100 842 q 102 822 95 823 q 103 829 102 822 l 103 836 l 104 842 q 108 817 103 827 q 113 809 110 812 q 117 806 115 807 q 123 808 122 804 q 123 821 123 809 q 129 808 125 814 q 142 795 133 800 l 142 796 q 134 804 138 799 q 129 810 130 807 q 142 798 132 804 l 140 803 q 136 808 138 806 l 133 812 q 140 805 136 809 q 140 816 138 812 q 140 823 139 819 q 143 827 141 825 q 148 834 147 832 q 171 882 151 854 q 217 939 189 909 q 334 1036 274 998 l 332 1038 l 330 1039 q 332 1044 329 1040 q 367 1061 344 1052 l 385 1067 q 402 1076 395 1072 l 402 1082 q 465 1101 430 1092 q 572 1132 528 1127 q 574 1136 570 1135 q 595 1135 583 1137 q 610 1130 605 1133 l 613 1128 l 614 1130 l 616 1131 q 621 1124 618 1129 q 631 1103 627 1118 q 631 1101 631 1103 l 631 1099 l 631 1098 l 631 1098 l 631 1099 q 632 1097 632 1099 l 632 1095 q 631 1080 632 1088 q 596 1005 624 1048 q 465 857 549 929 q 431 827 452 845 l 414 811 l 396 795 q 340 747 362 768 q 289 694 308 718 q 290 677 294 692 q 285 663 288 673 l 281 654 l 279 646 q 280 607 264 601 q 260 567 269 589 q 254 542 250 545 q 268 513 264 533 q 271 484 269 503 l 272 476 l 273 467 q 274 445 273 454 l 274 426 q 275 406 275 414 q 279 378 275 382 q 283 377 281 373 l 284 382 l 285 387 q 287 397 286 395 q 291 397 288 401 q 372 635 275 517 q 477 732 416 687 q 492 743 483 736 l 500 749 l 509 755 q 545 781 532 770 q 614 839 584 811 q 629 854 618 842 q 639 865 635 861 q 650 878 644 871 q 704 947 680 911 l 711 958 l 719 970 q 733 996 727 983 q 758 1061 749 1027 q 761 1083 760 1072 l 762 1095 q 761 1110 762 1101 l 760 1118 z "},"@":{"ha":905,"x_min":-9,"x_max":909,"o":"m 427 429 l 425 427 l 422 419 l 419 413 l 416 406 q 404 393 410 399 q 387 387 395 385 q 375 397 380 389 q 378 374 374 385 q 391 361 384 363 q 372 371 380 359 q 363 391 366 380 q 362 408 362 399 l 363 415 q 363 420 363 419 q 369 441 365 431 l 370 445 l 372 448 q 374 453 374 452 q 372 460 377 462 q 355 445 366 457 q 332 414 342 431 q 317 397 325 398 l 316 396 l 315 395 q 311 390 313 393 q 305 360 307 381 q 314 415 304 387 q 342 467 324 443 q 338 463 341 468 q 329 450 334 458 q 311 408 316 429 q 306 386 308 398 l 304 376 l 304 372 l 304 369 q 300 362 302 356 q 315 431 301 397 q 357 494 330 469 q 347 486 353 493 q 331 469 339 479 q 304 416 313 445 q 296 388 299 402 q 294 364 294 376 q 292 343 293 343 q 292 376 290 354 q 304 423 295 401 q 315 446 309 434 q 327 465 320 454 q 340 488 339 486 q 338 486 340 488 q 334 481 336 485 q 320 464 327 474 q 304 435 312 452 q 359 513 324 483 q 395 537 376 528 q 410 543 402 541 q 422 546 416 545 q 428 552 441 549 l 423 553 q 416 553 420 553 q 399 550 408 552 q 347 525 374 545 q 452 554 399 568 q 478 542 466 550 l 480 541 l 482 539 l 481 536 l 481 533 l 472 515 l 464 498 q 433 440 448 468 l 427 429 m 474 546 q 467 550 471 549 q 454 555 461 553 q 474 546 464 552 m 484 545 q 472 553 477 550 q 484 546 478 550 l 484 545 m 475 546 l 483 541 l 483 541 l 475 546 m 888 297 q 873 278 878 283 q 871 282 867 272 q 640 80 789 143 q 487 36 572 50 q 446 31 469 33 q 408 28 422 28 q 336 33 371 26 q 214 94 268 46 q 136 212 162 141 q 138 518 83 357 q 143 533 141 526 q 151 553 146 543 q 173 604 160 579 q 260 724 208 673 q 419 814 329 791 q 615 801 530 842 q 730 660 713 756 q 701 466 746 572 q 681 424 692 444 q 678 419 679 420 l 673 412 q 660 398 667 405 q 634 378 647 385 q 623 372 629 374 q 618 370 620 371 q 616 370 616 370 q 606 374 610 368 q 605 375 606 374 l 604 378 q 600 385 602 381 q 600 391 600 387 q 600 407 599 397 q 618 489 603 438 l 621 497 l 625 506 q 656 579 646 551 l 513 629 q 486 551 497 585 l 481 555 q 464 564 474 560 q 391 568 431 578 q 323 530 353 558 q 278 477 296 507 q 255 429 262 453 q 249 318 236 371 q 300 235 262 264 q 347 215 321 219 q 392 217 368 212 q 481 275 437 229 l 488 283 l 494 292 q 505 277 501 282 q 576 232 534 242 q 665 237 620 220 l 671 245 q 762 302 719 262 q 780 321 770 311 l 789 332 l 793 337 l 795 341 l 798 345 q 823 388 812 367 q 871 554 861 469 q 854 735 883 653 q 848 741 853 728 q 803 822 829 787 q 724 897 770 865 q 696 912 709 906 q 688 914 692 914 l 686 914 l 685 914 q 603 946 644 936 q 352 927 477 972 q 149 783 233 884 q 31 568 73 694 q 3 319 -9 444 q 71 118 17 208 q 181 -7 115 39 q 335 -71 250 -58 q 364 -62 332 -65 l 372 -62 l 380 -61 l 398 -59 q 435 -53 419 -56 q 497 -35 475 -44 q 505 -22 522 -25 q 602 1 558 -14 q 640 16 623 8 q 655 24 654 22 q 695 68 661 39 q 716 86 701 73 q 729 97 724 93 q 743 109 736 103 q 808 175 778 140 q 870 252 846 216 q 893 289 883 270 q 905 313 902 304 q 903 317 909 324 q 897 309 901 315 l 892 302 l 888 297 z "},"A":{"ha":644,"x_min":-374,"x_max":731,"o":"m 365 395 q 178 399 334 392 l 195 415 l 211 430 q 243 465 231 449 l 242 470 l 315 542 q 439 691 379 616 q 439 696 435 690 q 465 728 448 708 l 473 737 l 481 747 l 498 766 l 477 641 q 466 593 473 621 l 460 567 l 454 541 q 434 442 440 476 q 445 391 442 445 q 365 395 393 393 m 723 374 q 718 376 720 375 q 718 380 716 378 q 653 378 696 374 l 608 382 q 557 386 579 385 l 530 387 l 533 412 l 537 435 q 646 872 583 695 q 654 898 650 884 q 668 935 661 916 q 712 1036 687 987 l 592 1110 q 312 757 505 984 q 170 594 242 674 q 70 484 110 526 l 58 472 l 45 457 l 30 441 l 1 410 l -55 416 l -62 416 q -202 406 -146 423 q -256 380 -229 396 q -230 378 -244 380 q -274 363 -264 372 q -289 342 -297 347 q -279 339 -287 340 l -272 338 l -265 336 q -260 334 -261 336 l -258 332 l -258 330 q -247 323 -256 323 q -271 314 -262 319 q -267 314 -271 313 l -262 316 l -258 319 q -247 319 -245 325 q -261 313 -253 318 l -268 309 l -274 304 q -267 305 -273 304 l -262 307 l -256 309 q -241 310 -241 314 q -248 309 -242 309 l -252 308 l -257 307 q -267 299 -269 304 q -262 300 -267 298 l -258 302 l -254 304 q -269 293 -263 298 q -275 283 -274 288 q -260 279 -276 276 l -265 276 l -271 273 q -279 266 -277 270 l -279 266 q -274 270 -277 267 l -271 271 l -269 273 q -277 265 -274 269 l -273 264 l -270 267 l -267 269 l -269 267 l -271 264 l -262 262 l -255 263 l -248 262 q -238 262 -241 262 q -163 274 -211 272 q -126 274 -151 274 q -149 249 -142 256 l -187 204 q -226 161 -209 179 l -183 186 q -205 168 -193 178 l -216 158 l -226 150 q -253 124 -248 131 q -282 87 -291 89 q -264 92 -277 87 l -252 96 l -239 100 q -229 102 -232 103 q -227 100 -229 102 l -227 98 q -205 104 -223 93 q -260 62 -236 79 q -249 68 -259 60 q -239 75 -245 71 l -228 84 q -205 98 -199 107 l -220 85 l -237 73 q -271 47 -258 56 q -253 55 -267 47 q -227 73 -244 61 q -193 95 -193 98 q -208 83 -196 92 l -218 77 l -229 69 q -259 45 -259 50 q -246 52 -259 44 q -225 68 -234 60 q -269 33 -245 51 l -279 26 l -283 23 l -286 20 q -298 12 -295 14 q -298 5 -309 4 q -260 20 -286 7 q -308 -3 -284 5 q -342 -11 -326 -10 q -374 -4 -363 -12 l -374 -4 q -346 -12 -366 -12 q -314 -7 -331 -12 q -370 -9 -348 -18 q -359 -16 -365 -14 q -304 -9 -334 -21 q -326 -16 -315 -13 q -351 -18 -340 -18 q -308 -18 -333 -23 q -273 -7 -290 -13 q -244 5 -261 -2 q -205 27 -218 18 q -12 193 -125 85 q 59 263 14 218 q 102 263 82 262 q 104 267 101 267 q 123 266 111 267 l 134 264 l 146 263 l 153 264 q 155 266 154 264 l 155 267 q 175 265 165 267 l 418 282 q 453 288 437 286 q 449 225 445 228 q 475 77 473 206 q 473 44 475 66 l 472 27 q 471 12 472 18 q 471 -2 471 5 q 472 -10 472 -7 q 475 -14 473 -14 q 479 -14 479 -20 q 479 -11 478 -12 l 479 -10 l 480 -9 q 481 -6 481 -9 l 483 -3 l 484 -1 q 487 -2 485 3 q 488 46 486 15 q 492 101 489 70 q 504 213 496 143 l 509 250 l 514 288 l 536 285 q 555 283 548 283 q 563 294 554 289 q 572 298 566 296 l 583 302 q 604 322 609 313 l 617 320 q 631 319 625 319 q 646 321 646 319 q 699 361 653 345 l 709 363 l 718 364 q 729 368 728 366 q 728 372 731 370 l 726 372 l 723 374 z "},"B":{"ha":708,"x_min":-82,"x_max":865,"o":"m 820 1085 q 791 1107 808 1097 q 764 1120 778 1115 q 717 1135 743 1130 q 673 1143 696 1140 l 664 1143 l 652 1145 q 637 1145 645 1145 l 625 1144 q 585 1139 606 1143 l 567 1136 l 550 1132 q 489 1118 522 1126 l 484 1116 l 477 1114 l 493 1158 q 471 1138 479 1145 l 480 1152 q 488 1166 485 1160 q 497 1185 496 1179 q 501 1214 510 1215 q 490 1210 498 1214 l 483 1206 l 475 1202 q 469 1200 471 1199 l 467 1201 l 465 1202 q 451 1198 459 1206 l 472 1230 q 467 1225 471 1231 q 463 1219 465 1223 l 459 1213 q 448 1202 448 1195 q 460 1221 453 1208 l 466 1232 l 472 1242 q 463 1235 469 1242 l 458 1228 l 453 1220 q 437 1204 439 1201 q 443 1212 438 1206 l 448 1217 l 453 1223 q 463 1242 465 1238 q 456 1236 462 1243 l 452 1230 l 450 1227 l 449 1224 q 469 1270 467 1258 q 449 1260 471 1282 q 456 1270 452 1264 l 465 1281 q 479 1303 475 1295 l 479 1303 q 475 1297 478 1300 l 471 1291 q 462 1280 464 1282 l 477 1302 l 471 1299 q 458 1284 463 1291 l 469 1299 q 454 1290 462 1295 l 442 1279 l 436 1274 l 430 1269 q 414 1252 418 1257 q 291 1054 348 1156 q 96 967 174 1010 q -5 901 45 937 q 44 917 21 911 q -40 868 -22 885 q -73 840 -64 850 q -73 831 -79 831 q -55 835 -69 831 l -42 839 l -29 842 q -19 843 -22 844 q -18 842 -18 843 l -16 840 q 5 841 -14 833 q -50 806 -27 823 q -41 812 -51 805 q -31 818 -37 814 l -19 825 q 5 836 11 845 q -28 815 -10 828 l -45 803 l -60 791 q -44 799 -57 791 l -39 803 l -32 806 l -19 814 q 16 830 16 836 q 0 822 12 828 l -10 817 l -22 811 q -49 789 -50 795 q -37 796 -49 789 l -33 800 l -27 803 q -18 809 -21 807 q -56 778 -40 793 q -74 756 -71 764 q -71 751 -76 749 q -45 766 -66 753 l -52 760 l -59 755 q -72 743 -67 748 q -79 724 -82 732 l -79 724 q -77 734 -81 728 l -75 736 l -73 739 l -76 734 q -78 724 -79 730 l -75 727 q -66 740 -73 731 q -73 728 -72 733 q -68 731 -71 730 l -65 732 l -62 733 q -30 752 -53 741 l -21 756 l -13 761 q 1 768 -4 765 q 197 864 72 812 l 181 825 l 165 787 q 168 783 170 787 q 158 759 165 774 l 152 745 l 145 730 l 142 720 q 143 718 142 719 l 144 715 q 133 691 139 703 q 90 532 110 614 l 85 512 l 81 492 q 71 452 75 465 l 50 368 l 43 331 q 35 295 39 311 q 17 240 30 277 l 7 212 q -1 185 2 197 q 7 173 4 186 q 9 160 7 168 l 10 146 q 24 115 13 109 q 16 79 19 95 q 16 58 14 59 q 47 -26 41 44 q 46 -43 47 -33 l 45 -52 l 45 -62 q 45 -87 43 -83 q 49 -87 47 -90 l 51 -83 l 52 -79 q 60 -71 57 -65 q 99 163 61 26 q 180 408 123 253 q 191 446 184 422 q 210 505 199 474 q 265 662 236 588 q 334 822 295 739 q 389 932 367 892 l 391 936 l 408 942 l 424 947 q 422 949 423 948 l 420 951 q 426 956 418 953 q 481 970 446 964 l 507 976 q 535 984 523 979 l 536 989 q 626 1001 591 1000 q 635 1002 630 1002 q 642 1002 637 1002 l 646 1002 l 656 1002 q 692 996 677 1000 q 707 991 699 994 q 716 988 713 989 q 720 986 718 987 q 724 987 723 988 q 724 981 726 985 q 720 969 723 977 q 711 952 716 960 l 706 941 q 706 937 705 938 l 706 935 l 707 934 q 683 903 697 920 q 538 736 635 833 q 454 654 500 697 q 441 643 450 651 l 432 635 l 423 627 l 388 597 l 320 539 q 303 480 323 511 l 299 474 l 305 479 q 319 486 312 484 q 357 492 336 493 q 380 490 367 492 q 423 470 401 484 l 430 472 l 432 472 l 434 472 l 441 472 q 450 471 446 472 l 456 469 q 468 465 462 468 q 479 460 473 463 q 506 440 494 451 q 531 390 530 417 q 543 377 538 394 q 541 334 546 361 q 535 312 538 326 l 532 302 q 530 294 530 297 q 536 283 526 278 q 515 256 528 271 q 491 231 505 245 q 464 203 463 205 q 445 162 465 186 q 353 90 415 125 q 319 75 339 83 q 284 62 305 69 q 235 44 239 46 q 235 40 229 40 q 253 43 239 40 q 271 41 281 47 q 419 106 354 71 q 556 212 503 154 q 611 292 591 250 q 629 342 622 315 l 630 348 l 631 355 l 633 373 q 632 408 635 391 q 570 518 623 473 q 524 549 549 536 l 524 549 l 523 549 l 520 549 l 519 549 l 517 549 l 516 548 l 519 550 l 520 551 q 521 555 519 553 l 557 587 l 603 627 q 707 726 663 682 q 814 857 777 800 q 857 951 846 909 q 856 1023 865 987 q 820 1085 846 1061 z "},"C":{"ha":604,"x_min":7,"x_max":753,"o":"m 243 1010 q 246 1009 244 1010 l 248 1008 q 245 1002 250 1007 q 227 983 238 993 l 208 966 q 173 927 185 945 l 176 922 q 119 852 143 886 q 51 703 79 783 q 54 699 55 704 q 47 681 52 692 l 44 671 l 40 661 q 25 614 30 633 l 22 599 q 24 595 23 596 l 24 593 l 25 593 l 17 552 q 47 307 7 422 q 109 191 71 239 q 220 107 156 130 q 334 100 263 94 q 497 146 423 104 q 503 163 492 149 q 515 176 507 167 l 522 183 l 528 191 q 545 230 563 231 q 583 263 564 244 q 601 287 602 283 q 641 397 591 312 q 655 418 646 406 l 663 429 l 671 440 q 690 472 688 465 q 677 466 692 480 q 668 457 670 458 q 665 460 664 454 q 441 233 561 297 q 307 199 372 195 q 252 214 272 202 q 208 254 227 227 q 198 267 203 259 q 185 288 191 276 q 159 355 170 317 q 154 561 133 452 q 188 670 162 607 q 237 770 210 724 q 289 846 260 810 q 334 895 311 873 l 342 904 q 431 977 381 941 l 454 994 q 477 1009 467 1003 l 498 1023 q 519 1036 507 1028 q 593 1076 563 1063 q 557 1075 579 1076 q 578 1081 567 1078 q 596 1086 586 1083 q 622 1092 618 1091 q 646 1097 644 1097 q 650 1103 652 1099 q 623 1120 648 1111 q 615 1124 616 1121 l 614 1126 l 614 1128 q 597 1135 614 1135 q 654 1136 630 1140 q 644 1139 655 1138 q 622 1139 633 1140 q 600 1141 595 1137 l 608 1141 l 616 1142 l 634 1143 q 671 1138 655 1144 q 654 1145 669 1142 q 627 1149 640 1149 q 612 1148 621 1149 l 606 1148 l 602 1147 q 591 1149 591 1147 q 630 1150 602 1153 l 642 1149 l 648 1149 l 652 1148 q 665 1148 663 1147 q 652 1153 667 1150 q 628 1154 637 1155 q 682 1148 659 1156 q 702 1138 692 1144 q 709 1133 706 1136 l 713 1131 l 715 1128 q 722 1130 725 1121 q 718 1136 720 1133 q 712 1144 715 1140 q 687 1163 702 1156 q 733 1122 718 1151 q 744 1093 740 1109 q 747 1080 745 1087 q 749 1068 747 1076 l 749 1069 q 744 1098 748 1081 q 730 1128 739 1118 q 750 1072 747 1104 q 752 1082 751 1077 q 737 1127 749 1107 q 752 1088 748 1109 q 747 1124 753 1106 q 688 1185 730 1166 q 659 1196 673 1192 q 636 1198 647 1198 q 516 1178 585 1200 q 416 1135 467 1162 q 326 1078 376 1114 q 243 1010 281 1046 z "},"D":{"ha":754,"x_min":-238,"x_max":837,"o":"m 100 138 q 9 98 60 119 l -38 79 l -43 77 l -50 75 q -60 71 -56 73 l -83 64 q -121 56 -104 58 l -130 54 l -127 60 q -101 90 -117 75 q 6 160 -60 131 q 123 199 54 182 l 123 198 q 130 200 125 195 l 130 200 l 130 201 l 130 201 l 132 204 l 134 207 q 138 206 137 209 l 139 212 q 207 238 159 222 l 222 243 l 236 248 q 260 256 252 252 q 267 269 280 264 q 317 274 285 271 l 291 254 l 264 233 q 100 138 184 178 m 171 369 q 216 541 194 467 q 263 720 220 579 q 318 884 291 810 q 503 939 422 927 q 501 941 503 940 l 499 943 q 507 947 498 945 q 571 947 540 953 q 617 930 592 942 l 622 933 q 636 920 630 927 q 650 902 645 910 q 668 861 662 884 q 644 663 696 783 q 646 658 649 665 q 583 551 629 614 l 571 534 q 569 528 570 531 l 569 527 l 570 526 q 532 481 553 504 q 399 342 475 410 q 158 311 251 330 l 164 340 l 171 369 m 785 337 q 758 346 777 341 l 751 348 l 743 350 q 732 353 734 352 q 734 357 723 356 q 600 357 678 363 q 668 437 638 398 q 787 642 748 541 q 810 883 837 774 q 758 991 795 943 q 719 1030 739 1013 q 671 1061 700 1047 q 583 1085 628 1080 q 546 1087 566 1087 l 530 1086 l 516 1086 q 490 1083 507 1086 q 369 1056 433 1076 l 371 1083 q 356 1069 363 1075 l 361 1079 l 364 1089 q 368 1103 368 1099 q 363 1124 372 1124 q 355 1122 361 1124 l 349 1119 l 343 1116 q 338 1114 340 1114 l 335 1115 l 333 1116 q 321 1113 328 1119 l 333 1137 q 330 1133 332 1138 l 328 1128 l 326 1124 q 317 1116 320 1110 q 324 1131 321 1120 l 327 1138 l 330 1145 q 323 1140 328 1145 l 321 1135 l 317 1129 q 307 1117 310 1115 q 311 1123 308 1118 l 314 1127 l 317 1132 q 321 1146 325 1143 q 317 1141 320 1147 l 315 1137 l 313 1133 q 321 1168 322 1159 q 304 1160 319 1178 q 315 1177 307 1166 l 318 1182 l 321 1187 q 330 1198 326 1194 l 329 1198 q 319 1187 325 1194 q 312 1176 314 1180 l 315 1181 l 318 1186 q 327 1198 323 1193 q 321 1196 324 1198 q 309 1179 313 1188 q 313 1186 311 1183 l 317 1194 q 303 1185 311 1191 l 294 1175 l 289 1171 l 285 1166 q 273 1153 276 1158 q 202 986 237 1078 q 83 918 140 955 q -49 819 20 876 q 14 850 -16 837 q -94 774 -70 798 q -138 726 -153 724 q -115 734 -133 727 l -107 738 l -99 742 l -83 749 q -70 753 -73 753 q -68 751 -68 752 l -67 749 q -41 756 -64 743 q -113 703 -81 728 q -100 711 -114 702 q -87 722 -96 715 l -79 727 l -72 732 q -41 750 -33 762 q -85 718 -60 739 l -106 701 l -128 684 q -106 696 -123 685 q -90 708 -100 701 l -73 720 q -27 747 -27 752 q -47 734 -32 744 l -54 730 l -62 725 l -77 715 q -114 684 -114 691 q -98 694 -114 683 l -92 700 l -84 705 q -71 714 -76 711 q -126 669 -102 690 q -155 638 -147 649 q -153 632 -161 629 q -115 656 -145 636 l -125 648 l -136 640 q -159 621 -150 629 q -179 602 -172 610 q -186 588 -187 592 l -186 588 q -176 604 -186 591 q -164 614 -171 608 l -159 619 l -154 623 q -174 604 -167 612 q -184 589 -184 593 q -180 592 -182 591 q -169 603 -176 595 q -153 617 -161 610 q -177 593 -170 603 q -166 600 -174 595 l -159 604 l -153 608 q -97 645 -132 623 l -84 653 l -73 660 q -54 673 -60 668 q 146 799 42 741 l 141 787 l 136 773 l 135 767 q 136 764 136 766 l 138 764 q 131 746 135 755 q 95 517 115 656 l 94 491 q 92 466 94 477 q 81 427 89 452 l 75 408 q 70 389 72 397 q 79 380 76 389 q 83 371 81 376 l 85 361 q 102 338 92 334 q 99 326 100 331 q 97 313 98 318 q 98 298 94 300 l 90 296 q -72 233 -3 271 q -148 181 -114 210 q -183 149 -165 167 q -217 107 -204 126 l -222 100 l -227 91 q -235 65 -232 79 q -238 45 -237 56 q -234 17 -237 28 q -220 -12 -230 1 q -199 -32 -210 -24 q -166 -47 -182 -43 q -154 -50 -161 -49 l -149 -50 l -144 -51 q -112 -51 -130 -52 q -18 -32 -69 -47 q 136 25 75 0 q 165 39 150 31 q 206 60 185 48 q 315 123 261 88 q 583 339 468 220 l 592 341 l 602 342 q 704 344 651 348 q 751 338 724 342 l 761 337 l 770 336 q 782 334 779 334 q 785 337 792 334 z "},"E":{"ha":665,"x_min":-122,"x_max":1017,"o":"m 957 1074 q 890 1103 928 1095 q 852 1109 875 1107 q 836 1111 844 1110 l 829 1111 l 823 1111 q 644 1087 748 1112 q 480 1037 564 1067 q 482 1036 481 1036 l 484 1035 l 485 1034 q 476 1027 487 1032 l 456 1019 l 436 1012 q 395 996 410 1002 q 321 956 351 976 l 320 950 q 198 879 249 911 q 92 791 135 833 q 41 736 61 762 l 29 718 q 17 699 22 708 q -1 648 4 675 q 1 636 3 654 q 8 584 -1 610 q 44 532 18 552 q 88 509 62 518 q 127 498 106 502 l 147 495 l 151 496 l 153 498 l 154 500 q 164 499 160 500 l 218 511 l 219 512 l 221 512 q 223 512 224 513 l 222 511 l 218 507 q 208 496 214 503 l 171 465 l 165 459 l 163 458 l 160 455 l 153 449 l 122 425 q 62 375 90 399 q -52 258 -9 312 q -100 178 -84 215 q -109 78 -122 123 q -64 13 -98 38 q 13 -13 -33 -9 q 87 -8 48 -16 q 153 8 115 -3 q 171 27 147 12 q 182 34 176 30 l 195 41 q 223 58 213 52 q 268 90 254 78 q 270 104 284 105 q 348 144 300 119 q 391 171 389 165 q 423 214 394 187 q 469 250 445 233 q 549 298 505 275 q 646 333 593 320 q 693 342 667 338 l 703 344 l 711 345 q 722 347 719 347 q 724 351 732 350 q 697 351 716 353 l 689 351 l 682 351 q 670 350 673 350 q 672 355 661 351 q 509 296 595 338 q 437 260 479 282 l 404 241 l 370 224 l 336 206 l 302 189 q 237 155 261 167 q 108 102 162 118 q 3 90 36 79 q -12 100 -7 93 q -12 117 -14 106 q 53 210 -3 153 q 161 306 96 254 q 205 341 178 320 l 221 353 l 245 371 q 325 425 283 397 q 370 455 343 437 l 394 470 l 418 486 q 516 551 479 526 l 616 618 l 667 653 l 694 671 q 705 680 700 675 l 710 683 l 715 686 l 551 668 l 456 657 l 406 652 l 352 644 q 161 631 224 626 q 142 634 150 633 q 149 646 145 641 q 199 698 166 669 q 317 787 246 740 q 426 854 372 824 q 505 891 469 878 l 525 899 q 718 957 629 937 q 810 971 771 968 q 830 972 819 972 q 836 972 833 972 l 836 972 l 838 972 q 848 972 844 973 q 859 968 854 971 q 867 958 865 964 q 857 935 869 949 q 872 943 866 939 q 887 954 881 947 q 873 938 882 945 l 866 932 l 859 926 l 839 911 q 823 899 827 903 q 777 859 766 859 q 800 863 782 858 q 816 867 806 865 l 833 872 q 846 876 842 876 q 847 873 846 875 l 848 871 q 875 878 850 865 q 797 832 841 856 q 811 838 797 829 q 842 856 824 844 l 850 861 l 857 865 q 869 872 865 870 q 874 871 880 878 l 851 857 l 827 843 q 779 815 799 825 q 840 844 790 815 q 888 869 888 870 q 867 855 883 864 q 852 848 861 852 l 836 839 q 793 813 794 818 q 810 821 793 812 q 840 838 827 829 q 806 817 825 827 q 791 808 800 812 l 785 804 l 778 800 q 741 777 748 782 q 740 770 729 768 q 786 786 752 772 q 730 761 764 774 l 699 748 l 691 745 l 683 743 q 665 736 674 739 l 665 736 q 704 749 678 740 q 736 762 724 756 l 721 755 l 706 749 q 672 736 689 742 l 686 738 q 734 755 710 745 q 693 739 711 745 q 731 747 711 741 q 853 793 823 777 q 891 816 873 805 l 910 828 l 920 834 q 935 846 925 838 q 1015 957 1009 900 q 1000 1022 1017 990 q 957 1074 985 1053 m 9 580 l 8 584 l 7 587 l 9 580 z "},"F":{"ha":376,"x_min":-120,"x_max":1038,"o":"m 1025 1079 q 795 1164 938 1145 q 565 1162 688 1177 q 532 1155 556 1160 l 521 1152 l 509 1149 q 481 1143 493 1146 q 345 1111 404 1126 l 328 1106 q 328 1121 329 1117 q 317 1145 325 1149 q 309 1137 314 1143 l 304 1131 l 300 1125 q 296 1122 298 1122 l 293 1122 l 291 1122 q 281 1114 284 1123 q 284 1145 281 1121 q 281 1139 282 1145 l 281 1134 l 281 1127 q 276 1116 280 1111 q 278 1134 278 1123 l 278 1153 q 274 1145 276 1152 l 273 1138 l 272 1131 q 266 1114 269 1112 q 267 1122 265 1116 l 269 1127 l 271 1133 q 269 1149 275 1147 q 267 1143 269 1149 l 267 1137 l 267 1133 q 260 1169 267 1161 q 248 1156 254 1178 l 250 1164 l 250 1174 q 250 1192 251 1185 l 250 1192 q 250 1182 250 1189 l 249 1177 l 249 1172 l 248 1181 l 248 1191 l 245 1187 l 244 1180 l 244 1173 l 243 1179 l 243 1185 q 237 1175 241 1182 l 233 1164 l 228 1154 q 222 1139 223 1143 q 209 1073 219 1112 q 177 1064 195 1069 l 163 1059 l 149 1056 q 106 1043 118 1046 l 99 1041 q -33 989 18 1017 q -81 958 -52 978 q -56 958 -66 958 q -97 940 -90 947 q -113 920 -120 925 q -102 916 -111 918 l -96 915 l -89 913 q -83 911 -85 913 l -82 909 l -81 907 q -70 901 -79 901 q -98 890 -84 896 q -93 891 -98 889 l -87 893 l -81 895 q -69 896 -66 902 q -86 890 -76 895 l -94 886 l -102 882 q -94 882 -100 880 l -87 884 l -81 886 q -62 888 -63 892 q -71 886 -64 887 l -76 885 l -82 884 q -96 876 -96 880 q -90 876 -96 874 l -84 878 l -79 880 q -109 859 -104 867 q -92 854 -114 850 l -108 848 q -113 846 -113 846 q -117 842 -116 844 l -117 842 q -112 845 -115 844 l -109 846 l -106 848 q -115 842 -113 844 l -112 840 l -110 841 l -109 841 q -104 843 -106 842 q -110 840 -110 840 l -108 838 l -106 838 q -102 836 -104 836 l -92 836 l -82 836 q -66 838 -70 837 q -16 854 -45 845 l 9 862 l 37 869 l 142 902 l 140 904 l 139 906 q 141 910 138 908 q 166 916 150 914 l 161 908 l 157 901 q 151 884 152 892 l 155 881 l 131 840 l 101 758 q 104 754 104 758 q 96 734 102 747 l 90 724 l 85 711 l 82 704 q 83 701 82 703 l 85 700 q 75 681 81 692 l 66 653 l 58 625 q 26 616 42 621 q 13 614 20 615 l 7 612 l 3 611 l -1 610 q -66 573 -43 597 q -85 543 -76 560 q -68 545 -75 545 q -87 526 -85 533 q -85 508 -93 511 q -77 507 -83 507 l -72 507 l -67 506 q -62 505 -65 506 l -59 501 q -50 497 -55 496 q -58 489 -55 493 q -56 490 -58 488 l -54 491 l -53 493 q -47 493 -50 498 q -52 489 -50 492 l -54 486 l -55 483 q -51 483 -53 482 l -47 486 q -39 487 -42 490 q -42 486 -39 486 l -46 484 q -47 479 -51 482 q -45 479 -47 478 l -44 481 l -43 482 q -43 469 -47 474 q -31 466 -39 465 l -33 465 l -35 463 q -37 460 -37 461 l -37 459 l -35 461 l -33 463 l -35 459 l -31 458 l -30 459 l -29 460 l -30 458 l -22 457 l -18 456 l -14 454 l -11 453 q -9 453 -9 453 q -3 455 -9 452 l 3 457 l 9 460 l 3 438 l -2 416 l -7 385 q -13 355 -9 368 q -28 310 -18 338 l -37 288 q -46 267 -43 275 q -38 255 -40 266 q -37 244 -37 251 l -35 233 q -23 204 -34 201 l -26 197 l -28 190 q -34 175 -32 181 q -37 157 -39 159 q -22 132 -26 149 q -26 77 -18 111 q -33 61 -28 70 q -41 45 -35 56 q -52 23 -52 27 q -41 27 -52 17 l -38 31 q -35 33 -36 32 q -31 31 -31 35 q 53 237 9 111 l 70 288 l 87 339 q 124 439 107 397 q 149 509 127 453 q 250 550 207 535 q 274 562 265 559 q 293 563 281 564 l 303 562 l 313 561 q 316 572 312 567 l 320 577 l 325 582 q 335 604 337 595 l 341 603 l 348 603 q 356 606 355 604 q 366 628 359 620 q 392 644 374 640 q 400 642 395 644 l 408 640 q 421 637 419 636 q 418 645 425 639 l 416 648 l 415 650 q 416 653 414 652 q 311 663 373 665 q 262 661 290 663 l 213 657 l 212 656 l 210 656 q 264 787 235 717 q 300 880 286 842 l 302 888 q 327 966 317 926 q 345 970 333 968 l 355 972 l 365 974 l 372 977 q 373 979 373 978 l 374 981 q 394 985 383 983 q 514 1026 460 1008 q 641 1059 589 1050 q 698 1071 675 1069 q 743 1069 715 1072 l 765 1065 l 776 1063 l 786 1062 q 795 1072 785 1068 q 805 1076 799 1074 l 817 1078 q 842 1096 847 1086 q 857 1092 847 1095 l 865 1090 l 872 1088 q 890 1086 889 1084 q 900 1095 895 1092 q 916 1101 906 1100 q 975 1095 938 1107 q 1008 1074 987 1090 l 1015 1067 l 1021 1063 q 1031 1057 1028 1057 q 1028 1067 1038 1054 l 1025 1073 q 1023 1077 1023 1076 q 1025 1079 1021 1080 z "},"G":{"ha":817,"x_min":0,"x_max":875,"o":"m 599 418 l 600 418 l 597 416 l 597 417 l 597 418 l 599 418 m 874 492 q 705 555 819 534 q 671 555 701 555 q 644 556 655 556 q 614 555 627 556 q 553 549 587 554 q 528 545 541 547 q 517 543 523 544 q 509 541 513 542 l 507 540 q 450 510 469 531 q 436 486 442 498 q 449 484 444 485 q 435 472 435 477 q 435 456 429 462 q 442 453 437 455 l 446 451 l 450 449 q 454 446 452 448 l 456 442 q 465 436 460 437 q 460 433 463 435 l 458 432 l 456 431 q 458 431 456 429 l 460 431 l 461 433 q 467 432 466 437 q 462 429 465 432 l 460 426 l 457 424 q 462 423 459 422 l 466 425 q 473 425 471 427 q 471 423 473 424 l 469 423 l 467 423 q 463 418 461 422 q 466 418 464 417 l 468 419 l 469 420 q 464 407 463 413 q 475 400 465 401 l 472 399 l 469 398 q 465 395 465 397 l 465 395 l 468 396 l 471 397 l 466 394 l 469 392 q 473 393 472 393 l 471 391 l 478 387 l 483 387 l 488 385 q 494 384 493 383 q 547 401 513 392 l 546 403 l 545 405 q 545 408 544 407 q 553 408 547 410 l 557 407 q 560 408 559 406 l 559 412 l 566 410 l 574 408 l 596 414 l 589 403 l 581 393 q 480 271 529 323 q 460 249 471 260 q 431 219 446 234 q 341 151 384 175 q 233 126 278 115 q 186 152 205 133 q 153 205 165 172 q 142 363 130 271 q 186 515 151 433 q 252 640 214 580 q 311 723 280 685 l 321 738 q 442 863 378 808 q 570 948 507 918 q 596 961 583 955 l 604 964 l 610 966 q 623 970 618 969 q 670 975 647 978 q 628 987 651 985 q 678 981 652 989 q 696 974 688 979 q 703 970 700 972 l 706 969 l 709 968 q 726 954 718 962 l 729 951 l 732 949 q 736 945 734 946 q 743 944 742 939 q 741 962 745 949 q 729 987 737 975 q 724 997 724 994 q 724 999 724 998 l 726 1001 q 728 1003 727 1002 q 726 1006 728 1004 q 711 1021 724 1012 q 745 997 730 1011 q 771 964 761 982 q 770 967 772 963 q 765 977 768 971 q 742 1002 755 991 q 728 1011 736 1006 l 722 1015 l 718 1019 q 716 1023 709 1024 q 786 945 772 992 q 779 969 787 951 q 754 1003 769 989 q 738 1017 747 1010 q 724 1027 732 1021 q 711 1036 710 1036 q 733 1024 720 1034 q 760 1000 749 1013 q 770 986 765 994 l 774 979 l 779 973 q 789 958 787 959 q 788 964 791 958 q 782 977 786 970 q 767 998 776 987 q 801 940 791 972 q 807 912 805 927 q 808 902 808 907 l 808 897 l 809 893 q 814 890 810 879 l 815 892 l 816 897 q 818 909 817 903 q 816 945 819 926 q 817 874 825 911 q 791 810 810 844 l 791 810 q 808 844 800 824 q 819 881 817 866 q 795 814 814 848 l 799 818 l 804 823 q 823 875 818 848 q 808 828 819 852 q 829 866 820 844 q 833 960 844 913 q 801 1026 825 998 q 711 1086 765 1068 q 609 1097 661 1103 q 523 1074 570 1091 q 448 1039 486 1060 q 212 833 321 966 q 215 833 213 832 l 218 833 q 214 823 220 832 q 191 793 205 810 l 179 779 l 168 765 q 125 704 140 731 l 127 698 q 62 588 89 640 q 20 471 34 522 q 0 346 3 410 q 3 340 3 350 l 3 327 l 3 312 q 3 279 3 294 q 12 203 5 238 q 18 180 15 191 q 22 175 20 176 l 24 174 l 24 173 q 51 109 35 138 q 129 31 83 58 q 235 -3 178 1 q 425 60 328 -7 q 626 267 526 132 q 622 240 625 257 l 619 224 l 617 209 q 621 150 604 134 q 600 77 608 115 q 592 33 589 36 q 605 -14 602 21 q 604 -138 606 -35 q 602 -176 602 -161 q 600 -215 600 -199 q 601 -269 597 -259 q 605 -271 603 -278 q 606 -262 605 -268 l 607 -252 q 610 -234 609 -238 q 614 -235 612 -227 q 671 111 613 -87 q 805 446 722 283 l 785 460 q 791 471 789 465 l 795 469 l 801 466 q 808 467 807 465 q 825 484 816 478 q 852 490 836 492 q 858 486 854 489 l 863 481 q 871 475 869 475 q 873 484 875 476 l 872 486 l 872 489 q 874 492 872 491 z "},"H":{"ha":606,"x_min":-291,"x_max":734,"o":"m 692 808 q 726 941 717 876 l 730 991 l 715 975 l 720 986 q 724 997 722 993 q 728 1012 728 1008 q 726 1034 734 1034 q 716 1031 722 1034 l 710 1029 l 704 1025 q 698 1024 701 1023 l 696 1025 l 694 1026 q 682 1021 688 1029 q 696 1048 686 1031 q 692 1045 694 1050 l 689 1040 l 686 1034 q 678 1025 680 1019 q 686 1042 682 1030 l 690 1050 l 694 1059 q 687 1053 691 1059 q 680 1040 684 1049 q 667 1026 670 1024 q 671 1034 668 1028 l 675 1038 l 679 1043 q 685 1059 688 1056 q 680 1055 684 1060 q 675 1044 677 1049 q 688 1084 688 1076 q 670 1076 689 1095 q 684 1094 673 1082 l 691 1103 l 699 1113 l 698 1113 q 694 1108 696 1111 l 689 1103 q 681 1093 683 1096 l 688 1103 l 696 1112 l 690 1111 l 684 1104 q 677 1097 680 1101 l 683 1103 l 688 1110 q 673 1103 680 1107 l 662 1093 q 651 1084 655 1087 q 637 1067 640 1073 q 589 958 612 1021 l 581 931 l 572 906 q 556 857 562 873 l 558 857 l 560 857 q 562 853 562 857 q 552 832 561 845 q 541 808 543 818 l 545 806 l 522 766 q 497 696 510 736 q 359 692 434 700 q 325 685 353 691 q 298 680 309 682 q 268 673 282 676 q 289 722 276 691 l 333 825 l 357 882 l 370 911 l 387 955 q 404 1059 413 1026 q 382 1099 400 1082 q 343 1124 368 1115 q 240 1130 303 1139 q 194 1121 213 1126 q 178 1117 187 1119 l 171 1114 l 163 1112 q 60 1072 111 1096 q 20 1052 41 1063 q 4 1043 13 1048 q -9 1035 -1 1040 l -22 1027 q -216 852 -148 954 q -264 762 -243 811 q -235 792 -249 779 q -275 723 -269 745 q -281 683 -291 679 q -268 692 -277 684 l -260 700 l -252 707 q -244 711 -248 711 l -242 711 l -240 709 q -224 718 -235 705 q -249 672 -238 696 q -244 679 -248 671 q -239 688 -242 682 l -235 698 q -222 713 -222 723 q -237 686 -229 703 l -243 671 l -249 657 q -240 669 -246 659 q -235 678 -238 672 l -229 689 q -210 713 -213 717 q -218 702 -212 711 l -223 694 l -229 686 q -239 659 -243 664 q -233 669 -238 659 l -229 677 q -224 685 -226 683 q -243 624 -243 643 q -223 642 -243 610 l -227 635 l -230 628 l -237 612 q -248 581 -245 593 l -248 581 q -241 598 -246 587 l -237 607 q -235 615 -235 612 q -245 583 -241 597 l -241 587 l -235 599 l -231 611 l -235 600 l -238 590 l -231 597 l -224 606 q -214 622 -220 613 q -203 637 -210 628 q -187 661 -191 655 q 52 903 -111 803 l 50 904 l 47 905 q 50 911 46 907 q 88 930 64 921 l 108 938 q 127 947 119 943 l 127 953 q 197 973 159 964 q 228 983 211 978 q 238 985 237 985 l 238 986 q 239 986 238 986 l 242 987 l 245 988 q 250 992 249 991 q 253 988 254 992 l 252 985 l 250 982 l 250 981 l 252 980 l 254 979 l 252 977 l 250 971 l 246 964 q 188 801 227 907 l 172 759 l 157 717 q 126 630 140 669 q 48 600 90 617 q 17 587 34 594 l 11 585 l 5 582 q -5 578 -2 579 l -11 574 q -110 515 -75 547 q -140 480 -123 502 q -120 483 -129 482 q -149 461 -146 468 q -157 441 -163 446 q -147 439 -154 440 l -141 439 l -135 437 q -130 436 -132 438 l -128 434 l -127 432 q -116 428 -123 427 l -136 415 q -132 416 -135 414 l -128 418 l -124 422 q -114 424 -114 429 q -126 416 -119 422 l -132 411 l -137 407 q -130 408 -135 406 l -125 410 l -120 413 q -106 416 -108 420 q -112 414 -108 416 l -116 412 l -121 410 q -130 401 -132 406 q -125 404 -129 401 l -121 406 l -117 408 q -136 385 -134 393 q -121 382 -137 377 l -126 378 l -132 376 q -134 374 -133 374 l -135 374 q -137 371 -137 372 l -137 371 l -136 372 l -134 373 q -132 374 -134 373 q -130 375 -131 374 q -136 370 -135 371 l -132 369 l -131 370 l -130 370 q -127 371 -129 370 l -129 370 l -130 370 q -130 368 -130 369 q -128 368 -130 368 l -127 366 q -123 365 -125 365 l -115 366 l -107 367 q -94 370 -98 368 q 50 444 -43 400 l 48 445 l 47 447 q 47 451 45 449 q 60 456 52 454 l 66 457 l 72 458 l 68 446 l 64 433 q 52 397 60 418 l 37 358 q 9 284 17 307 q 16 267 15 284 q 16 250 16 260 l 15 231 q 25 189 12 180 q 12 140 17 163 q 8 111 5 113 q 26 -8 31 92 q 20 -39 24 -21 l 13 -66 q 7 -87 9 -81 l 7 -91 l 7 -91 l 7 -91 l 7 -91 l 7 -92 l 7 -92 q 11 -93 9 -98 q 13 -92 12 -92 l 14 -92 l 15 -91 l 18 -85 q 21 -81 20 -82 q 24 -83 24 -77 l 35 -39 l 36 -33 l 37 -28 q 40 -14 39 -21 l 44 9 q 62 93 52 50 q 109 260 80 170 q 203 512 149 380 l 210 514 l 216 517 l 216 519 l 216 521 q 232 524 225 523 q 418 587 334 570 q 462 597 445 596 l 469 597 q 441 488 454 543 l 427 424 q 416 353 420 389 l 416 323 q 416 293 416 304 q 414 271 415 285 l 411 248 q 408 201 408 218 q 419 194 413 203 q 425 184 421 191 l 430 174 q 453 155 444 147 q 456 128 454 141 q 463 113 460 113 q 519 74 488 113 l 524 64 l 528 55 q 537 43 534 44 q 541 45 540 43 l 541 48 l 541 52 q 544 59 540 60 q 510 206 511 109 q 538 383 509 298 q 602 579 544 421 l 617 618 q 639 632 625 629 q 684 630 656 637 q 696 623 689 628 q 709 615 701 621 q 726 604 723 605 q 724 614 731 604 l 722 618 l 720 621 q 723 624 720 624 q 635 667 683 650 q 667 745 650 705 q 690 800 679 774 l 692 808 z "},"I":{"ha":326,"x_min":-109,"x_max":526,"o":"m 205 941 l 205 941 l 203 936 q 203 940 203 939 l 205 941 m 519 1102 q 351 1108 446 1116 q 320 1101 345 1105 q 295 1097 312 1099 l 281 1095 l 267 1092 q 209 1082 241 1088 q 185 1076 198 1079 q 175 1074 181 1076 l 171 1074 l 167 1072 l 164 1072 q 104 1038 125 1062 q 87 1009 94 1026 q 102 1011 94 1011 q 86 994 86 1000 q 89 977 81 980 q 96 975 91 976 l 101 975 l 106 974 q 111 972 109 974 l 114 969 q 123 965 119 965 q 115 958 121 964 q 118 958 117 957 l 121 961 q 126 962 123 966 q 122 958 123 960 l 121 954 l 119 952 q 123 952 121 951 l 127 954 q 134 955 131 958 q 132 954 134 954 l 127 953 q 127 948 123 951 q 129 949 127 947 l 130 949 l 131 951 q 132 939 128 943 q 143 935 136 935 l 142 934 l 140 933 q 138 930 138 931 l 139 930 l 140 931 l 142 932 l 141 931 l 140 929 l 143 928 q 146 930 145 929 l 145 928 l 152 926 l 156 926 l 160 924 l 163 922 q 165 922 164 922 q 176 924 165 920 l 182 926 l 189 928 l 202 932 q 176 857 192 905 l 178 856 l 181 856 q 183 852 183 856 q 179 840 182 846 l 174 829 q 165 807 165 815 l 169 804 q 150 769 163 791 l 127 696 q 130 693 130 696 q 123 675 128 686 l 119 665 l 115 654 l 113 647 q 114 644 113 646 l 115 643 q 108 625 113 635 q 67 382 78 492 l 68 354 q 68 327 68 338 q 60 286 66 312 l 56 264 q 52 245 54 252 q 62 236 58 245 q 66 227 64 232 l 70 216 q 89 195 79 189 l 87 182 q 86 169 86 174 q 25 151 58 161 q -18 136 1 142 l -22 134 q -86 89 -65 116 q -101 59 -95 73 q -86 60 -92 60 q -102 43 -101 50 q -101 26 -109 31 q -94 24 -99 25 l -89 24 l -83 22 q -79 21 -81 22 l -76 18 q -66 14 -72 13 q -77 4 -69 11 q -74 5 -76 3 l -72 6 l -71 9 q -64 9 -65 14 q -70 4 -66 8 l -72 1 l -75 -3 q -70 -3 -73 -4 l -67 -1 l -64 1 q -56 3 -58 6 q -59 1 -56 2 l -64 -1 q -68 -7 -71 -3 q -64 -6 -67 -8 l -62 -5 l -61 -3 q -66 -20 -68 -14 q -54 -24 -65 -26 l -57 -26 l -60 -28 q -66 -34 -64 -31 l -66 -34 l -64 -33 l -62 -31 q -59 -28 -60 -29 l -64 -34 l -61 -35 q -56 -32 -57 -34 l -59 -36 l -50 -37 l -44 -37 l -39 -37 q -31 -36 -32 -37 q 37 1 -7 -18 l 37 3 l 35 5 q 35 8 35 7 q 46 11 38 12 l 52 10 q 56 12 54 11 l 56 17 l 65 17 l 75 17 l 109 31 q 108 35 107 33 q 117 37 111 36 l 122 37 l 127 38 l 130 40 l 131 42 l 131 44 q 140 45 135 45 q 252 96 197 73 q 278 110 269 106 q 299 113 286 112 l 311 113 l 321 114 q 323 125 319 119 l 326 132 l 331 137 q 338 159 342 151 l 345 161 l 351 161 q 359 167 359 163 q 380 212 357 196 q 387 213 383 213 l 394 214 q 404 216 402 214 q 403 219 405 217 l 401 220 l 399 222 q 395 229 393 226 q 304 215 363 224 l 281 212 l 256 208 q 207 200 229 203 q 149 184 200 196 l 151 209 l 155 234 l 161 279 l 168 325 q 188 412 176 368 q 203 480 189 429 q 239 595 218 536 q 261 657 248 622 l 272 687 l 283 716 q 293 745 288 730 q 300 770 296 755 q 313 806 310 799 l 314 812 q 347 928 338 888 l 350 951 l 353 973 l 337 960 l 341 968 l 345 975 q 351 987 349 983 l 366 994 l 382 1000 l 392 1006 q 402 1011 398 1010 q 419 1010 408 1012 l 427 1009 l 435 1008 q 439 1019 435 1013 l 443 1023 l 448 1028 q 457 1049 459 1040 l 463 1048 l 469 1048 q 475 1051 475 1048 q 484 1073 478 1064 q 504 1089 491 1084 q 509 1089 506 1090 l 515 1087 q 524 1086 522 1085 q 522 1094 526 1088 l 519 1098 q 519 1102 518 1101 z "},"J":{"ha":526,"x_min":-128,"x_max":811,"o":"m 328 486 q 314 433 326 465 l 305 408 q 298 382 301 394 l 302 378 q 267 294 288 339 q 193 143 236 213 q 195 138 197 144 q 172 105 186 123 q 153 87 163 94 l 149 85 l 149 82 l 149 80 q 134 80 142 79 q 61 123 102 79 q 6 220 22 165 q 7 331 -10 272 q 73 440 24 387 q 158 519 110 486 q 241 561 191 542 q 330 587 281 576 q 341 602 326 592 q 321 492 332 541 q 324 492 323 491 l 326 492 q 328 486 329 493 m 433 899 q 435 928 435 911 l 434 957 l 439 960 q 438 945 439 958 l 438 934 l 438 921 q 433 899 437 890 m 430 955 q 429 934 430 948 l 429 923 l 428 913 q 423 893 427 891 q 426 920 423 897 q 427 938 427 931 q 429 954 429 947 l 430 955 m 423 932 q 422 951 423 940 l 424 951 l 423 941 l 423 937 l 423 932 m 783 679 q 769 691 758 692 q 527 720 661 724 l 512 719 l 497 718 q 499 756 498 738 q 494 873 499 806 q 483 825 488 846 q 485 918 489 898 q 473 964 481 972 q 466 947 471 961 l 462 935 l 457 923 q 453 914 455 916 l 450 914 l 448 914 q 438 897 441 916 q 440 960 439 927 q 535 995 488 983 q 565 1006 554 1004 q 589 1005 574 1007 l 602 1003 l 612 1001 q 618 1012 612 1006 l 624 1017 l 630 1021 q 645 1040 647 1031 l 653 1038 l 661 1038 q 671 1040 670 1036 q 685 1059 676 1052 q 718 1071 697 1069 q 727 1069 722 1070 l 736 1065 q 749 1061 747 1060 q 747 1069 752 1063 l 745 1072 l 743 1074 q 745 1078 743 1077 q 492 1103 640 1114 q 444 1092 490 1101 q 406 1083 424 1087 q 365 1071 384 1077 q 284 1040 328 1059 q 252 1025 269 1034 q 239 1019 246 1023 l 234 1017 l 229 1015 l 226 1012 q 159 962 181 989 q 142 931 152 951 q 158 932 151 932 q 140 916 141 921 q 138 899 132 903 q 146 896 141 897 l 151 895 l 157 893 q 161 891 159 893 l 163 890 l 164 888 q 174 884 168 883 l 161 873 q 163 874 161 872 l 166 876 l 169 878 q 176 880 175 884 q 168 873 172 878 l 165 869 l 161 866 q 167 867 163 865 l 170 868 l 174 870 q 184 873 182 876 q 180 871 183 871 l 177 869 l 174 868 q 168 861 165 865 q 172 862 169 860 l 174 864 l 177 865 q 166 847 165 854 q 180 843 166 840 l 175 840 l 170 838 q 162 831 164 834 l 162 831 l 164 832 l 168 834 q 172 837 171 836 l 163 830 l 168 829 q 175 833 172 831 l 170 828 l 179 827 l 186 827 l 193 828 q 203 830 201 829 q 296 886 245 858 l 294 887 l 293 889 q 293 892 292 890 q 305 897 296 896 l 312 897 q 317 901 315 899 l 316 905 l 328 907 l 339 908 l 376 927 q 376 931 374 930 l 377 932 l 378 932 q 372 828 376 877 q 366 772 370 803 l 361 745 l 359 730 l 357 715 l 355 699 q 292 684 321 692 q 178 643 231 667 q 122 614 149 630 q 71 581 93 596 q -100 381 -52 493 l -102 375 l -104 368 q -109 350 -107 359 q -119 302 -116 326 q -105 166 -128 233 q -22 24 -79 85 q 58 -35 16 -15 q 179 -49 119 -64 q 237 -20 210 -41 q 278 20 258 -5 q 324 90 302 54 q 394 229 363 153 q 437 353 418 288 q 450 402 444 376 q 455 423 452 412 l 457 433 l 459 441 l 463 458 q 492 658 481 546 q 523 663 522 661 q 559 686 531 677 q 604 695 579 692 q 673 697 635 699 q 745 682 700 695 l 762 677 l 770 675 l 777 673 q 797 667 793 667 q 783 679 811 665 z "},"K":{"ha":596,"x_min":-33,"x_max":1141,"o":"m 317 374 l 317 374 l 317 374 l 317 374 m 1134 1150 q 1112 1154 1128 1152 l 1099 1154 q 1089 1156 1092 1155 q 1090 1159 1081 1156 q 829 1060 971 1146 q 624 903 731 1000 q 280 530 455 751 q 255 494 275 522 q 246 481 250 486 l 237 469 q 216 438 226 452 l 214 446 l 214 446 l 214 442 l 215 437 l 214 436 l 213 444 l 210 440 l 210 431 l 210 430 l 209 438 q 203 425 205 432 l 202 419 q 151 342 174 378 l 146 334 q 168 446 156 392 l 172 463 q 191 544 178 491 l 200 586 l 210 628 q 241 783 232 727 l 260 909 q 238 859 248 879 q 262 959 260 942 q 262 1010 271 1018 q 250 994 258 1007 l 243 982 l 236 970 q 229 962 232 962 l 227 962 l 224 962 q 210 945 218 965 l 229 1014 q 224 1003 227 1015 q 221 989 223 998 l 217 975 q 207 949 208 937 q 218 991 212 964 l 222 1013 l 227 1034 q 219 1015 224 1031 q 214 1000 217 1009 l 210 983 q 195 944 198 941 q 201 962 196 949 l 205 975 l 210 989 q 217 1027 221 1023 q 212 1013 216 1028 q 208 1000 210 1007 l 206 993 l 205 987 q 220 1078 220 1056 q 200 1046 220 1100 q 206 1068 202 1055 l 213 1092 q 225 1139 222 1122 l 225 1139 l 211 1088 l 223 1137 l 218 1128 q 207 1092 211 1109 l 215 1124 q 201 1099 209 1114 q 190 1072 196 1087 l 184 1059 l 179 1046 q 164 1006 168 1018 l 130 881 l 95 754 q 32 498 56 610 q 34 499 33 498 l 37 500 q 38 492 39 500 q 31 459 35 477 l 27 444 l 22 429 q 8 366 11 390 l 12 361 l 6 336 l -1 309 q -13 254 -8 277 q -33 43 -28 142 q -29 39 -30 47 q -33 -19 -30 18 l 101 -41 q 117 0 106 -24 l 122 15 q 122 20 123 18 l 121 21 l 121 22 q 142 64 130 41 q 245 259 182 154 q 281 193 263 222 l 283 195 l 285 196 q 289 195 286 198 q 296 185 293 191 l 301 174 q 313 153 307 159 l 318 155 l 328 136 l 337 117 q 391 61 363 87 q 395 62 392 64 q 408 49 399 58 l 414 41 l 422 33 l 427 28 q 430 28 429 28 l 431 29 q 444 15 439 21 q 644 -103 536 -54 l 669 -111 q 692 -120 683 -116 q 709 -128 700 -123 l 728 -138 q 763 -156 751 -151 q 774 -148 764 -151 q 783 -146 777 -147 l 793 -144 q 817 -130 819 -140 q 839 -136 829 -134 q 853 -135 852 -138 q 901 -98 861 -113 l 909 -98 l 917 -97 q 926 -94 925 -97 q 925 -91 928 -92 l 923 -90 l 921 -88 q 917 -85 918 -87 q 916 -82 916 -83 q 798 -60 875 -91 q 661 17 729 -32 q 608 52 645 24 q 528 121 565 84 q 452 203 489 157 q 407 266 421 241 l 404 271 q 389 294 399 278 l 374 318 q 347 360 357 346 l 336 373 l 324 387 q 463 580 390 486 q 547 688 510 646 q 622 764 576 722 q 701 835 659 798 q 707 855 694 837 q 737 893 716 869 l 745 903 l 753 913 q 766 928 762 922 q 763 941 775 943 q 792 962 774 950 l 807 973 l 821 983 q 854 1009 853 1006 q 878 1049 854 1026 q 916 1082 895 1067 q 985 1120 945 1102 q 1068 1141 1022 1135 q 1089 1143 1078 1143 q 1107 1145 1097 1144 q 1133 1147 1130 1146 q 1134 1150 1141 1148 z "},"L":{"ha":387,"x_min":-123,"x_max":754,"o":"m 746 50 q 743 61 738 62 q 640 104 702 92 q 549 110 600 111 q 467 104 515 109 l 427 100 q 389 96 404 97 q 369 92 382 94 l 331 87 l 229 73 q 155 62 195 69 q 88 50 122 56 q 140 314 104 189 q 158 389 142 333 q 197 513 175 450 l 221 579 l 245 644 q 280 733 267 704 l 283 740 q 308 806 298 776 q 328 867 321 842 l 332 894 l 334 907 q 334 913 334 910 l 334 915 l 334 918 l 331 915 q 327 912 329 913 l 319 904 l 324 916 l 328 924 q 334 937 334 934 q 335 960 343 960 q 325 958 332 961 l 318 956 l 312 954 q 306 953 309 952 l 304 954 l 302 956 q 290 953 297 959 q 307 978 296 964 q 302 975 306 979 l 299 970 l 296 964 q 286 957 287 951 q 296 972 290 962 l 301 981 l 306 988 q 298 983 303 988 q 290 972 296 980 q 276 959 278 957 q 281 966 277 961 l 285 970 l 290 975 q 297 990 300 986 q 292 985 296 991 l 288 981 l 286 976 q 302 1012 301 1002 q 283 1007 302 1023 q 290 1015 286 1010 l 296 1022 q 307 1036 305 1031 l 307 1036 l 294 1021 l 304 1036 l 302 1036 l 300 1036 q 291 1025 295 1031 l 298 1036 q 286 1031 293 1034 l 276 1024 l 266 1017 q 251 1004 254 1009 q 232 977 239 989 q 222 958 227 969 l 216 946 q 193 897 205 925 q 149 795 169 845 l 151 795 l 153 794 q 155 790 155 794 q 150 777 153 784 l 143 766 q 132 742 134 751 l 136 739 l 113 699 l 87 618 q 90 614 90 618 q 83 595 88 608 l 78 584 l 73 572 l 71 565 q 73 562 71 564 l 74 561 l 70 551 l 66 542 q 18 281 35 412 l 17 252 q 15 222 16 235 q 6 178 13 208 l 1 155 q -4 134 -3 142 q 6 124 1 134 q 9 115 7 121 l 13 103 q 31 79 21 74 q 28 55 29 65 q 28 36 27 41 q -66 -5 -32 20 q -100 -38 -83 -19 q -89 -37 -95 -37 l -79 -37 q -109 -56 -105 -49 q -116 -77 -123 -73 q -106 -79 -114 -78 l -101 -79 l -95 -81 q -90 -82 -92 -81 l -88 -84 l -87 -86 q -77 -91 -84 -92 q -95 -102 -89 -98 q -92 -102 -95 -104 l -88 -99 l -84 -96 q -75 -96 -75 -90 q -86 -102 -80 -97 l -91 -106 l -96 -111 q -90 -110 -94 -112 l -85 -108 l -81 -105 q -68 -102 -69 -99 q -73 -105 -69 -104 l -77 -106 l -81 -108 q -89 -116 -91 -111 q -85 -115 -88 -117 l -81 -113 l -78 -111 q -94 -132 -93 -123 q -79 -135 -95 -140 l -84 -138 l -90 -141 q -99 -149 -96 -145 l -99 -149 q -94 -145 -97 -148 l -90 -143 l -87 -142 l -92 -146 l -97 -150 l -93 -151 q -85 -146 -90 -149 l -88 -149 l -91 -151 l -81 -152 l -73 -151 l -66 -150 q -55 -148 -57 -149 q 75 -101 -11 -123 l 74 -99 l 73 -98 q 75 -94 72 -95 q 93 -92 81 -91 l 102 -92 q 111 -90 107 -92 l 111 -84 l 127 -85 l 144 -85 l 203 -71 q 203 -67 201 -68 q 218 -65 209 -66 l 227 -64 l 236 -64 l 241 -62 l 242 -60 l 243 -58 q 258 -58 250 -58 l 349 -33 l 372 -28 l 397 -22 l 447 -9 q 488 6 474 3 q 522 8 501 8 l 538 7 l 546 7 l 553 7 q 559 18 553 13 q 566 24 562 21 l 574 28 q 591 49 595 40 l 603 48 l 614 47 q 628 49 627 46 q 646 68 633 62 q 696 72 665 78 q 726 55 707 69 l 733 50 l 739 45 q 747 39 745 40 q 746 50 754 37 z "},"M":{"ha":1149,"x_min":-185,"x_max":1416,"o":"m 1402 467 q 1383 467 1396 468 q 1358 465 1370 467 q 1331 461 1346 464 l 1326 460 l 1320 459 q 1312 457 1314 458 q 1315 462 1298 455 q 1060 302 1193 425 q 1010 253 1037 280 l 1004 247 l 1004 247 l 1004 247 l 1003 246 l 1002 246 l 1002 247 l 1002 248 l 1002 248 l 1004 250 l 1010 265 l 1025 297 l 1048 346 l 1064 378 l 1080 412 q 1109 475 1099 449 q 1127 572 1133 534 q 1101 628 1122 605 q 1084 643 1095 636 q 1066 651 1076 648 q 1036 658 1051 657 q 956 635 1000 659 q 852 559 913 610 l 868 597 q 886 642 880 625 q 905 694 897 669 q 922 757 917 730 l 924 766 l 926 777 q 927 802 927 789 l 926 810 q 926 819 926 815 q 919 843 924 831 q 899 872 912 860 q 887 882 896 876 q 832 911 862 905 q 770 909 802 917 q 691 872 734 900 q 576 777 640 838 q 391 564 490 692 q 411 628 404 606 l 422 664 q 471 833 452 761 q 493 925 486 889 l 496 937 l 498 950 q 501 981 500 965 l 501 992 q 499 1007 500 1000 l 497 1015 l 497 1016 l 496 1017 l 494 1023 l 494 1024 l 493 1025 l 491 1029 l 486 1039 q 455 1074 473 1060 q 410 1096 436 1090 q 368 1100 389 1102 q 306 1086 338 1098 q 218 1038 266 1070 q 91 935 161 999 l 43 889 l 22 868 q -5 841 10 858 q -90 730 -45 797 q -9 814 -49 779 q -93 713 -53 768 q -140 637 -126 667 q -182 551 -172 581 q -185 537 -185 541 q -181 538 -184 534 q -157 570 -177 542 q -140 593 -147 583 q -121 615 -130 606 q -107 630 -111 629 q -104 630 -106 631 l -104 629 l -103 628 q -72 659 -98 623 q -147 532 -117 593 q -134 553 -146 530 l -132 559 l -128 565 l -121 578 q -106 604 -113 593 q -77 648 -90 631 q -71 650 -65 664 q -157 495 -119 585 q -138 530 -154 498 q -122 558 -129 547 q -104 588 -113 575 q -71 640 -87 617 q -54 658 -54 662 q -64 644 -57 654 q -70 635 -65 642 l -77 626 q -108 579 -96 598 q -142 508 -145 520 q -127 534 -142 507 q -115 559 -120 549 q -102 582 -107 574 q -149 477 -132 529 q -163 414 -163 436 q -159 409 -164 394 q -155 418 -158 411 l -153 424 l -151 431 q -134 474 -143 452 q -148 433 -142 452 q -156 391 -155 410 q -140 328 -161 347 l -140 329 q -154 358 -151 340 q -155 379 -156 368 q -154 399 -155 389 q -142 333 -160 354 l -143 338 l -144 342 q -150 393 -153 361 q -145 348 -153 365 q -143 385 -147 364 q -111 475 -138 422 q -90 514 -102 492 l -85 523 l -80 531 q -72 545 -75 541 q 79 746 -5 659 q 99 765 91 758 l 113 776 l 126 787 l 176 831 q 277 909 233 880 q 327 941 304 928 q 352 951 340 947 q 324 844 343 913 q 287 716 309 788 q 290 718 288 716 l 291 719 l 292 720 q 290 703 295 721 q 250 579 277 656 l 239 549 l 228 519 q 208 455 216 485 l 210 448 l 132 237 l 91 116 l 81 86 l 71 56 q 50 0 58 23 l 55 -2 l 54 -9 l 52 -16 l 180 -55 l 182 -47 l 185 -41 l 191 -42 q 212 22 195 -19 q 245 93 226 54 q 246 102 239 89 q 360 288 281 171 l 380 318 q 383 327 382 323 l 384 330 l 384 331 q 444 412 412 371 q 629 649 541 551 q 735 751 689 714 q 789 786 766 776 q 800 790 794 788 l 803 791 q 806 791 804 791 q 801 764 804 780 q 778 691 793 735 q 717 541 758 636 q 554 239 564 256 l 693 180 q 788 328 700 205 q 850 412 820 372 q 882 452 878 449 q 946 503 918 485 q 982 522 969 518 q 992 522 987 523 q 1000 517 998 521 q 1002 507 1002 513 q 1002 497 1003 503 q 989 460 998 480 l 981 443 l 973 427 q 977 408 985 437 q 947 325 971 387 q 922 241 926 266 q 932 233 918 212 q 918 187 924 208 q 913 138 912 160 q 921 98 913 115 l 923 94 l 924 94 l 924 93 q 926 93 925 92 l 932 98 l 939 103 l 943 108 q 951 117 949 114 q 973 153 958 129 l 985 172 l 998 193 l 1020 230 q 1023 234 1020 230 l 1029 240 l 1040 252 l 1064 279 q 1126 339 1095 313 q 1273 431 1196 399 q 1350 455 1308 446 q 1379 460 1364 458 q 1390 462 1384 461 l 1395 463 l 1399 463 q 1402 467 1416 467 z "},"N":{"ha":784,"x_min":-88,"x_max":990,"o":"m 599 52 l 597 55 l 596 58 l 597 56 q 600 51 598 54 l 599 52 m 599 45 q 599 40 598 39 q 599 46 599 41 l 599 45 m 981 474 q 948 461 970 471 l 939 456 l 931 452 q 918 446 921 448 q 919 451 908 442 q 766 320 856 408 q 699 252 735 290 q 634 184 676 229 q 645 240 639 214 q 696 411 664 315 q 727 498 709 449 l 758 585 l 774 629 l 777 637 l 780 646 q 787 665 784 656 q 802 709 796 691 q 820 789 820 764 q 805 843 818 819 q 758 890 787 874 q 696 903 730 904 q 559 835 636 901 q 529 806 547 825 l 516 793 l 505 781 q 453 722 479 754 q 361 604 410 670 q 397 720 382 673 l 404 747 q 421 809 414 781 l 429 842 l 433 860 l 434 869 q 436 881 435 875 q 421 981 441 934 q 335 1061 395 1042 q 276 1067 307 1069 q 227 1055 253 1065 q 158 1017 193 1042 q 66 931 113 984 q 5 851 37 896 l -9 830 l -22 810 q -50 764 -38 786 q -20 800 -37 782 q -5 815 -14 806 l 8 829 q -22 790 -6 812 q -49 748 -37 770 q -66 711 -59 730 q -75 684 -72 696 q -85 640 -82 660 q -88 612 -87 625 q -83 603 -88 595 q -71 630 -81 606 q -61 650 -65 642 q -51 669 -56 661 q -41 682 -45 680 q -39 682 -41 682 l -37 680 q -16 705 -32 676 q -50 604 -39 656 q -44 621 -48 603 l -42 631 l -39 640 q -33 662 -36 652 q -19 696 -26 683 q -14 699 -12 710 q -47 576 -40 649 q -39 604 -45 579 q -34 626 -37 616 q -27 650 -31 640 q -10 690 -20 673 q -1 704 -2 708 q -5 694 -2 701 l -9 687 l -12 680 q -27 643 -22 659 q -37 608 -34 624 q -37 588 -39 591 q -32 609 -37 587 q -27 628 -29 621 q -22 646 -24 639 q -34 566 -35 604 q -27 523 -34 536 q -21 522 -22 511 q -20 528 -20 524 l -20 532 l -20 537 q -18 567 -20 551 q -14 513 -20 532 q 11 489 -7 492 l 11 489 q -5 499 1 491 q -10 508 -7 503 l -14 517 q -5 500 -10 506 q 9 491 1 494 l 7 494 l 5 496 q -3 505 1 499 q -8 517 -5 509 q 3 499 -4 505 q 0 515 1 504 q 3 572 -5 536 q 10 600 5 584 l 14 612 q 17 623 16 619 q 48 697 28 663 q 58 713 53 705 l 64 721 l 71 730 l 100 767 q 227 894 171 852 q 284 924 262 921 q 290 923 288 925 l 290 923 l 290 922 l 290 921 l 291 919 l 292 915 l 293 910 q 293 900 293 905 q 292 895 292 897 l 290 884 q 267 793 283 848 q 270 794 268 793 l 271 795 l 273 795 q 272 783 275 796 q 243 694 264 749 l 235 672 l 227 650 q 213 604 218 625 l 216 597 l 158 444 l 110 296 q 64 147 83 211 q 65 140 68 151 l 53 97 l 49 85 l 45 72 q 38 41 41 56 l 171 10 q 193 65 177 31 l 203 89 q 204 96 204 93 l 204 98 l 203 99 q 238 163 218 128 q 471 548 340 361 q 539 640 506 598 q 576 684 558 664 l 595 705 l 610 722 l 620 732 l 631 743 q 659 760 645 754 q 690 754 680 770 q 694 739 695 748 q 690 723 692 732 q 684 694 688 711 l 682 686 l 680 679 q 674 657 678 669 q 643 559 659 606 q 630 522 637 543 l 623 503 l 616 484 q 588 404 598 433 q 541 246 555 308 q 547 216 547 250 l 547 208 l 546 200 l 546 182 q 547 142 545 159 q 562 79 549 99 q 572 70 568 71 q 576 77 576 70 q 586 65 580 69 q 593 62 590 63 l 595 60 l 595 61 l 597 62 l 598 61 l 600 61 l 600 61 l 600 61 l 600 64 q 611 75 606 69 q 629 92 619 82 q 669 139 669 134 q 693 198 668 158 q 735 256 711 227 q 808 340 766 296 q 899 418 848 381 q 946 450 920 435 q 966 461 956 456 q 973 466 970 464 q 980 469 977 467 q 981 474 990 476 m 600 50 l 599 46 l 599 46 l 599 46 q 600 51 600 49 l 600 50 m 595 59 l 596 58 l 595 60 l 595 59 m 600 49 l 600 50 l 600 51 l 600 51 l 600 50 l 600 49 m 600 51 l 599 48 l 599 46 l 599 48 l 600 50 l 600 51 m 599 46 l 600 49 l 600 47 l 599 46 m 600 51 q 600 52 600 52 q 600 61 600 58 q 600 62 600 63 l 600 61 l 600 60 l 600 60 q 600 61 600 60 l 600 61 l 600 61 q 600 51 600 54 l 600 51 z "},"O":{"ha":720,"x_min":0,"x_max":724,"o":"m 134 829 q 136 829 134 828 l 138 829 l 138 829 q 137 820 141 829 q 122 791 131 807 l 106 764 q 77 705 85 730 l 80 701 q 35 597 52 644 q 0 382 0 481 q 4 378 3 386 l 4 366 l 5 352 q 7 322 5 336 q 18 255 10 286 l 26 235 q 29 230 28 231 l 31 229 l 32 229 q 58 174 43 199 q 203 65 110 97 q 382 62 294 31 q 526 156 459 87 q 624 290 581 212 q 675 418 649 342 q 708 521 696 474 q 724 628 724 582 q 712 646 719 625 l 709 656 l 705 668 q 696 692 701 682 q 678 731 687 718 q 666 734 669 745 q 644 795 656 769 q 632 817 638 808 q 624 826 626 826 q 587 839 613 825 l 581 842 l 573 846 q 557 852 565 850 q 541 856 549 855 l 541 856 l 540 856 q 537 857 540 856 l 533 857 l 534 857 l 533 856 l 528 854 q 515 850 522 853 q 501 843 506 847 q 494 834 496 838 q 493 829 492 831 q 496 827 493 821 q 498 829 497 829 l 500 829 l 501 830 q 506 831 504 831 q 509 829 509 831 q 514 833 511 831 q 522 838 518 836 q 528 840 526 840 l 530 840 l 530 840 l 530 840 l 531 842 q 530 844 531 842 l 529 844 l 530 845 l 533 845 l 534 845 l 534 845 q 534 846 534 847 q 534 843 534 846 l 534 840 l 534 838 l 534 838 l 536 837 l 541 835 q 551 827 544 833 q 574 800 564 817 q 609 714 595 766 q 621 620 623 661 q 568 420 617 528 q 450 246 519 313 q 444 239 447 243 q 435 230 439 235 q 409 209 422 218 q 334 175 372 183 q 236 190 289 164 q 158 271 178 218 q 140 404 135 323 q 167 543 145 468 q 210 659 184 602 q 250 740 229 701 l 258 754 q 297 819 277 788 q 340 877 320 854 q 441 969 385 926 q 528 1022 490 1009 q 485 1018 510 1023 q 532 1031 507 1027 q 549 1033 541 1032 l 556 1034 l 561 1034 q 579 1031 570 1034 l 585 1030 l 590 1029 q 597 1032 597 1027 q 589 1045 596 1037 q 569 1061 580 1054 q 562 1071 559 1064 l 562 1073 q 559 1076 561 1075 q 541 1080 555 1079 q 612 1061 582 1080 q 602 1069 615 1063 q 574 1079 588 1077 q 559 1081 567 1080 l 553 1082 l 547 1082 q 545 1086 538 1083 q 632 1055 601 1084 q 616 1070 631 1060 q 583 1086 600 1082 q 564 1090 574 1089 l 555 1092 l 549 1093 q 536 1095 534 1093 q 557 1095 543 1097 q 588 1086 574 1093 q 603 1080 595 1084 l 609 1077 l 615 1074 q 630 1067 627 1067 q 627 1071 631 1067 q 616 1078 622 1075 q 587 1091 602 1087 q 646 1059 620 1083 q 663 1041 655 1050 l 667 1038 l 669 1034 q 674 1029 673 1031 q 680 1029 682 1020 q 678 1036 680 1033 q 675 1044 677 1040 q 657 1071 668 1057 q 690 1021 675 1053 q 701 994 696 1008 q 709 968 705 983 l 709 969 q 701 998 706 983 q 689 1027 694 1017 q 710 973 701 1003 q 710 983 710 978 q 695 1025 704 1007 q 710 989 704 1008 q 705 1023 709 1004 q 666 1090 690 1063 q 611 1130 641 1119 q 515 1140 567 1147 q 436 1118 477 1135 q 312 1043 376 1093 q 210 945 252 996 q 197 929 203 937 l 187 915 l 168 886 q 134 829 151 859 z "},"P":{"ha":624,"x_min":-94,"x_max":861,"o":"m 718 812 q 612 622 705 724 l 606 623 l 600 624 q 587 627 591 626 q 585 631 576 630 l 555 632 l 526 633 q 466 632 493 633 q 340 620 397 630 q 275 604 304 612 q 221 581 250 596 q 269 705 251 663 l 272 711 q 310 827 302 783 l 313 852 l 315 876 q 299 861 306 867 q 311 897 312 890 q 311 917 314 912 q 394 946 357 936 q 393 948 394 947 l 391 949 q 397 954 389 951 q 450 965 417 962 l 476 968 q 503 972 491 970 l 505 977 q 592 972 550 979 q 661 958 632 970 q 703 928 688 947 q 707 928 705 931 q 720 867 722 909 l 721 854 q 722 851 722 852 l 724 850 q 718 812 723 831 m 368 439 q 254 395 306 405 q 165 398 203 385 l 161 399 q 168 423 164 410 l 177 431 q 182 450 170 434 q 212 483 193 466 l 221 491 l 229 499 q 243 512 239 507 q 243 525 254 524 q 274 539 260 533 q 291 545 281 542 l 300 548 l 307 551 q 345 563 344 562 q 379 591 351 578 q 494 618 420 610 q 555 617 515 619 l 570 616 l 584 616 q 606 616 599 616 l 595 604 q 368 439 494 500 m 850 933 q 796 1034 836 991 q 707 1093 761 1072 q 619 1114 668 1107 q 474 1110 547 1120 q 419 1101 449 1107 q 396 1096 410 1099 l 386 1093 l 376 1091 l 359 1086 q 199 1023 276 1065 q 68 940 132 988 l 57 930 l 45 921 q 23 903 31 908 q -25 860 3 887 q 23 884 2 875 q -55 821 -35 846 q -82 779 -94 779 q -64 786 -78 780 l -52 792 l -40 798 q -30 800 -33 801 q -28 799 -29 800 l -27 797 q -6 802 -23 791 q -56 758 -33 780 q -47 765 -56 757 q -38 773 -44 768 l -28 783 q -5 796 -1 806 q -35 770 -19 787 l -50 756 l -64 742 q -49 752 -60 743 q -38 762 -45 755 l -26 772 q 6 793 5 798 q -7 783 3 790 l -18 775 l -28 768 q -52 742 -54 748 q -41 750 -52 741 l -37 754 l -32 758 q -24 766 -26 764 q -58 728 -44 747 q -75 704 -72 713 q -72 699 -77 696 q -46 718 -66 702 q -60 705 -53 711 q -73 690 -67 696 q -85 667 -87 672 l -85 667 q -81 677 -85 672 l -75 685 l -72 688 l -70 692 q -79 677 -75 685 l -82 673 l -83 669 l -79 671 q -75 677 -79 671 l -71 682 l -67 687 q -74 677 -70 683 l -75 675 l -76 674 q -77 672 -77 672 q -71 674 -75 671 l -68 677 l -63 680 q -28 707 -52 690 l -20 713 l -12 719 q 1 728 -4 724 q 89 794 47 768 q 131 820 104 804 l 151 833 l 171 845 q 138 765 151 798 l 140 764 l 142 764 q 144 760 144 764 q 140 749 142 755 l 133 739 q 123 718 124 726 l 127 715 l 105 679 q 81 606 92 642 q 85 603 85 606 q 79 585 83 596 l 75 575 l 70 565 l 68 558 q 70 556 68 557 l 71 555 q 64 537 68 547 q 22 305 41 432 l 20 278 q 18 252 20 263 q 7 213 16 238 l 1 193 q -4 174 -2 182 q 5 165 2 174 q 9 155 7 161 l 11 145 q 28 122 18 118 q 25 110 26 115 q 22 97 23 102 q 23 81 20 83 q 52 18 50 68 q 50 4 52 12 l 48 -3 l 46 -9 q 43 -28 42 -26 q 47 -30 44 -32 l 49 -27 l 52 -24 q 60 -19 58 -14 l 77 62 l 94 142 q 136 302 115 231 q 172 294 153 296 q 315 305 235 286 q 548 410 427 334 q 558 417 551 412 l 564 422 l 572 427 q 606 452 590 440 q 695 532 654 490 q 793 653 755 592 q 834 735 820 696 q 848 783 843 759 q 856 830 853 805 q 850 933 861 886 z "},"Q":{"ha":698,"x_min":0,"x_max":793,"o":"m 334 136 q 270 138 306 129 q 203 172 233 148 q 222 189 212 182 q 277 213 248 207 l 277 215 l 275 217 q 277 220 275 219 q 292 220 282 223 l 298 218 q 305 218 302 218 l 307 223 q 326 212 316 220 q 361 195 345 208 q 364 197 363 197 q 380 175 369 193 l 383 172 l 386 171 l 388 172 q 393 159 391 166 q 334 136 364 142 m 776 -24 q 711 -41 737 -39 q 667 -37 685 -44 q 591 64 628 -22 q 559 123 581 77 l 555 133 l 551 143 q 624 251 591 191 q 675 378 649 302 q 708 481 696 435 q 724 589 724 543 q 712 607 719 585 l 709 617 l 705 629 q 696 652 701 643 q 678 691 687 678 q 666 694 669 706 q 644 755 656 730 q 632 778 638 768 q 624 786 626 786 q 587 800 613 786 l 581 803 l 573 806 q 557 812 565 810 q 541 816 548 816 l 541 816 l 540 816 q 537 817 540 816 l 533 817 l 534 817 l 533 817 l 528 814 q 515 811 522 814 q 501 803 506 808 q 494 795 496 799 q 493 790 492 791 q 496 787 493 782 q 498 790 497 789 l 500 790 l 501 791 q 506 791 504 791 q 509 789 509 791 q 514 794 511 791 q 522 798 518 797 q 528 800 526 800 q 530 800 530 800 l 530 800 l 531 802 q 530 804 531 803 l 529 805 l 530 805 l 531 805 l 533 805 l 534 806 q 534 806 534 808 l 534 804 l 534 800 l 534 798 l 534 798 l 536 798 l 541 795 q 551 788 544 793 q 574 760 564 777 q 609 674 595 726 q 621 580 623 621 q 568 381 617 489 q 492 254 536 310 q 450 302 473 283 q 377 346 418 332 q 307 359 343 358 q 279 359 293 360 q 257 357 269 358 l 248 355 q 141 302 189 345 q 140 363 138 334 q 167 503 145 429 q 210 620 184 562 q 250 700 229 661 l 258 715 q 297 780 277 748 q 340 838 320 815 q 441 930 385 886 q 528 983 490 969 q 485 979 510 983 q 532 991 507 987 q 549 994 541 993 l 556 994 l 561 994 q 579 991 570 994 l 585 990 l 590 989 q 597 992 597 988 q 589 1006 596 998 q 569 1021 580 1015 q 562 1031 559 1025 l 562 1034 q 559 1036 561 1035 q 541 1041 555 1040 q 612 1022 582 1040 q 602 1030 615 1023 q 574 1040 588 1037 q 559 1042 567 1041 l 553 1042 l 547 1042 q 545 1046 538 1043 q 632 1015 601 1045 q 616 1031 631 1020 q 583 1047 600 1042 q 564 1051 574 1049 l 555 1052 l 549 1053 q 536 1055 534 1054 q 557 1055 543 1057 q 588 1047 574 1053 q 603 1040 595 1044 l 609 1037 l 615 1034 q 630 1027 627 1027 q 627 1031 631 1027 q 616 1039 622 1035 q 587 1052 602 1047 q 646 1019 620 1043 q 663 1002 655 1011 l 667 998 l 669 995 q 674 989 673 991 q 680 990 682 981 q 678 996 680 993 q 675 1005 677 1000 q 657 1031 668 1017 q 690 981 675 1013 q 701 954 696 969 q 709 929 705 943 l 709 929 q 696 971 705 949 q 710 934 705 951 q 710 944 710 938 q 705 962 708 953 l 707 956 l 710 949 q 705 983 709 965 q 666 1050 690 1024 q 611 1090 642 1079 q 515 1100 567 1107 q 436 1078 477 1095 q 312 1004 375 1053 q 210 905 252 956 q 197 889 203 897 l 187 875 l 168 847 q 134 789 151 819 q 136 789 134 789 l 138 789 l 138 789 q 137 781 141 789 q 122 751 131 767 l 106 724 q 77 666 85 690 l 80 661 q 35 558 52 605 q 0 342 0 441 q 4 338 3 347 l 4 326 l 5 313 q 7 283 5 296 q 18 216 10 246 l 26 195 q 29 191 28 192 l 31 189 l 32 189 q 58 134 43 159 q 203 25 110 58 q 382 22 294 -8 q 457 59 420 35 q 518 -35 492 0 l 538 -55 l 558 -74 q 572 -90 566 -83 q 589 -105 581 -98 q 627 -131 609 -123 q 638 -123 627 -125 l 643 -122 l 648 -121 l 659 -119 q 680 -102 686 -114 q 703 -102 691 -104 q 715 -98 715 -101 q 754 -47 719 -70 q 764 -43 758 -45 l 776 -40 q 791 -33 789 -36 q 790 -29 793 -31 l 787 -28 l 783 -28 q 776 -24 773 -28 z "},"R":{"ha":726,"x_min":-174,"x_max":1010,"o":"m 347 437 l 347 419 l 342 428 l 338 437 l 347 437 m 287 431 l 302 432 l 298 431 l 295 429 q 292 420 292 427 l 287 431 m 287 418 q 281 431 286 423 l 286 431 l 288 426 q 290 422 289 423 q 287 418 290 418 m 279 412 q 277 419 278 414 l 275 425 l 275 430 l 276 430 l 278 424 l 280 418 q 279 412 281 412 m 270 430 l 271 425 l 269 430 l 270 430 m 172 463 q 149 459 161 460 q 188 642 160 527 q 222 778 204 710 q 251 872 240 842 l 252 880 q 273 949 264 918 q 289 953 280 951 q 313 955 298 954 l 336 956 q 360 960 349 958 l 362 966 q 444 968 397 968 q 593 969 528 975 q 597 972 591 972 q 668 957 627 971 l 680 954 q 683 954 682 954 l 684 956 q 711 942 699 949 q 772 890 753 923 q 781 814 793 854 q 726 726 769 773 q 633 650 688 687 q 543 594 587 615 q 463 566 510 579 q 382 548 424 555 q 370 534 385 543 q 334 518 358 527 l 324 514 l 315 511 q 300 504 305 507 q 296 492 288 496 q 268 490 286 490 l 253 489 l 239 488 q 205 484 208 487 q 172 463 197 471 m 1001 25 q 709 132 808 80 q 655 156 693 136 q 570 208 610 180 q 491 275 530 237 q 443 328 458 307 l 439 332 l 431 342 l 423 352 l 408 373 q 376 410 389 397 l 361 423 l 347 437 q 412 450 383 443 q 614 517 516 472 q 800 635 724 568 l 804 640 l 808 644 q 819 655 814 650 q 846 686 833 670 q 861 707 854 698 q 876 731 869 719 q 903 796 893 762 q 907 881 913 840 q 896 926 905 901 q 876 966 888 947 q 740 1076 832 1040 q 585 1110 673 1103 q 446 1111 522 1116 q 357 1102 402 1108 q 286 1091 323 1098 q 281 1113 290 1114 q 272 1108 278 1112 l 267 1104 l 260 1101 q 255 1098 258 1098 l 253 1099 l 251 1099 q 239 1094 245 1102 l 250 1122 q 246 1118 248 1124 l 244 1113 l 243 1107 q 235 1097 237 1091 q 241 1114 238 1103 l 243 1124 l 246 1133 q 241 1126 244 1132 l 237 1120 l 235 1113 q 224 1097 227 1095 q 228 1105 224 1099 l 231 1109 l 234 1115 q 237 1131 241 1128 q 234 1126 237 1132 l 231 1120 l 229 1116 q 236 1154 238 1145 q 220 1145 234 1165 q 224 1154 221 1148 l 229 1163 q 237 1183 235 1176 l 236 1183 l 234 1177 l 231 1172 q 227 1162 227 1164 l 234 1182 l 230 1179 q 222 1164 224 1171 l 227 1178 q 216 1169 222 1175 l 208 1159 l 200 1149 q 189 1133 191 1139 l 174 1097 l 161 1059 q -23 981 54 1024 q -111 921 -69 954 q -68 935 -89 929 q -141 890 -125 907 q -169 862 -162 872 q -168 854 -174 854 q -152 858 -165 854 l -140 861 l -129 865 q -120 865 -122 867 l -118 863 l -117 861 q -98 863 -114 856 q -144 831 -125 846 q -136 836 -144 829 l -132 838 l -127 842 l -119 848 q -102 859 -108 856 q -98 857 -95 862 q -126 838 -111 850 l -139 827 l -151 817 q -138 824 -149 817 l -133 827 l -128 831 l -117 838 q -87 852 -88 857 q -100 844 -90 850 l -110 840 l -119 834 q -141 815 -142 821 q -132 821 -140 814 l -127 824 l -123 827 q -115 832 -118 831 q -146 804 -134 819 q -157 785 -156 791 q -154 780 -159 779 q -134 793 -150 781 q -144 783 -140 787 q -153 773 -150 777 q -160 755 -161 763 l -160 755 q -157 765 -160 760 q -151 774 -155 769 q -158 756 -157 765 l -155 759 q -148 770 -153 762 q -153 760 -151 764 l -148 762 l -142 764 q -118 780 -136 770 l -111 783 l -104 787 q -94 793 -98 791 q 77 877 -35 833 l 109 889 q 102 867 102 876 l 106 865 l 87 822 q 67 736 76 779 q 71 734 71 737 q 66 713 70 727 l 62 702 l 58 690 l 57 682 q 58 680 58 681 l 60 679 q 54 659 58 670 q 32 470 43 583 q 8 479 21 474 q -14 488 -2 483 q -43 500 -41 500 q -32 488 -56 504 q -21 474 -11 473 q 31 456 3 464 l 24 395 l 24 366 q 22 336 24 349 q 12 292 20 319 l 6 269 q 1 248 3 256 q 11 238 7 248 q 14 227 12 234 l 16 216 q 33 191 23 186 q 30 177 31 182 q 27 162 28 168 q 28 144 25 146 q 55 73 55 131 q 53 58 55 66 l 51 50 l 49 43 q 45 22 45 25 q 54 27 47 18 l 56 31 l 59 33 q 62 32 61 35 q 83 131 71 74 l 102 231 q 144 432 127 355 q 199 429 172 429 l 214 428 l 228 429 q 230 410 228 415 q 326 241 264 319 l 328 243 l 329 245 q 333 245 330 247 q 340 235 337 241 l 347 226 q 361 207 353 212 l 365 209 l 376 193 l 388 176 q 446 128 415 150 q 449 130 447 132 q 463 119 454 127 l 471 113 l 479 105 l 485 102 q 488 102 486 102 l 489 104 l 496 98 l 503 92 q 707 11 590 46 l 731 7 q 754 1 745 4 q 788 -12 766 -3 l 806 -20 q 822 -27 815 -24 q 831 -18 823 -22 q 840 -16 835 -17 l 850 -14 q 873 1 875 -10 q 884 -3 879 -1 q 895 -7 890 -5 q 909 -7 907 -9 q 968 18 923 19 q 980 16 973 18 l 986 14 l 991 12 q 1006 8 1005 7 q 1004 16 1010 9 l 1002 19 l 1000 21 q 1001 25 998 24 z "},"S":{"ha":570,"x_min":-37,"x_max":743,"o":"m 416 349 q 332 216 406 286 q 213 129 277 158 q 188 119 202 124 q 165 113 176 115 q 119 113 140 109 q 83 136 94 119 q 83 156 79 145 q 87 165 84 161 l 90 170 l 92 174 q 87 189 81 171 q 113 228 94 206 l 122 239 l 132 249 q 146 266 142 261 q 146 280 159 281 q 180 302 159 290 q 217 321 195 311 q 259 345 258 343 q 297 382 264 363 q 352 406 322 397 q 389 414 370 412 q 406 400 400 407 q 416 349 421 382 m 736 1050 q 715 1112 732 1084 q 667 1164 698 1144 q 551 1194 619 1196 q 553 1192 551 1194 l 555 1191 l 555 1190 q 543 1187 557 1188 q 456 1173 499 1182 q 414 1161 431 1167 q 375 1142 393 1153 l 373 1136 q 256 1068 315 1107 q 76 889 144 981 q 76 882 81 890 l 68 871 l 59 857 q 40 827 49 842 q 9 742 16 782 q 7 714 7 730 q 9 707 8 709 l 10 705 l 11 704 q 22 626 10 661 q 97 532 44 569 q 189 486 134 506 q 233 472 208 479 l 254 466 l 275 460 q 353 435 327 445 l 360 431 q 245 400 306 424 q 106 326 172 372 q 73 301 90 314 l 66 294 l 54 284 q 28 260 39 272 q -32 156 -24 205 q -29 103 -37 128 q -1 57 -21 77 q 104 11 41 17 q 170 13 135 7 q 203 20 186 16 q 210 22 207 22 l 213 23 l 216 24 l 226 27 q 302 61 264 41 q 433 159 375 101 q 528 311 505 234 l 530 321 q 532 332 532 326 q 535 361 534 347 q 532 392 535 374 q 559 376 547 385 q 597 339 578 361 l 603 332 q 608 324 606 328 q 616 314 615 316 q 621 315 623 307 q 616 326 619 318 q 607 340 612 333 q 597 354 604 346 l 593 359 q 589 365 591 363 q 594 365 584 373 q 530 410 567 393 q 518 441 526 426 q 455 515 498 485 q 374 557 423 538 q 333 572 357 564 l 292 585 q 216 613 242 602 q 161 649 178 630 q 143 698 145 668 l 143 706 l 144 714 l 144 719 l 144 722 l 146 728 q 157 759 149 742 q 205 827 174 789 q 330 945 256 887 q 450 1022 395 996 q 498 1040 471 1033 q 536 1048 517 1046 q 551 1050 545 1049 q 577 1048 566 1050 q 589 1042 587 1045 q 593 1032 591 1040 q 595 1007 596 1023 q 573 941 591 977 q 535 881 557 909 q 444 791 496 829 q 494 815 467 800 q 441 781 472 798 q 429 774 435 777 q 418 768 425 772 q 404 761 406 762 q 389 754 397 758 q 378 749 385 752 q 362 743 366 745 q 358 736 353 739 q 409 733 368 730 q 420 733 418 734 q 422 731 422 732 l 422 728 q 448 730 424 722 q 368 704 407 711 q 382 705 367 702 q 414 715 399 709 q 430 721 420 717 l 437 724 l 442 726 q 447 724 452 729 l 435 719 l 423 714 q 398 705 410 709 q 347 695 370 696 q 370 694 351 692 q 410 703 391 697 q 429 710 419 706 l 438 713 l 446 715 q 459 719 460 721 q 406 700 444 709 q 389 696 398 699 l 381 694 l 374 693 q 358 688 359 690 q 373 688 357 686 q 402 695 389 691 q 336 682 371 684 q 311 680 323 680 l 293 680 q 289 675 279 680 q 296 673 292 673 q 307 669 301 671 q 340 665 322 666 q 274 674 307 664 q 211 701 244 682 l 211 701 q 257 678 229 689 q 214 697 232 687 q 224 688 218 694 q 275 667 248 673 q 229 684 250 673 q 266 662 245 671 q 349 646 304 647 q 412 652 386 644 q 568 731 490 673 q 632 788 604 758 q 687 859 663 821 q 726 943 713 901 q 736 1050 743 1000 z "},"T":{"ha":378,"x_min":-231,"x_max":987,"o":"m 968 1067 q 517 1109 790 1104 q 429 1105 507 1108 q 360 1101 390 1103 q 282 1095 318 1099 q 128 1078 213 1090 q 65 1068 97 1074 q 20 1061 42 1065 l 12 1059 q -136 1013 -79 1042 q -189 980 -160 1000 q -162 981 -174 981 q -206 961 -199 969 q -223 940 -231 945 q -212 937 -220 938 l -204 936 l -197 935 q -191 932 -193 935 l -190 930 l -189 928 q -177 924 -187 922 q -206 911 -194 917 q -201 911 -206 909 l -195 914 l -189 917 q -176 918 -174 924 q -194 911 -184 917 l -202 906 l -210 902 q -201 903 -208 901 l -195 905 l -188 907 q -170 911 -170 914 q -178 908 -172 909 l -183 907 l -189 905 q -203 896 -204 901 q -197 897 -203 895 l -191 900 l -186 902 q -216 878 -212 888 q -199 875 -220 869 l -206 871 l -215 867 q -226 860 -224 863 l -226 859 q -220 863 -224 861 l -216 865 l -212 867 q -224 859 -220 863 l -220 857 q -211 862 -216 859 q -218 857 -216 859 q -208 855 -215 856 l -198 857 l -187 858 q -171 861 -175 859 q 39 917 -96 890 l 37 919 l 37 921 q 39 924 36 923 q 66 928 49 928 l 80 928 q 94 930 87 928 l 94 935 l 118 936 l 142 936 l 230 950 q 231 954 228 953 q 248 956 237 956 q 197 827 220 893 l 200 827 l 202 827 q 204 823 204 827 q 199 810 203 817 l 193 798 q 182 772 184 782 l 186 769 l 165 726 q 143 640 153 682 q 146 637 146 640 q 140 616 145 629 l 136 604 l 132 592 l 131 584 q 132 582 131 583 l 134 581 l 130 570 l 127 560 q 90 292 110 456 l 89 262 q 87 232 89 245 q 77 186 84 216 l 71 163 q 65 142 67 150 q 75 132 71 142 q 77 121 76 127 l 80 109 q 97 84 87 79 q 94 69 95 76 q 92 55 92 61 q 92 37 89 39 q 121 -35 119 24 q 119 -49 121 -41 l 118 -56 l 117 -64 q 115 -81 113 -79 q 119 -81 117 -84 l 121 -79 l 123 -77 l 125 -73 l 127 -71 q 131 -72 130 -69 q 138 -26 133 -53 l 142 -1 l 146 24 l 166 125 q 212 330 191 246 q 260 541 216 378 q 300 677 278 608 q 332 772 319 741 l 334 779 q 357 848 347 817 q 374 911 369 886 l 382 966 q 365 948 371 954 q 376 975 373 966 q 583 998 482 991 q 644 1006 623 1005 q 692 1002 663 1006 l 717 999 l 729 998 l 740 996 q 749 1007 739 1002 q 760 1011 753 1009 l 771 1015 q 796 1034 802 1024 l 804 1033 l 812 1031 q 827 1030 821 1030 q 846 1031 845 1028 q 867 1051 852 1044 q 923 1061 887 1061 q 940 1059 930 1061 l 948 1057 l 957 1055 q 981 1050 977 1050 q 975 1059 987 1052 l 970 1062 l 967 1064 q 968 1067 964 1067 z "},"U":{"ha":1045,"x_min":-100,"x_max":1112,"o":"m 1108 408 q 1103 395 1106 405 l 1100 388 l 1097 380 q 1086 353 1090 360 q 1084 357 1082 344 q 957 122 1041 195 l 956 122 q 947 129 951 125 q 936 140 941 134 q 916 243 917 157 q 945 540 913 361 q 977 690 959 616 q 996 762 987 730 q 1007 796 1002 782 q 1013 810 1010 804 l 1014 815 l 1015 815 l 998 825 l 993 827 l 989 830 l 981 835 q 967 845 972 840 l 895 909 l 891 905 q 864 868 878 888 l 852 850 l 841 833 l 797 763 l 710 625 q 686 585 699 606 q 650 528 669 557 q 547 372 601 450 q 402 190 466 258 q 316 114 353 137 q 296 103 307 107 q 284 100 288 100 l 283 100 l 283 100 l 282 101 l 281 102 q 277 112 279 104 q 273 131 273 120 q 275 185 271 155 q 306 309 283 237 q 350 431 324 364 q 397 547 367 474 q 539 911 520 836 q 546 944 543 928 q 550 999 551 975 q 543 1036 549 1017 q 520 1076 536 1059 q 489 1102 506 1094 q 451 1114 471 1112 q 397 1109 426 1116 q 327 1080 366 1101 q 220 1006 277 1053 q 62 848 134 936 q -54 667 -9 758 q 3 739 -28 705 q -53 652 -28 697 q -82 587 -76 609 q -95 539 -91 562 q -99 510 -98 523 q -94 499 -100 490 q -89 511 -93 503 l -85 519 l -81 529 q -59 569 -69 554 q -49 583 -52 581 q -46 583 -47 583 l -44 581 q -22 607 -39 577 q -60 501 -50 549 q -54 519 -60 500 q -49 539 -52 531 q -41 562 -45 551 q -25 597 -33 583 q -20 600 -17 612 q -57 472 -54 538 q -50 501 -57 473 q -45 524 -47 513 q -36 549 -41 538 q -16 592 -27 572 q -5 606 -7 610 q -11 595 -7 603 l -15 588 l -19 580 q -37 542 -31 557 q -48 505 -45 522 q -48 484 -51 488 q -43 506 -48 484 q -37 526 -41 515 q -32 544 -35 536 q -44 463 -47 498 l -43 455 q -42 448 -43 451 q -39 439 -41 444 q -35 433 -37 436 q -31 429 -33 431 q -25 431 -22 422 l -26 435 q -28 441 -27 438 q -28 464 -29 445 l -28 458 l -27 451 q -26 443 -27 447 q -16 427 -23 435 q 19 418 0 410 l 18 418 q -1 418 9 415 q -18 431 -9 422 q 16 419 -3 414 l 9 421 q -12 432 -2 422 q 7 423 -3 424 q -5 435 -1 427 q -9 444 -7 439 q -10 449 -11 447 l -10 452 q -9 456 -9 452 l -7 470 q -1 496 -5 481 l 3 509 l 5 514 l 7 519 q 87 667 28 585 q 205 804 138 736 q 341 920 275 873 q 410 961 379 947 q 384 880 405 930 l 375 859 l 366 836 q 347 789 354 810 l 349 782 q 313 705 336 751 l 294 665 l 275 625 l 243 547 q 213 469 226 504 q 159 306 180 380 q 161 298 164 311 l 159 289 l 157 279 l 152 259 q 142 213 146 234 q 136 159 138 180 q 140 96 134 127 q 153 54 145 71 q 160 43 157 47 q 162 41 161 42 l 164 39 q 214 -14 182 6 q 287 -34 247 -35 q 336 -24 312 -33 q 373 -6 352 -18 q 431 37 401 10 q 522 131 473 73 q 669 335 587 211 q 770 496 715 405 l 819 579 l 869 663 q 819 385 831 495 q 828 354 825 389 q 829 337 829 347 l 831 318 q 834 277 832 292 q 846 207 838 234 q 859 198 854 179 q 867 146 861 168 q 890 102 876 117 q 919 76 903 85 q 930 71 925 72 q 935 70 934 69 q 942 73 937 71 l 951 76 q 968 88 963 81 q 971 93 969 90 q 975 98 972 94 l 977 101 l 979 104 l 985 111 l 990 117 q 1001 133 996 125 q 1050 220 1029 173 q 1090 323 1074 273 q 1103 372 1097 347 q 1111 405 1109 392 q 1108 408 1112 418 z "},"V":{"ha":414,"x_min":-117,"x_max":1145,"o":"m 1137 1181 q 1130 1196 1134 1187 l 1127 1202 q 1124 1206 1125 1205 q 1129 1206 1120 1215 q 1053 1270 1100 1247 q 967 1292 1014 1288 q 817 1271 897 1297 q 586 1126 696 1229 q 422 924 507 1051 q 295 707 361 831 q 279 671 291 698 l 273 660 l 267 647 q 254 618 260 631 q 186 466 216 538 q 163 412 176 442 l 161 428 l 160 443 l 158 460 q 96 787 140 651 q 49 907 77 844 q 56 852 54 877 q 23 951 37 928 q -7 994 -3 1006 q -7 974 -7 989 l -5 960 l -5 945 q -5 935 -3 937 q -7 934 -6 934 l -10 933 q -12 911 -16 932 q -36 977 -24 946 q -33 965 -37 977 q -28 953 -31 961 l -23 939 q -18 912 -9 904 q -32 952 -22 929 l -40 972 l -49 991 q -44 972 -49 987 q -39 958 -43 967 l -34 942 q -24 902 -20 901 q -30 920 -26 906 l -33 932 l -37 946 q -53 980 -47 979 q -49 966 -54 981 l -47 960 l -44 954 q -40 942 -41 945 q -63 991 -51 970 q -81 1019 -74 1011 q -77 984 -93 1032 l -81 994 l -86 1004 q -95 1025 -91 1016 q -117 1065 -106 1050 l -117 1064 q -105 1042 -112 1057 l -99 1030 l -96 1025 l -94 1021 q -117 1061 -106 1043 l -115 1052 l -100 1021 q -115 1048 -106 1034 q -109 1021 -112 1035 q -100 996 -104 1010 q -94 972 -98 987 q -84 934 -87 942 q 14 450 -20 749 q 16 451 15 450 l 18 452 q 22 446 20 454 q 26 385 26 422 l 26 355 q 28 323 26 338 l 33 321 q 32 216 34 277 q 31 58 36 113 l 175 34 q 177 44 176 37 q 181 58 179 51 q 178 63 177 56 q 193 108 182 80 q 202 134 197 118 l 212 161 l 218 177 q 218 182 218 180 l 217 183 l 216 184 q 235 229 224 203 q 465 786 345 557 q 529 903 499 857 q 665 1059 586 991 q 670 1079 659 1061 q 700 1116 681 1094 l 709 1124 l 717 1133 q 730 1148 726 1143 q 729 1162 741 1162 q 760 1179 741 1170 q 792 1196 772 1186 q 829 1215 828 1213 q 838 1230 831 1223 q 863 1249 847 1240 q 913 1268 885 1261 q 1002 1272 958 1278 q 1097 1221 1058 1262 q 1126 1181 1114 1204 q 1135 1166 1131 1175 l 1137 1162 l 1138 1160 q 1140 1155 1139 1156 q 1144 1155 1145 1148 q 1142 1165 1144 1158 q 1137 1181 1139 1173 z "},"W":{"ha":1110,"x_min":-105,"x_max":1272,"o":"m 220 604 l 218 599 l 219 602 l 220 604 l 220 604 m 410 975 l 408 975 l 406 977 q 410 981 404 978 l 410 975 m 1255 1102 q 1242 1074 1246 1081 q 1239 1078 1236 1064 q 1078 690 1174 905 q 892 323 967 444 q 866 284 878 300 l 865 282 l 865 282 l 865 281 l 864 281 l 863 281 l 863 281 l 862 282 q 861 289 861 284 q 858 311 859 301 q 855 409 854 353 q 869 614 857 496 q 882 719 875 662 l 897 829 l 750 862 q 726 802 743 842 q 707 755 718 782 q 677 686 693 722 q 588 498 635 593 q 459 270 519 362 q 376 162 413 200 l 374 160 l 375 165 q 387 237 379 195 q 423 383 399 294 l 443 456 l 463 527 q 499 665 486 614 q 549 918 541 828 q 539 1043 554 997 q 520 1080 532 1064 q 483 1113 505 1101 q 460 1122 473 1118 q 439 1126 448 1125 q 419 1126 429 1126 l 411 1125 l 403 1124 q 357 1109 382 1120 q 217 1014 296 1081 q 100 897 157 962 q -66 646 -13 768 q -100 522 -94 578 q -99 450 -105 482 q -94 431 -98 444 q -91 420 -93 426 q -87 411 -88 414 l -87 410 l -85 408 l -83 403 q -77 392 -80 396 q -62 372 -71 382 q -83 410 -76 389 l -85 416 l -87 426 q -89 435 -88 430 l -90 443 q -87 499 -93 469 q -82 429 -91 460 l -79 418 l -77 412 l -75 409 q -74 405 -75 406 l -73 404 l -73 403 l -68 393 q -37 363 -56 374 q -2 350 -21 353 q 28 349 12 348 q 50 353 39 350 q 65 358 58 355 q 117 382 95 368 q 133 393 125 388 l 138 398 l 143 402 q 149 413 159 416 q 135 408 145 412 l 131 407 l 126 405 l 115 401 q 66 387 86 390 q 47 386 50 384 q 45 388 45 387 l 45 391 q 40 394 45 393 q 35 395 38 395 l 32 395 l 28 395 q 9 397 19 395 q 68 407 35 395 q 123 436 95 418 q 104 427 123 437 q 84 415 93 420 q 60 406 71 409 q 37 399 49 401 q 20 398 28 397 q 11 399 13 398 q 15 401 9 401 q 83 418 43 399 q 145 460 111 433 q 116 443 144 460 q 93 430 104 435 q 67 418 79 422 q 21 408 40 407 q 9 410 13 408 q 6 412 5 412 l 10 412 l 16 412 q 31 412 24 411 q 73 422 51 413 q 111 442 94 431 q 128 458 127 453 q 106 445 129 458 q 87 433 95 437 q 68 425 75 427 q 146 477 109 443 q 169 503 159 490 q 182 520 178 512 q 181 527 191 535 q 164 513 180 526 q 151 503 157 507 q 134 489 142 496 q 187 543 166 515 q 218 597 210 570 q 201 566 213 584 q 182 537 191 549 q 217 600 208 571 l 210 591 q 181 545 201 570 q 206 586 197 566 q 180 555 194 570 q 115 500 154 525 q 84 481 100 490 q 60 469 73 475 q 25 458 40 460 l 24 458 l 24 458 l 24 459 l 23 463 q 24 497 21 476 q 108 677 35 571 q 248 846 167 764 q 329 919 290 886 q 410 974 376 957 l 410 962 q 407 912 410 946 l 411 906 q 368 725 401 842 q 322 549 353 665 l 298 460 q 275 370 286 410 q 277 361 280 375 q 268 321 275 348 l 262 298 l 256 273 q 237 161 243 212 q 236 122 235 139 q 238 111 237 115 l 239 108 l 241 106 q 248 68 242 85 q 258 43 252 54 q 281 18 268 28 q 316 1 297 5 q 325 -1 321 0 l 329 -1 l 331 -1 l 336 -1 l 342 -2 q 354 -1 345 -2 q 367 1 363 0 q 385 7 378 4 q 422 27 405 15 q 437 38 429 32 l 450 50 q 494 96 471 69 q 562 193 526 136 q 673 394 614 275 q 759 578 717 484 q 755 385 753 465 q 760 288 756 326 q 764 262 762 274 q 771 231 768 243 q 798 176 781 197 q 851 152 819 149 q 905 176 880 154 q 946 220 924 191 q 972 258 960 239 q 981 292 966 256 q 988 310 984 299 l 993 319 l 997 330 q 1015 372 1008 355 q 1042 446 1036 421 q 1037 461 1051 476 q 1092 574 1065 515 q 1118 642 1120 636 q 1192 916 1107 681 q 1215 976 1200 937 l 1228 1008 q 1241 1040 1236 1027 q 1270 1123 1270 1112 q 1267 1127 1272 1138 l 1255 1102 z "},"X":{"ha":458,"x_min":-16,"x_max":790,"o":"m 790 1075 q 772 1076 781 1076 q 755 1076 761 1076 q 787 1077 772 1078 l 782 1080 q 756 1080 767 1082 q 779 1082 768 1082 q 759 1088 769 1086 q 693 1086 711 1092 q 560 1017 631 1065 q 452 930 507 980 l 454 928 l 456 927 q 455 922 458 926 q 443 911 450 916 l 430 901 q 405 880 412 889 l 407 875 l 363 840 q 295 759 328 800 q 297 755 299 758 q 281 735 292 747 l 271 724 l 260 713 l 256 705 q 256 703 255 704 l 256 701 l 239 682 l 229 665 l 218 648 q 214 696 214 677 l 212 705 l 209 748 q 208 790 208 763 l 207 812 l 206 833 q 203 873 205 857 q 193 943 200 899 q 183 914 188 926 q 182 970 186 960 q 171 998 178 1003 q 163 988 168 996 l 159 981 l 155 973 q 151 968 153 969 l 148 968 l 146 968 q 136 957 140 968 l 138 996 q 136 989 136 996 l 136 974 q 132 959 136 953 q 132 982 133 968 l 132 994 l 131 1006 q 128 995 129 1004 l 127 987 l 126 977 q 121 955 125 954 q 122 965 121 958 l 123 972 l 125 980 q 123 1001 127 999 q 121 993 122 1001 l 121 985 l 121 979 q 113 1026 119 1015 q 102 1008 106 1037 q 102 1019 102 1012 l 102 1031 q 101 1053 103 1046 l 100 1053 q 101 1042 101 1050 l 101 1029 q 99 1051 100 1042 l 96 1047 q 96 1030 96 1038 q 95 1045 96 1040 q 89 1032 92 1040 l 85 1019 l 81 1005 q 77 983 77 989 l 67 845 q 64 771 64 801 q 65 731 64 747 l 68 694 l 70 695 l 72 696 q 76 692 75 697 q 78 674 77 684 l 77 656 q 79 621 76 634 l 84 620 l 85 590 l 86 559 q 107 458 94 514 l 94 434 l 81 409 l 67 376 q 52 345 59 357 q 24 298 44 329 l 9 274 q -4 252 1 261 q 1 238 1 251 q 1 226 1 233 l -1 212 q 7 180 -5 178 q -8 150 -3 163 q -13 130 -16 132 q -1 49 7 113 q -4 35 -1 43 l -5 28 l -7 23 l -8 18 q -7 16 -8 16 q -3 16 -5 12 q -2 17 -3 17 l 0 18 l 4 19 q 7 18 6 19 q 10 33 8 22 q 18 55 14 45 q 37 104 25 77 q 89 208 58 151 q 153 317 119 262 q 218 190 178 257 q 323 45 268 109 q 352 18 335 33 l 380 -9 l 391 -19 l 401 -30 q 425 -51 414 -42 q 477 -87 454 -75 q 492 -81 478 -81 l 499 -80 l 506 -80 q 522 -79 515 -79 q 545 -71 537 -77 q 548 -60 553 -65 q 578 -53 562 -60 q 593 -41 595 -45 q 594 -14 590 -29 q 613 35 597 1 q 622 49 616 40 l 627 56 l 632 64 q 644 86 644 81 q 641 89 644 90 q 637 86 640 88 l 633 83 q 623 79 623 73 q 565 7 593 24 q 545 1 555 1 q 517 8 534 0 q 440 73 482 25 q 371 172 404 115 q 351 202 363 182 q 322 254 336 226 q 264 402 281 336 q 248 467 256 433 q 356 613 298 541 q 462 736 404 675 q 543 816 513 790 l 549 822 l 664 924 l 684 944 q 705 964 696 956 l 680 960 l 693 966 l 699 970 l 705 972 q 721 983 718 979 q 737 1002 743 996 q 727 1006 734 1004 l 720 1007 l 712 1009 q 706 1011 708 1009 l 705 1013 l 704 1015 q 691 1020 702 1021 q 726 1032 709 1027 q 719 1032 725 1034 q 713 1029 716 1031 l 705 1027 q 690 1025 687 1019 l 701 1029 l 711 1033 q 733 1041 725 1039 q 722 1042 730 1043 q 705 1037 716 1040 q 682 1032 683 1029 q 692 1036 685 1034 l 699 1038 l 707 1039 q 726 1048 726 1044 q 718 1047 726 1049 q 704 1042 710 1045 q 720 1049 711 1046 l 727 1052 l 733 1055 q 751 1063 748 1061 q 752 1069 758 1067 q 728 1071 746 1072 q 758 1074 740 1074 q 790 1075 771 1075 l 790 1075 z "},"Y":{"ha":667,"x_min":-168,"x_max":767,"o":"m 351 155 q 346 128 359 156 q 309 73 332 100 q 260 33 283 40 q 248 31 255 32 l 244 31 l 241 31 q 239 28 238 31 q 247 22 241 25 q 216 47 226 26 l 214 50 q 213 54 214 52 q 210 63 211 59 q 209 81 208 71 q 219 113 211 97 q 236 135 225 123 q 253 152 244 144 q 268 164 260 158 q 283 177 283 176 q 295 196 286 186 q 329 223 307 210 q 397 252 359 241 q 415 257 403 254 q 351 155 382 197 m 760 931 l 746 938 l 747 940 l 663 988 l 663 986 l 661 984 l 640 996 q 480 717 561 838 q 370 575 420 627 q 309 526 336 540 q 295 519 302 522 q 297 543 295 530 q 319 623 302 573 q 349 705 329 652 l 363 746 l 378 786 q 416 941 410 881 q 413 1023 420 987 q 377 1101 403 1072 q 343 1128 362 1118 q 243 1136 298 1152 q 217 1126 231 1133 q 196 1116 205 1122 q 164 1097 180 1108 q 61 1008 113 1063 q -79 820 -18 924 q -155 648 -129 728 q -113 717 -136 683 q -165 569 -165 620 q -158 515 -168 538 q -147 496 -153 505 q -136 486 -142 490 q -123 478 -127 478 q -123 482 -120 478 l -125 485 l -127 488 q -132 494 -130 492 q -140 514 -137 505 q -139 559 -146 536 q -133 573 -136 571 q -130 573 -132 574 l -128 572 q -112 597 -123 570 q -121 551 -121 569 q -107 512 -121 527 q -109 515 -106 512 l -109 517 l -111 519 l -114 524 q -120 557 -121 538 q -113 589 -118 575 q -109 592 -108 604 q -115 539 -120 561 q -86 507 -110 515 q -92 511 -87 508 l -96 515 l -101 519 q -111 549 -111 530 q -104 585 -110 566 q -96 599 -98 603 q -99 589 -97 596 l -101 583 l -104 575 q -109 545 -109 556 q -101 523 -109 531 q -90 517 -94 515 q -93 520 -90 518 l -96 523 l -98 526 q -104 547 -104 534 q -77 517 -102 520 q -57 519 -67 517 q -44 524 -48 522 q -43 530 -35 530 q -49 530 -45 530 l -56 530 q -74 534 -66 531 q -58 533 -67 532 q -37 538 -46 534 q -12 563 -16 547 l -12 562 q -23 548 -15 555 q -41 538 -31 542 q -14 561 -20 547 l -20 558 q -41 543 -26 550 q -22 557 -29 549 l -26 555 l -31 554 q -41 551 -36 552 q -61 549 -50 548 l -60 551 l -60 554 q -58 564 -60 559 q -47 598 -55 578 q -11 672 -33 631 q 83 815 29 744 q 196 940 141 891 q 257 985 229 968 q 264 989 260 987 l 267 990 l 269 991 l 269 991 l 271 991 l 272 994 l 273 996 q 275 999 273 998 q 277 997 277 998 q 279 994 279 996 l 279 991 q 278 984 278 991 q 269 918 278 971 l 273 913 q 223 779 262 871 l 212 745 l 199 711 q 176 639 185 670 q 157 558 162 592 q 155 507 154 532 q 160 476 157 490 q 175 441 165 458 q 186 431 174 448 q 213 406 197 416 l 221 401 l 223 399 l 228 397 l 230 397 l 233 395 l 243 391 q 315 385 277 379 q 418 435 364 394 q 440 454 428 442 q 445 460 444 458 l 446 463 l 446 464 q 499 519 470 487 q 538 571 519 543 q 490 416 512 476 q 428 279 465 350 q 264 231 340 271 q 216 199 237 216 q 170 147 186 174 q 152 104 157 127 q 153 46 144 75 q 159 28 154 38 l 161 22 l 164 16 l 165 15 l 168 11 l 172 4 q 185 -11 176 -2 q 224 -34 201 -26 q 245 -38 235 -37 q 264 -39 256 -39 q 294 -33 281 -37 q 305 -28 300 -31 l 315 -23 q 345 -4 328 -17 q 386 34 365 12 q 446 111 415 66 q 530 261 490 177 q 642 212 595 250 q 685 168 665 194 q 699 149 691 160 l 701 146 l 703 142 q 707 137 705 138 q 711 136 714 127 q 706 149 710 141 q 696 167 701 159 q 685 184 692 174 l 680 191 q 675 197 677 195 q 681 197 669 206 q 579 263 639 241 q 536 275 561 270 q 604 436 568 340 q 719 770 652 562 l 738 836 l 753 884 l 761 909 l 765 922 l 767 927 l 767 928 l 767 928 l 767 928 l 760 931 z "},"Z":{"ha":684,"x_min":-110,"x_max":1015,"o":"m 395 99 l 395 101 l 396 102 q 393 94 393 94 q 394 96 393 93 q 395 98 395 100 l 395 99 m 127 292 l 153 320 q 225 395 186 355 q 443 591 328 497 q 724 789 591 711 q 973 899 863 871 q 1004 898 990 899 l 1003 905 l 1009 906 l 1015 907 l 1004 1040 l 999 1040 l 994 1040 l 993 1048 l 988 1048 q 945 1038 968 1044 q 912 1036 930 1038 l 897 1034 l 882 1033 q 828 1029 844 1029 q 712 1029 768 1025 l 689 1029 q 468 1061 598 1037 q 244 1085 326 1087 q 56 1043 134 1082 q 137 1057 96 1055 q 48 1030 87 1049 q 15 1012 31 1022 q -6 996 2 1003 q -37 965 -24 980 q -45 953 -41 959 q -51 944 -48 949 q -51 934 -58 930 q -42 940 -48 935 l -35 944 l -28 949 q 5 970 -8 963 q 20 975 16 975 q 21 972 20 974 l 22 970 q 50 977 24 966 q -21 918 9 954 q -9 929 -21 917 q 3 941 -3 936 q 17 954 10 949 q 44 972 32 966 q 50 971 57 979 q -31 895 5 949 q -13 913 -28 896 q 1 927 -5 921 q 17 942 9 936 q 48 963 32 954 q 62 967 63 970 q 54 962 60 966 l 48 959 l 42 956 q 14 937 25 946 q -9 914 0 926 q -18 899 -18 903 q -5 913 -18 899 q 7 925 2 920 q 19 936 14 932 q -24 880 -7 911 q -35 857 -31 869 q -40 842 -39 848 q -36 836 -42 830 q -9 873 -35 839 q -56 766 -45 820 l -56 766 q -45 798 -52 778 q -33 828 -39 815 q -53 770 -45 801 l -47 779 q -31 823 -40 799 q -43 784 -38 803 l -26 814 q 10 867 -12 842 q 28 884 18 876 q 35 891 31 888 l 39 895 l 42 897 q 318 943 121 972 q 401 928 353 938 l 445 920 l 488 911 q 629 890 554 899 q 572 857 597 872 l 552 842 q 547 837 549 839 l 547 835 l 547 833 l 489 795 q 176 517 330 673 q 102 439 139 479 l 66 399 l 25 353 q -65 231 -38 279 q -93 178 -77 210 q -105 149 -100 163 l -109 142 l -110 138 l -109 138 l -108 139 l -100 143 q -73 151 -85 151 q -52 126 -56 148 l -4 153 l 5 157 l 14 162 q 31 170 24 168 q 75 185 54 182 q 107 185 90 186 q 130 182 120 184 q 255 124 187 170 q 315 81 277 110 l 330 70 l 345 58 q 380 39 362 45 q 408 43 378 46 q 437 37 418 41 l 455 35 l 472 32 q 532 28 508 26 q 542 38 556 30 q 630 41 589 31 q 663 53 648 45 q 676 62 675 59 q 710 104 681 76 q 729 123 716 111 l 734 127 l 741 133 q 753 145 747 140 q 814 208 787 177 q 843 241 831 227 q 867 275 859 260 q 881 302 877 290 q 883 318 884 313 q 880 321 882 329 q 877 314 878 317 l 876 311 l 873 308 q 865 296 869 300 q 863 298 861 291 q 803 218 847 261 q 714 147 764 179 q 621 101 659 111 q 530 101 581 90 q 476 116 508 106 q 446 125 465 119 l 431 131 l 415 136 l 411 138 l 410 138 q 405 141 408 139 q 382 158 397 146 l 368 168 l 355 177 q 327 197 339 189 q 195 267 257 244 q 156 278 175 273 l 136 282 l 128 283 l 128 283 l 125 283 l 122 282 l 121 281 l 121 281 l 121 282 q 125 288 123 285 l 125 289 l 125 289 l 127 292 z "},"[":{"ha":326,"x_min":0,"x_max":448,"o":"m 107 959 l 110 959 l 112 960 q 114 954 115 960 q 111 932 113 944 l 104 913 q 96 871 96 886 l 100 868 l 81 798 q 62 663 70 728 q 66 659 66 664 q 60 627 64 648 l 57 608 l 53 588 l 52 576 q 54 572 52 574 l 55 571 l 52 554 l 49 538 q 20 124 35 366 l 20 77 q 18 32 20 52 q 9 -40 16 7 l 5 -77 q 0 -111 1 -97 q 10 -124 6 -109 q 14 -140 12 -130 l 16 -149 l 17 -157 q 38 -177 25 -197 l 37 -188 q 39 -191 37 -190 l 41 -191 l 43 -191 l 50 -193 q 65 -194 58 -193 q 82 -191 80 -195 q 102 -170 90 -181 q 177 -151 125 -158 q 229 -151 194 -149 l 242 -151 l 254 -152 q 271 -153 266 -153 q 257 -144 282 -151 q 245 -136 236 -138 q 183 -136 218 -135 l 155 -136 l 127 -136 l 102 -136 l 102 -136 l 102 -136 l 101 -136 l 101 -136 l 101 -135 l 101 -135 l 101 -132 l 104 -106 l 115 -1 q 142 210 127 110 q 185 545 145 278 q 248 919 222 795 l 250 930 q 269 1042 260 988 l 273 1069 l 275 1083 q 275 1086 275 1085 l 275 1086 l 275 1087 l 273 1100 q 281 1107 275 1103 l 283 1107 l 284 1109 q 288 1111 286 1110 l 309 1116 l 290 1119 q 284 1120 286 1119 l 279 1122 l 294 1123 l 314 1124 q 341 1128 334 1126 q 374 1143 380 1135 q 361 1149 371 1145 l 352 1152 l 342 1156 q 336 1160 337 1158 l 335 1162 l 336 1165 q 321 1173 336 1171 l 369 1175 q 361 1177 370 1177 q 352 1176 357 1177 l 342 1175 q 323 1178 316 1173 q 352 1180 334 1178 l 366 1181 l 381 1183 q 368 1185 378 1185 l 357 1185 l 346 1185 q 317 1187 316 1184 q 330 1188 321 1188 l 339 1187 l 349 1187 q 374 1190 373 1185 q 364 1192 375 1192 l 355 1191 l 351 1191 l 347 1191 q 407 1202 394 1196 q 383 1212 421 1208 q 398 1212 389 1213 l 415 1212 q 448 1213 436 1212 l 412 1213 l 445 1215 l 439 1218 q 414 1218 424 1219 l 435 1219 q 416 1225 427 1223 l 397 1229 l 387 1230 l 378 1232 q 349 1235 358 1236 l 307 1234 l 285 1234 l 248 1232 l 164 1227 q 162 1227 163 1228 l 161 1225 l 161 1224 l 160 1219 l 158 1209 l 154 1189 l 145 1148 l 123 1044 l 107 959 z "},"\\":{"ha":422,"x_min":-156,"x_max":490,"o":"m -37 913 l -35 915 q -31 912 -33 916 q -20 881 -24 902 l -16 865 q -9 850 -13 857 l -4 850 l 10 795 l 53 697 q 57 696 55 700 q 66 673 61 688 l 71 659 l 77 644 l 81 635 q 83 634 82 634 l 85 634 q 94 609 90 623 l 237 317 q 272 254 262 275 q 291 200 280 234 l 300 173 q 309 147 305 157 q 323 142 313 151 q 331 133 326 138 l 340 122 q 370 105 364 94 l 372 96 l 376 87 q 382 71 379 77 q 393 52 390 52 q 421 40 407 52 q 460 -11 439 25 q 467 -28 463 -18 l 470 -38 l 473 -47 q 482 -72 479 -69 q 486 -62 487 -77 q 486 -52 486 -54 q 490 -52 487 -48 q 403 188 456 45 l 357 309 q 311 431 330 381 q 211 677 298 456 l 100 956 l 96 965 q 20 1122 57 1065 q -22 1177 4 1145 q -17 1148 -19 1161 q -44 1196 -35 1188 q -67 1213 -63 1221 q -69 1202 -68 1211 l -69 1194 l -69 1185 q -71 1179 -69 1180 l -73 1177 l -75 1176 q -78 1162 -81 1173 l -95 1196 q -94 1189 -97 1195 q -90 1183 -92 1187 l -87 1176 q -83 1162 -77 1158 q -94 1181 -86 1169 l -100 1191 l -105 1200 q -103 1190 -106 1198 l -100 1183 l -96 1175 q -90 1154 -87 1154 q -94 1162 -92 1156 l -96 1169 l -99 1176 q -111 1193 -105 1194 q -108 1185 -111 1192 l -105 1179 l -103 1176 l -102 1173 q -131 1210 -121 1203 q -132 1188 -142 1216 l -138 1198 l -143 1210 q -155 1230 -149 1223 l -155 1229 q -149 1218 -153 1226 l -146 1212 l -142 1206 q -155 1227 -150 1219 l -156 1221 l -152 1213 l -148 1206 l -156 1219 q -155 1204 -156 1211 l -152 1190 l -149 1176 q -142 1156 -145 1161 q -90 1036 -119 1106 l -64 974 l -38 911 l -37 913 z "},"]":{"ha":312,"x_min":-107,"x_max":336,"o":"m 179 1053 l 181 1054 l 183 1055 q 186 1049 186 1055 q 179 1010 186 1035 l 174 991 q 172 971 172 981 l 177 969 l 161 903 l 149 777 q 153 773 152 778 q 149 743 152 762 l 146 726 l 142 707 l 142 696 q 143 693 142 694 l 145 692 q 140 661 143 678 l 134 568 q 127 473 130 515 q 113 275 121 366 q 111 189 113 218 q 100 123 108 164 l 93 89 q 87 58 89 68 q 96 44 93 58 q 99 30 98 39 l 101 13 q 117 -24 106 -31 q 107 -77 111 -52 q 104 -111 103 -106 q 109 -131 108 -119 q 68 -134 102 -138 l 58 -132 l 47 -131 q 25 -131 35 -129 q 11 -134 19 -132 l 3 -136 l -5 -138 q -54 -141 -24 -141 l -67 -140 l -79 -140 q -96 -140 -93 -140 q -83 -149 -107 -142 q -70 -156 -61 -154 q -26 -155 -50 -156 l -16 -154 l -7 -153 q 9 -152 3 -152 q 25 -152 20 -151 l 42 -153 l 52 -156 l 62 -159 l 148 -193 l 182 6 l 201 121 l 237 353 q 250 470 238 376 q 262 564 254 503 l 265 589 l 269 615 l 275 668 l 321 1022 l 322 1034 l 324 1046 l 326 1059 q 328 1086 328 1074 q 334 1164 332 1118 l 336 1209 q 336 1220 335 1213 l 336 1225 l 336 1231 q 323 1242 336 1242 q 243 1261 267 1258 q 209 1263 228 1263 q 195 1263 200 1263 l 184 1262 q 142 1258 165 1261 q 176 1247 161 1253 q 111 1249 125 1252 q 79 1237 73 1244 q 90 1230 81 1234 l 98 1225 l 106 1221 q 113 1216 112 1219 l 113 1214 l 113 1211 q 125 1202 112 1205 l 81 1204 q 88 1202 80 1202 q 96 1202 92 1202 l 106 1202 q 123 1197 130 1201 q 96 1198 113 1198 l 83 1198 l 69 1198 q 81 1194 71 1195 l 91 1193 l 102 1192 q 127 1187 129 1190 q 116 1188 125 1187 l 107 1190 l 99 1191 q 75 1189 77 1194 q 83 1187 74 1188 l 92 1187 l 96 1187 l 100 1187 q 43 1181 56 1185 q 65 1168 29 1175 q 51 1169 59 1168 l 35 1171 q 1 1173 13 1173 l 2 1173 l 11 1172 l 20 1171 q 38 1169 33 1169 q 4 1171 18 1170 l 10 1167 q 35 1164 24 1165 l 13 1166 q 32 1157 22 1161 l 51 1152 l 60 1150 l 68 1148 q 94 1143 86 1143 q 170 1137 141 1140 l 180 1135 q 184 1135 182 1135 q 186 1135 186 1134 l 187 1133 l 189 1132 q 189 1131 190 1132 l 189 1129 l 189 1128 l 187 1122 q 186 1114 188 1124 l 185 1103 l 184 1093 l 179 1053 z "},"^":{"ha":296,"x_min":0,"x_max":299,"o":"m 136 991 l 133 995 q 131 998 131 996 q 131 998 130 998 q 133 996 132 998 q 134 995 135 994 l 132 1000 q 136 994 134 998 l 136 996 q 136 1001 136 998 l 135 1008 q 136 1009 135 1010 l 136 1009 l 136 1008 l 136 1010 l 136 1018 q 137 1017 137 1019 q 140 1036 138 1025 l 141 1046 l 142 1048 l 143 1050 q 147 1057 144 1055 q 160 1061 153 1063 q 172 1062 168 1066 q 176 1049 174 1059 l 178 1042 l 180 1035 q 200 1042 187 1044 l 205 1041 l 211 1041 q 221 1046 217 1042 l 224 1040 l 227 1032 q 233 1025 230 1025 q 256 1025 247 1027 q 281 1012 271 1023 q 283 1006 282 1010 l 284 999 q 287 990 286 991 q 293 996 290 989 q 299 1000 296 1002 q 286 1043 294 1021 q 257 1124 269 1094 q 225 1200 245 1154 l 210 1236 l 194 1274 q 177 1303 189 1279 l 165 1329 l 158 1343 l 151 1356 q 86 1208 122 1286 q 58 1150 73 1178 q 46 1129 52 1140 l 41 1121 l 37 1114 l 34 1108 q 9 1060 18 1080 q 3 1041 5 1050 q 0 1026 1 1033 q 3 998 1 1016 q 15 1004 9 1002 l 12 999 l 10 994 q 10 985 9 988 q 18 972 10 973 q 26 973 21 972 l 31 974 l 35 975 q 40 975 37 975 l 45 973 q 54 973 50 971 l 50 962 q 52 963 51 961 l 53 966 l 54 968 q 59 971 56 975 q 56 964 57 969 l 56 960 l 54 957 q 59 959 57 956 l 60 961 l 62 964 q 68 968 66 970 q 66 966 68 968 l 65 964 l 63 962 q 63 956 58 958 q 65 958 64 955 l 66 960 l 67 962 q 69 945 65 949 q 82 946 73 939 l 80 943 l 78 940 q 75 932 75 935 l 75 932 l 76 935 l 77 937 q 79 940 79 939 l 77 932 l 81 933 q 84 938 83 936 l 82 933 l 91 935 l 96 938 l 102 941 q 108 945 107 943 l 118 962 l 128 980 l 133 989 l 134 990 q 136 991 135 991 l 136 991 z "},"_":{"ha":485,"x_min":32,"x_max":452,"o":"m 128 -63 l 128 -61 l 127 -59 q 129 -56 127 -57 q 138 -58 132 -54 l 142 -60 q 147 -60 145 -61 l 147 -55 l 163 -62 q 193 -59 177 -61 q 194 -55 193 -56 q 201 -55 197 -54 l 206 -56 l 210 -56 l 213 -56 l 214 -54 l 214 -52 q 222 -53 218 -52 l 319 -26 q 342 -16 334 -18 q 359 -17 348 -15 l 368 -18 l 376 -19 q 379 -7 375 -14 l 382 -3 l 387 2 q 395 24 397 14 l 400 23 l 406 24 q 412 28 411 24 q 433 68 414 57 q 439 68 435 69 l 444 68 q 452 68 450 66 q 451 72 452 70 l 448 75 q 446 83 444 81 q 376 83 425 84 l 340 83 q 301 85 319 83 q 220 81 290 81 q 166 81 197 81 q 143 81 156 81 l 134 81 l 127 81 l 123 81 q 67 70 88 82 q 47 53 60 65 q 58 46 52 50 q 41 41 43 45 q 35 27 32 34 q 39 20 36 24 l 43 17 l 45 14 q 48 9 47 12 l 49 5 q 54 -3 50 -1 l 43 -5 q 45 -7 43 -7 l 47 -6 l 50 -5 q 54 -9 55 -4 q 47 -9 52 -8 l 45 -11 l 41 -12 q 45 -14 43 -14 l 47 -15 l 50 -15 q 57 -18 57 -15 q 54 -18 56 -18 l 52 -17 l 50 -16 q 45 -20 44 -15 q 47 -21 45 -21 l 50 -20 l 51 -20 q 40 -31 41 -24 q 47 -41 39 -37 l 45 -41 l 41 -41 q 35 -41 37 -40 l 35 -41 l 39 -42 q 42 -42 41 -42 l 36 -43 l 38 -46 q 43 -47 41 -47 l 39 -47 l 44 -54 l 49 -57 l 53 -60 q 59 -64 58 -64 l 128 -63 z "},"`":{"ha":229,"x_min":-1,"x_max":217,"o":"m 13 1335 q 16 1335 15 1336 q 16 1329 18 1334 l 15 1325 q 16 1322 15 1323 l 21 1323 l 18 1310 q 27 1291 22 1301 q 31 1292 31 1293 q 33 1287 33 1291 l 33 1284 l 34 1281 l 35 1280 l 37 1280 l 39 1280 l 39 1274 l 88 1219 q 102 1208 99 1213 q 105 1197 104 1204 l 106 1191 l 106 1185 q 118 1186 112 1187 l 123 1185 l 129 1183 q 151 1183 142 1180 l 152 1180 l 153 1176 q 158 1173 155 1172 q 180 1173 171 1175 q 201 1164 193 1172 q 202 1160 202 1163 l 202 1155 q 203 1147 201 1149 q 207 1148 205 1147 l 210 1152 q 217 1155 214 1156 q 205 1212 215 1181 l 197 1238 q 189 1264 192 1253 q 166 1316 182 1272 q 147 1378 151 1358 l 146 1380 q 125 1415 140 1404 l 117 1420 l 106 1425 q 102 1415 104 1419 q 98 1422 100 1419 q 94 1426 96 1426 q 79 1426 85 1432 q 75 1420 77 1425 l 72 1417 l 68 1413 q 66 1411 68 1412 l 61 1408 q 54 1402 56 1405 l 52 1409 q 50 1407 50 1408 l 52 1404 q 50 1400 54 1401 q 48 1404 50 1402 l 46 1405 l 45 1407 q 43 1403 43 1405 l 43 1400 q 41 1395 44 1396 q 41 1397 41 1395 l 42 1400 q 39 1402 43 1404 q 38 1400 37 1401 l 38 1398 q 20 1391 28 1406 l 20 1392 l 20 1394 q 19 1395 20 1396 l 18 1395 q 19 1394 19 1395 l 19 1392 l 18 1394 l 18 1394 l 16 1392 l 15 1391 l 16 1390 l 14 1391 l 9 1385 q 3 1379 7 1383 l 1 1377 q -1 1377 0 1377 q 0 1369 -1 1375 l 1 1364 l 3 1358 q 9 1334 5 1345 l 13 1335 z "},"a":{"ha":605,"x_min":-28,"x_max":727,"o":"m 233 391 q 161 315 197 345 q 143 300 155 309 l 134 294 l 130 292 q 123 288 126 289 q 116 290 119 287 q 113 295 113 292 q 113 301 113 298 l 113 303 l 113 304 l 113 304 q 114 307 113 304 l 116 318 q 165 442 130 369 q 227 553 193 500 q 282 629 256 604 q 247 610 266 623 q 281 640 262 626 q 296 648 288 644 l 298 650 l 300 651 q 304 654 303 653 q 319 660 312 657 l 324 661 l 328 663 q 332 669 334 665 q 320 676 330 673 q 299 681 310 680 q 288 687 290 680 l 287 689 q 283 690 286 690 q 267 687 279 691 q 332 702 302 704 q 321 704 334 705 q 294 699 306 704 q 281 695 288 698 l 276 692 l 271 691 q 267 693 264 688 q 307 707 289 703 q 352 704 332 711 q 332 711 349 709 q 297 710 313 714 q 281 705 290 709 l 274 703 l 268 701 q 256 698 256 696 q 274 706 262 702 q 302 713 288 711 q 317 714 309 713 l 323 714 l 330 713 q 345 715 343 713 q 334 718 347 716 q 310 718 321 719 q 363 714 338 722 q 385 705 374 710 l 389 703 l 393 701 q 399 697 397 699 l 402 696 q 233 391 330 512 m 404 701 l 402 703 l 400 706 q 393 713 397 709 q 368 730 383 722 q 406 706 387 722 l 404 701 m 722 441 q 703 432 716 440 l 698 429 l 692 426 q 685 422 688 422 q 684 426 679 418 q 616 355 652 397 l 601 338 l 587 321 q 559 291 571 303 q 507 243 529 259 l 506 255 q 509 372 504 302 q 544 616 519 491 q 546 633 545 624 q 550 658 548 645 q 564 720 556 690 l 427 766 q 412 721 420 745 q 368 751 391 741 q 331 762 351 759 q 301 762 315 764 q 220 730 260 756 q 164 685 192 712 q 83 585 123 644 q 23 477 50 534 q -22 359 -8 412 q -20 359 -22 358 l -19 360 l -18 360 q -17 351 -16 360 q -20 333 -19 342 q -24 310 -22 321 q -27 260 -28 281 q 8 172 -24 203 l 15 172 q 83 138 42 143 q 168 150 124 132 q 205 171 183 157 q 230 188 218 179 q 269 222 250 203 q 336 296 304 255 q 335 301 331 295 q 348 319 340 308 l 355 328 l 363 338 q 395 382 382 363 l 404 396 q 404 401 404 399 l 404 402 l 404 404 l 412 416 l 410 381 l 410 359 l 408 335 q 405 286 406 304 q 410 187 403 227 q 428 170 414 191 l 431 165 l 435 160 q 444 151 439 155 q 471 145 457 139 l 471 145 q 500 160 491 151 q 500 172 510 170 q 548 199 522 178 q 571 223 572 218 q 578 262 568 237 q 631 349 594 296 q 679 400 650 374 l 692 412 q 705 422 697 417 q 722 437 720 435 q 722 441 727 443 z "},"b":{"ha":625,"x_min":-1,"x_max":694,"o":"m 291 986 q 431 1274 359 1173 q 504 1349 471 1331 q 538 1353 524 1358 l 540 1352 l 541 1352 l 541 1352 l 541 1351 q 541 1347 541 1350 q 542 1339 542 1343 q 534 1295 543 1324 q 488 1184 521 1249 q 427 1077 463 1135 q 396 1027 414 1055 l 382 1004 l 368 982 q 263 820 315 897 l 320 880 q 290 841 307 863 l 276 823 q 262 806 267 812 q 224 755 233 768 l 220 749 l 215 743 q 291 986 250 875 m 216 652 q 232 669 216 650 q 259 700 245 684 q 181 600 201 628 l 184 616 l 187 631 q 205 703 194 659 l 214 710 l 222 718 q 241 732 235 727 q 254 741 251 741 q 257 741 256 742 l 258 739 q 286 758 262 734 q 214 673 250 715 q 228 686 215 671 q 241 702 233 692 l 248 711 l 256 720 q 286 751 294 766 q 244 699 272 734 l 222 673 l 201 647 q 223 667 206 649 q 257 706 234 680 q 302 753 301 758 q 282 731 297 747 q 269 715 277 726 l 254 700 q 216 652 216 659 m 178 585 q 217 621 189 594 q 176 576 203 604 l 178 585 m 505 366 q 417 240 477 298 q 405 213 426 239 q 352 164 382 185 q 319 145 337 154 q 291 133 305 138 q 275 125 278 127 q 282 120 273 122 q 252 120 267 118 q 234 125 241 121 q 216 138 222 130 q 207 160 208 148 q 207 179 205 169 q 215 209 208 193 q 226 233 220 220 q 236 250 230 241 q 245 269 245 267 q 249 292 244 279 q 269 334 254 311 q 291 362 279 349 l 298 370 l 307 378 q 330 397 317 388 q 440 450 385 431 q 507 465 473 462 l 518 465 q 521 441 521 452 q 505 366 521 407 m 162 507 l 168 542 l 170 551 l 173 553 l 190 569 l 206 585 q 238 614 225 602 q 285 662 271 645 q 534 987 433 835 q 640 1170 603 1090 q 680 1280 669 1231 q 686 1349 688 1317 q 680 1392 685 1373 q 656 1438 672 1418 q 657 1434 656 1438 l 658 1431 q 658 1429 658 1430 q 640 1447 658 1428 q 598 1476 623 1463 l 591 1479 l 581 1483 q 560 1489 571 1487 q 479 1489 520 1499 q 366 1417 416 1472 l 365 1409 q 255 1259 309 1352 q 133 956 189 1133 q 134 948 138 960 q 123 913 130 935 l 117 895 l 111 874 q 85 786 95 822 l 78 758 q 78 751 78 753 l 79 749 l 79 747 l 60 672 q 42 581 50 628 l 35 536 l 28 498 l 23 459 q 14 201 -1 288 q 61 169 33 193 l 62 168 l 64 166 q 66 165 66 165 q 65 171 65 168 q 67 182 65 176 q 82 206 71 193 q 155 262 108 237 q 157 271 155 267 l 157 273 l 159 275 l 162 283 l 166 292 q 170 300 169 298 l 177 313 q 184 326 182 321 q 212 368 197 347 q 241 406 225 387 l 256 422 l 266 435 q 351 510 309 482 q 432 543 395 542 q 470 533 452 543 q 502 505 488 522 q 515 479 509 494 l 500 478 q 389 449 452 473 q 340 428 368 441 l 330 423 l 320 418 l 311 413 q 283 393 298 405 q 206 311 243 359 q 174 262 187 286 l 167 248 q 160 233 163 240 q 148 195 152 215 l 147 189 l 146 182 q 145 168 145 175 q 152 130 146 149 q 178 90 160 106 q 214 67 194 75 q 231 62 222 64 l 235 62 l 239 61 l 245 60 l 256 59 l 265 59 q 302 62 283 59 q 418 109 360 71 q 505 183 463 138 q 540 226 526 206 q 571 273 557 250 q 614 382 602 329 q 620 441 620 412 q 656 414 641 429 q 674 396 665 406 l 677 393 l 680 389 q 684 385 683 386 q 689 385 694 374 q 669 414 684 395 q 653 431 663 421 q 645 438 650 434 l 642 441 l 639 444 q 644 444 629 452 q 619 459 634 452 q 606 520 616 492 q 565 585 593 555 q 503 630 537 614 q 423 646 465 648 q 353 633 389 646 q 250 573 303 614 q 208 537 229 557 l 189 518 l 175 504 l 172 500 l 172 500 q 167 487 172 498 l 165 484 l 164 481 l 162 473 q 160 482 161 476 q 161 501 160 490 l 162 507 z "},"c":{"ha":530,"x_min":-14,"x_max":718,"o":"m 144 671 l 146 669 q 145 664 149 668 q 130 650 138 657 l 114 637 q 85 608 94 622 l 87 604 q 42 551 60 575 q -7 427 5 490 q -4 423 -3 428 l -5 416 l -7 408 q -10 389 -9 396 q -14 349 -14 367 l -12 336 q -10 333 -12 334 l -8 332 q -5 296 -7 311 q 50 197 10 237 q 151 143 91 155 q 256 150 201 134 q 304 170 280 157 q 345 193 323 180 l 406 241 q 456 275 422 252 l 481 292 q 505 308 496 301 q 507 323 500 311 q 513 334 509 328 l 522 346 q 531 380 544 378 l 539 385 l 547 391 q 563 402 557 397 q 579 418 580 414 q 586 448 576 433 q 638 498 600 471 q 681 516 652 507 l 692 519 l 701 523 q 713 528 710 526 q 713 531 718 530 q 701 531 710 532 q 688 535 682 530 q 551 467 621 512 q 494 427 526 450 l 467 406 l 439 387 q 335 314 373 338 q 235 266 269 273 q 224 262 231 264 q 210 260 218 260 q 175 262 191 258 q 142 285 155 269 q 124 337 127 304 q 160 471 117 398 q 197 523 176 498 q 229 554 213 541 l 235 560 q 294 600 265 585 q 323 610 309 606 q 345 614 334 614 l 349 616 l 351 616 q 357 618 355 618 q 372 614 364 618 q 368 630 372 623 q 380 618 374 626 l 382 615 l 383 612 q 387 608 385 609 q 399 592 395 590 q 414 613 407 595 q 416 619 414 618 l 419 621 l 421 621 q 426 635 427 623 q 433 593 433 616 q 435 600 435 592 q 433 618 435 609 l 430 626 l 429 630 l 429 633 q 431 636 427 638 q 438 581 441 603 q 442 593 441 583 q 442 616 444 604 q 440 627 441 621 l 439 632 l 438 636 q 437 645 435 645 q 442 632 440 642 q 444 613 444 623 q 447 586 445 587 q 449 596 448 585 q 448 615 450 608 q 450 575 452 596 l 450 568 l 450 562 q 450 552 450 555 q 454 549 450 545 q 467 573 460 554 q 456 541 465 560 l 450 526 l 446 518 l 444 511 l 444 511 l 446 515 l 448 519 l 452 527 q 459 544 457 538 q 446 513 455 531 l 452 517 q 463 540 459 528 q 454 519 460 532 q 469 534 462 525 q 488 574 481 555 q 492 615 494 595 q 426 725 487 688 q 364 748 399 743 q 309 749 338 752 q 142 671 224 739 l 144 671 z "},"d":{"ha":640,"x_min":-33,"x_max":856,"o":"m 444 710 l 401 630 q 319 488 356 549 q 182 306 241 361 q 167 291 177 300 q 149 277 157 283 q 140 272 145 275 l 135 269 q 126 269 130 268 q 120 276 122 271 q 119 278 120 277 l 119 282 q 117 292 117 288 q 116 315 116 303 q 135 419 117 359 q 172 513 149 465 q 264 655 212 601 q 208 609 238 637 q 267 668 236 643 q 292 687 279 677 q 302 694 297 690 l 307 697 l 311 699 q 342 715 326 709 q 353 719 347 717 l 357 720 l 361 722 q 368 728 373 726 q 342 732 361 732 q 304 727 323 732 q 287 728 289 722 q 286 730 286 730 q 281 731 283 731 q 255 720 273 730 q 304 747 279 736 q 358 761 331 758 q 353 762 359 762 q 338 760 347 762 q 296 745 315 754 q 277 734 288 741 l 269 730 l 265 728 l 262 726 q 256 727 251 720 q 317 758 288 747 q 388 768 355 770 q 355 770 380 772 q 302 758 326 768 q 277 747 290 753 l 267 741 q 258 736 263 739 q 241 728 240 726 q 267 744 249 735 q 309 762 288 755 q 331 768 319 765 q 351 772 339 770 q 373 777 371 775 q 366 777 374 777 q 347 776 357 777 q 316 768 333 774 q 400 781 359 783 q 436 774 418 779 q 449 771 441 773 l 454 770 l 459 768 q 465 772 476 764 l 462 774 l 457 777 q 444 784 451 781 q 400 797 425 792 q 477 771 438 793 q 467 751 471 759 l 444 710 m 726 1488 q 664 1326 696 1421 q 635 1240 652 1291 l 621 1195 l 606 1149 l 547 966 q 484 788 508 844 l 483 785 q 391 818 437 812 q 341 819 366 821 q 303 810 321 817 q 116 671 203 778 q 9 481 49 586 q -21 374 -12 426 q -21 247 -33 301 l -18 237 l -15 227 q -5 204 -11 215 q 21 166 5 182 q 103 123 55 131 q 195 138 149 117 q 253 174 223 151 q 250 175 252 175 l 248 175 l 247 175 q 256 186 244 176 q 332 263 295 223 q 393 344 370 306 l 392 351 q 477 477 433 408 l 477 471 l 475 465 q 481 435 481 469 q 481 402 481 424 l 480 382 l 479 363 q 480 297 478 317 q 490 286 482 271 q 478 182 483 237 q 477 122 473 126 q 496 63 488 109 q 505 -4 498 50 q 511 -50 508 -30 q 519 -103 515 -77 q 529 -151 524 -131 q 542 -195 535 -178 q 557 -221 549 -212 q 564 -227 561 -224 q 568 -229 566 -229 q 572 -227 579 -233 q 570 -224 570 -225 l 569 -223 l 568 -222 l 566 -217 q 560 -205 562 -210 q 564 -204 559 -199 q 542 -144 551 -183 q 531 -64 534 -110 q 532 110 526 10 q 580 464 543 264 q 763 1170 647 825 q 775 1210 768 1188 q 795 1269 785 1238 q 856 1430 823 1349 l 726 1488 z "},"e":{"ha":454,"x_min":-36,"x_max":616,"o":"m 191 560 q 248 597 218 587 q 260 601 253 600 q 265 602 262 601 q 267 602 267 602 q 273 600 271 602 q 277 597 275 600 q 278 593 278 595 l 279 592 q 275 577 278 587 q 272 567 273 570 q 264 555 269 562 q 239 528 254 543 q 212 505 227 517 q 159 467 185 481 q 188 468 175 467 q 172 463 181 465 l 165 460 l 157 458 q 137 452 141 454 q 117 444 123 447 q 138 492 126 470 q 191 560 159 528 m 114 435 q 125 429 117 433 l 132 427 l 139 424 q 145 420 144 422 l 146 418 l 146 416 q 161 409 146 410 q 116 404 137 404 q 123 402 115 402 q 141 405 131 403 q 159 404 164 408 l 146 402 l 134 400 q 106 397 117 397 q 114 435 109 416 m 138 389 q 105 385 124 387 l 106 396 q 138 395 116 393 q 167 395 167 397 q 154 393 163 394 l 145 393 l 136 393 q 110 389 111 393 q 120 388 109 388 q 138 389 130 388 m 612 488 q 605 490 611 489 q 593 491 600 491 l 583 492 q 575 492 578 492 q 576 496 570 493 q 485 462 536 488 q 414 418 451 444 q 351 371 384 397 l 293 324 q 194 267 235 277 q 161 265 174 261 q 136 284 149 269 l 133 288 l 129 292 q 121 304 124 297 q 106 347 111 321 q 137 345 126 343 q 319 413 234 353 q 393 489 366 448 q 409 520 404 507 q 417 548 415 537 q 423 581 421 563 q 422 619 425 602 q 420 618 421 619 l 418 616 q 414 624 416 614 q 388 688 405 664 q 332 732 366 721 l 326 728 q 267 741 299 740 q 214 736 239 742 q 79 646 138 713 q 80 641 83 645 q 70 628 77 636 l 64 621 l 58 614 q 32 581 42 595 l 26 570 q 26 566 25 567 l 26 564 l 27 564 q 9 533 18 549 q -12 317 -36 422 q 8 263 -4 288 q 24 237 14 251 q 41 214 32 225 q 150 155 87 160 q 201 162 175 155 q 245 178 220 168 q 363 248 308 205 q 364 264 357 252 q 372 277 367 269 l 380 290 q 391 326 404 325 l 399 332 l 408 339 q 425 352 419 348 q 443 370 444 367 q 451 402 439 385 q 471 427 459 415 q 509 457 486 442 q 562 477 531 470 q 591 482 574 480 l 597 483 l 603 484 q 611 485 609 484 q 612 488 616 486 z "},"f":{"ha":361,"x_min":-37,"x_max":664,"o":"m 519 1354 l 519 1345 q 496 1222 515 1295 q 458 1102 479 1160 q 448 1076 452 1087 l 446 1072 q 444 1067 445 1069 l 437 1055 l 410 1006 q 309 837 356 907 q 366 899 334 863 q 336 859 352 880 q 308 823 324 843 q 269 772 273 779 q 226 717 233 728 q 224 706 217 704 q 250 722 231 709 q 267 734 256 727 l 275 741 l 284 748 q 298 757 294 757 q 300 756 299 757 l 302 754 q 330 773 306 749 q 253 688 293 730 q 268 701 253 686 q 298 734 281 715 q 331 766 336 778 q 308 741 322 756 l 285 714 q 236 662 256 682 q 298 721 250 667 q 347 770 346 772 q 294 714 336 756 q 252 667 252 671 q 271 683 252 665 q 300 714 288 701 q 267 677 284 696 q 237 645 254 663 q 199 604 205 610 q 200 597 187 591 q 250 635 214 605 q 205 595 233 618 q 154 554 185 578 q 174 640 165 602 q 345 1131 244 926 q 451 1308 397 1237 q 477 1339 464 1324 l 490 1353 l 496 1358 l 500 1362 q 509 1368 505 1367 q 513 1369 511 1369 q 518 1362 517 1367 l 519 1357 l 519 1354 m 169 564 l 153 551 l 154 552 l 169 564 m 127 310 q 165 205 151 262 q 184 -23 193 95 q 167 -134 180 -83 q 150 -184 159 -162 q 140 -205 144 -196 l 138 -210 q 135 -211 137 -211 q 133 -210 134 -211 l 132 -209 l 131 -205 q 122 -184 127 -197 q 109 -132 114 -163 q 94 -31 98 -97 q 94 149 88 54 q 114 338 99 234 q 127 310 122 323 m 579 1523 q 581 1520 578 1522 l 583 1518 l 583 1516 q 562 1521 584 1516 q 404 1463 490 1539 q 328 1377 359 1425 l 328 1370 q 228 1215 275 1301 q 103 901 158 1076 q 105 893 108 905 q 94 857 101 880 l 87 837 l 81 816 q 54 724 64 762 l 47 696 q 47 688 47 691 l 48 686 l 49 685 l 28 606 l 16 539 q -37 542 -17 541 l 7 486 q -29 117 -26 290 q -9 -142 -31 -35 q 8 -209 -2 -180 q 21 -242 14 -226 l 30 -259 q 42 -279 34 -267 q 114 -332 72 -323 q 197 -308 160 -343 q 222 -277 210 -296 q 238 -248 231 -262 q 258 -191 250 -222 q 279 -80 271 -142 q 284 98 290 10 q 254 271 278 191 q 233 296 250 264 l 229 302 l 224 311 q 215 327 219 320 q 193 361 203 347 q 142 425 170 397 q 130 437 136 433 l 137 471 l 155 471 q 216 471 195 470 q 241 473 229 472 q 260 476 250 474 q 275 481 273 479 q 330 514 286 494 q 343 520 335 517 l 350 524 l 358 527 q 393 543 378 536 q 485 593 440 566 q 529 622 511 609 q 573 654 555 639 q 605 685 591 669 q 620 705 616 699 q 618 710 625 718 l 602 694 q 583 680 591 684 q 583 684 576 675 q 376 563 504 606 q 256 535 319 543 q 149 531 218 529 l 152 545 q 196 580 178 564 q 153 545 170 557 q 195 569 174 555 q 323 674 288 635 q 462 842 395 750 q 522 932 491 883 l 551 977 l 564 1000 q 574 1018 570 1009 l 576 1025 l 580 1031 q 649 1244 624 1135 q 659 1301 655 1273 q 663 1331 661 1316 l 663 1346 q 664 1371 664 1356 q 642 1464 664 1424 q 579 1523 620 1507 z "},"g":{"ha":665,"x_min":-63,"x_max":946,"o":"m 296 -265 q 159 -422 233 -390 q 119 -435 141 -431 q 84 -432 100 -438 q 39 -373 49 -419 q 78 -242 24 -310 q 192 -148 119 -190 q 210 -125 184 -145 q 269 -87 235 -105 l 285 -79 l 300 -71 q 326 -57 320 -60 q 332 -43 348 -45 q 385 -31 355 -37 l 381 -44 l 377 -57 q 296 -265 337 -184 m 389 507 l 364 482 l 330 448 q 220 348 271 389 l 201 332 q 111 269 148 289 q 104 267 107 268 l 100 265 q 92 269 95 264 q 90 278 90 272 q 92 289 89 276 q 100 313 96 302 q 140 404 113 351 q 232 551 184 492 q 203 526 218 540 q 178 500 192 515 q 233 564 206 538 q 256 585 242 574 l 262 590 l 267 593 q 274 600 271 598 q 304 621 289 612 l 309 625 l 315 628 q 322 633 320 631 q 326 642 333 640 q 264 627 311 646 q 250 622 253 621 q 248 624 248 623 l 246 626 q 216 614 243 632 q 309 670 264 652 q 291 665 310 673 q 254 643 271 655 q 236 631 246 638 l 229 625 q 222 621 224 623 q 217 621 212 613 l 230 631 l 243 640 q 272 659 258 651 q 335 685 305 678 q 304 679 328 687 q 257 656 278 670 q 235 642 247 650 l 226 636 l 221 633 l 218 630 q 201 621 201 618 q 225 640 209 628 q 262 661 243 652 q 282 671 271 666 l 291 675 l 299 679 q 319 689 317 686 q 313 688 319 690 q 295 682 304 686 q 275 673 286 679 q 257 663 265 668 q 343 700 302 691 q 380 704 361 704 q 395 704 387 705 q 406 703 400 703 q 412 707 424 701 q 402 711 408 709 q 386 715 395 713 q 339 715 364 719 q 383 718 361 720 q 435 703 411 715 q 497 626 484 680 q 422 543 469 594 l 389 507 m 498 626 q 473 675 491 654 q 449 696 463 686 q 425 709 437 705 q 499 628 485 687 l 498 626 m 453 700 q 434 711 444 707 q 453 700 443 707 m 909 -62 l 902 -57 q 891 -50 894 -52 q 896 -47 883 -43 q 537 44 734 43 q 593 241 563 130 l 635 399 l 701 654 q 665 686 675 674 l 659 692 l 654 698 q 647 707 649 705 q 570 714 619 701 q 499 628 536 671 q 496 648 498 638 q 456 698 484 677 q 492 659 479 681 q 448 712 479 690 q 383 734 418 730 q 325 734 355 738 q 279 722 301 730 q 247 708 262 716 q 199 677 224 696 l 187 669 l 176 661 q 154 640 165 651 q 83 559 120 608 q -24 380 15 468 q -43 326 -36 351 q -48 309 -45 319 q -52 286 -51 296 q -55 240 -56 261 q -26 161 -52 195 q 44 116 1 127 q 130 121 83 106 q 172 138 148 127 q 199 153 186 146 q 286 214 239 177 q 283 215 286 215 l 281 215 l 280 215 q 288 225 278 216 q 327 258 304 240 l 345 273 l 363 288 q 435 353 408 323 l 435 360 q 476 397 469 393 q 479 397 479 399 l 479 397 q 481 397 480 396 l 482 399 l 492 412 q 492 412 492 413 l 492 411 q 499 422 498 421 q 496 410 500 420 l 492 399 l 493 397 l 495 397 l 497 397 l 494 390 l 494 387 l 489 372 q 404 34 438 153 q 122 -71 248 9 q -31 -226 18 -138 q -63 -349 -63 -284 q -16 -484 -63 -426 q 52 -532 13 -517 q 94 -541 73 -539 q 114 -542 103 -542 q 132 -541 123 -542 q 251 -498 195 -535 q 393 -332 328 -446 q 417 -285 406 -310 q 448 -214 433 -250 q 519 -13 483 -130 l 524 2 q 558 10 538 7 q 632 14 594 16 q 745 -1 685 13 q 859 -45 799 -14 q 884 -59 871 -52 q 906 -71 894 -64 q 935 -88 930 -86 q 939 -86 946 -94 q 916 -67 932 -80 l 909 -62 z "},"h":{"ha":549,"x_min":-57,"x_max":549,"o":"m 456 831 l 456 833 l 456 833 l 456 833 q 454 829 458 831 l 456 831 m 547 833 q 546 843 547 839 q 536 871 543 856 q 530 880 533 876 l 529 882 l 527 885 q 521 892 525 888 l 513 900 l 510 902 l 504 906 l 500 909 q 467 920 485 917 q 436 922 451 923 q 413 916 426 920 q 381 902 395 911 l 369 895 l 358 887 q 293 826 329 865 q 254 774 276 806 q 196 692 224 736 q 271 1063 249 928 l 291 1211 l 269 1152 l 277 1188 q 285 1222 282 1208 q 294 1270 293 1257 q 296 1330 306 1339 q 283 1311 292 1326 l 276 1296 l 268 1282 q 261 1271 264 1272 q 259 1271 260 1271 l 256 1272 q 242 1251 251 1274 l 262 1333 q 257 1319 261 1335 q 254 1304 256 1314 l 250 1286 q 238 1255 239 1242 q 250 1305 243 1273 l 256 1331 l 262 1356 q 253 1334 258 1353 q 248 1316 250 1326 l 242 1296 q 227 1249 229 1245 q 232 1271 227 1255 q 237 1286 233 1275 l 242 1302 q 251 1348 255 1343 q 245 1331 250 1349 q 241 1314 243 1324 q 237 1300 239 1308 q 257 1407 256 1385 q 235 1369 258 1434 q 251 1425 239 1388 l 256 1440 l 260 1455 q 270 1485 266 1472 l 270 1485 q 258 1450 264 1470 q 248 1419 252 1433 l 252 1434 l 256 1449 q 267 1480 261 1466 l 260 1470 q 244 1425 251 1447 l 256 1464 q 239 1432 248 1450 l 233 1415 l 226 1399 q 214 1369 218 1378 q 197 1320 201 1335 q 54 718 129 1058 q 56 719 54 718 l 57 720 l 58 720 q 60 710 61 720 q 52 672 56 692 l 46 654 l 41 637 q 23 564 28 591 l 27 559 l -7 435 q -53 195 -34 300 q -50 190 -49 199 l -57 149 l -56 149 l -57 148 l 76 125 l 77 127 l 77 127 q 98 200 81 153 l 104 219 q 104 224 104 222 l 103 226 l 103 227 q 125 278 112 251 q 277 592 184 434 q 376 741 330 682 q 433 801 408 782 l 439 805 l 439 803 q 425 646 441 747 q 397 522 417 603 l 390 490 l 382 458 q 369 398 374 422 q 376 374 375 401 q 376 347 376 364 l 375 332 l 374 317 q 385 255 372 236 q 372 174 378 215 q 371 126 368 129 q 389 79 382 115 q 393 56 391 71 l 395 42 l 397 26 q 412 -46 404 -15 q 431 -96 420 -85 q 448 -105 437 -106 q 450 -102 457 -104 q 443 -96 446 -100 q 441 -92 441 -94 q 444 -88 441 -90 l 443 -88 l 442 -87 q 439 -83 441 -85 q 433 -69 436 -78 q 423 -17 426 -49 q 426 113 418 35 q 472 391 437 218 l 487 461 l 503 532 q 532 677 522 621 q 545 753 541 722 q 549 798 549 779 q 549 825 549 812 l 547 833 z "},"i":{"ha":270,"x_min":-7,"x_max":457,"o":"m 441 556 q 430 562 425 559 q 315 513 372 553 q 237 444 277 487 q 204 408 222 428 q 174 372 193 395 l 151 345 l 149 343 q 147 335 150 340 q 144 330 146 332 q 140 329 142 329 q 138 330 139 330 q 136 343 136 334 l 136 347 l 138 364 q 145 407 141 387 q 159 469 151 443 l 160 475 q 174 534 170 511 q 184 590 182 568 l 185 637 q 171 622 177 628 l 175 633 l 178 643 q 180 658 181 653 q 175 679 184 680 q 166 675 172 678 l 161 671 l 155 669 q 150 667 153 666 l 147 667 l 145 668 q 134 664 140 671 l 144 688 q 140 685 142 690 l 139 680 l 137 675 q 130 667 132 661 q 136 682 133 671 l 138 690 l 140 697 q 134 692 138 697 l 132 686 l 129 680 q 119 667 122 665 q 123 673 119 669 l 125 678 l 128 683 q 132 697 135 694 q 127 692 130 698 l 125 688 l 124 683 q 130 718 132 709 q 113 710 127 728 q 117 718 115 713 l 121 726 q 130 743 127 737 l 130 743 l 127 739 l 124 734 q 119 725 121 728 l 127 743 l 123 741 q 115 728 118 734 l 121 740 q 109 732 115 737 l 102 724 l 94 715 q 83 701 85 706 q 20 510 43 606 l 22 510 l 24 510 q 26 507 26 510 q 24 494 26 500 l 19 483 q 12 459 12 469 l 16 457 l 9 437 l 1 416 q -3 376 -1 396 l -5 349 q -7 313 -7 330 q -3 311 -3 316 q -3 296 -3 305 l -3 278 q -1 241 -3 256 l 0 235 l 1 231 q 3 229 2 229 l 5 230 q 12 203 8 216 q 62 149 31 165 q 100 144 81 139 q 116 150 106 146 l 124 153 l 133 157 q 186 212 168 189 q 234 273 208 237 l 246 297 q 259 319 253 310 q 286 349 269 332 l 300 362 l 307 369 l 313 375 q 310 388 309 378 q 312 397 311 392 l 315 408 q 315 436 325 433 q 325 445 318 439 l 330 449 l 336 454 q 346 466 347 463 q 343 478 344 473 q 346 494 343 486 q 385 535 354 514 q 422 545 397 542 l 431 547 l 439 548 q 450 550 448 549 q 441 556 457 554 m 115 849 l 121 844 l 130 846 q 132 840 129 841 q 159 835 137 835 l 163 835 l 168 833 q 177 833 174 833 l 176 829 q 178 829 178 829 l 178 831 q 182 832 178 833 q 182 829 181 831 l 182 828 l 182 827 q 186 827 184 827 l 187 829 q 192 831 189 831 q 191 830 193 831 l 189 829 q 191 826 186 827 q 192 827 191 826 l 193 828 q 199 821 194 823 q 211 821 204 819 l 210 820 l 208 819 q 207 815 207 817 l 208 815 l 209 817 l 210 819 l 209 815 l 212 815 q 215 817 214 817 l 214 815 l 222 816 l 227 817 l 231 818 q 236 820 236 819 q 248 850 245 837 l 244 850 q 241 852 242 851 q 241 854 240 852 l 244 855 q 247 859 248 857 l 242 859 l 250 864 q 249 877 250 870 q 245 878 245 877 q 245 880 244 879 l 247 884 l 246 884 l 244 885 l 242 886 l 244 888 l 238 898 l 233 908 q 220 929 224 921 q 211 939 212 937 q 213 945 211 942 l 215 948 l 216 951 q 205 955 211 952 l 197 960 q 177 970 186 968 l 178 972 l 178 975 q 176 979 179 977 q 156 989 163 984 q 143 1005 146 996 q 145 1009 143 1007 l 148 1013 q 151 1017 152 1017 q 144 1020 150 1020 l 139 1020 q 136 1022 137 1020 q 117 979 123 1004 l 116 970 l 115 962 l 111 945 q 113 911 115 938 q 106 876 110 885 l 106 875 q 109 854 102 863 l 115 849 z "},"j":{"ha":271,"x_min":-641,"x_max":645,"o":"m -124 -201 q -135 -221 -130 -212 q -161 -260 -147 -241 q -225 -322 -189 -296 q -226 -328 -220 -323 q -311 -366 -259 -353 l -326 -370 q -329 -373 -328 -371 l -330 -374 l -330 -375 q -372 -377 -351 -378 q -479 -345 -440 -380 q -509 -301 -500 -328 q -512 -245 -517 -273 q -432 -138 -501 -189 q -287 -63 -374 -95 q -148 -22 -217 -35 q -31 -13 -98 -14 l -38 -27 l -45 -41 q -58 -73 -54 -58 l -56 -77 q -112 -177 -77 -118 l -124 -201 m 627 -114 q 615 -96 604 -90 q 354 37 503 -10 q 149 80 257 68 q 177 189 166 138 q 201 366 196 280 q 203 506 204 425 q 189 448 195 471 q 196 560 199 536 q 188 615 196 625 q 179 596 184 612 l 174 582 l 169 567 q 164 557 167 558 l 161 556 l 159 557 q 149 535 153 558 l 154 612 q 152 600 153 614 q 151 585 151 595 l 150 569 q 144 539 147 527 q 147 586 146 557 l 148 610 l 149 633 q 144 612 147 630 q 142 595 144 606 l 141 576 q 133 532 136 529 q 136 552 133 536 l 138 566 l 140 582 q 140 625 145 621 q 138 608 139 625 q 136 593 137 602 l 136 586 l 136 579 q 134 678 138 655 q 120 641 130 703 q 122 666 121 650 l 125 693 q 128 746 128 727 l 128 745 l 123 688 l 126 742 l 123 732 q 119 692 119 709 l 121 728 q 111 697 116 715 q 106 666 109 684 l 102 651 l 100 637 q 92 591 93 604 q 0 88 66 289 q -210 68 -108 87 q -490 -35 -378 35 l -496 -39 l -503 -45 q -519 -58 -512 -52 q -561 -96 -541 -75 q -607 -158 -589 -125 q -636 -252 -632 -203 q -619 -361 -641 -309 q -545 -457 -596 -419 q -319 -507 -450 -526 q -117 -415 -208 -491 q 7 -257 -40 -353 q 75 -119 43 -190 q 117 -16 98 -66 l 121 -4 q 153 -2 136 -3 l 167 -2 l 180 -1 q 201 0 195 -1 q 210 11 220 3 q 248 3 226 8 l 268 -2 l 286 -6 q 331 -15 328 -16 q 380 -7 345 -5 q 433 -18 406 -10 q 511 -46 470 -27 q 587 -94 541 -60 q 603 -106 594 -100 l 611 -112 l 618 -117 q 637 -132 633 -130 q 641 -131 645 -137 q 627 -114 637 -125 m 123 928 q 127 928 126 928 q 127 925 127 926 l 125 921 l 126 920 l 128 920 l 130 920 l 129 916 q 142 897 134 908 l 158 876 l 164 871 q 169 867 168 868 q 168 860 170 864 l 167 857 l 166 853 q 178 852 172 853 l 187 848 q 209 844 199 844 l 208 842 l 209 840 q 212 838 210 838 q 235 835 225 837 q 252 827 247 832 q 253 825 253 827 l 252 823 q 252 821 250 821 l 255 821 l 259 821 q 267 823 264 823 q 269 849 269 832 l 268 864 l 268 878 q 262 909 262 883 q 265 943 261 934 l 265 944 q 260 964 268 956 l 254 968 l 247 973 l 238 970 q 236 977 239 976 q 209 980 231 982 l 204 980 l 199 981 q 191 980 193 981 l 191 984 q 190 984 190 985 l 190 982 q 186 981 190 979 q 186 983 186 981 l 185 985 l 185 986 q 182 985 183 986 l 180 983 q 176 981 179 981 q 176 982 175 981 l 179 984 q 177 987 182 986 q 175 985 176 987 l 175 984 q 168 991 173 989 q 156 989 163 993 l 157 991 l 158 994 q 159 996 159 994 q 160 997 160 998 l 159 998 q 158 996 159 998 q 157 993 157 994 l 157 996 l 158 998 l 156 998 l 155 998 q 152 994 153 996 l 153 998 q 145 996 149 998 l 140 993 l 136 991 q 131 989 131 990 q 121 957 123 971 l 125 956 q 128 956 127 956 q 128 954 129 955 l 125 952 q 123 948 122 950 l 128 947 l 120 941 q 123 928 121 935 z "}}}
